<?xml version="1.0" encoding="UTF-8" standalone="no"?><svg xmlns="http://www.w3.org/2000/svg" xmlns:xlink="http://www.w3.org/1999/xlink" contentScriptType="application/ecmascript" contentStyleType="text/css" height="430px" preserveAspectRatio="none" style="width:817px;height:430px;" version="1.1" viewBox="0 0 817 430" width="817px" zoomAndPan="magnify"><defs><filter height="300%" id="f6s4ujyj4s3rz" width="300%" x="-1" y="-1"><feGaussianBlur result="blurOut" stdDeviation="2.0"/><feColorMatrix in="blurOut" result="blurOut2" type="matrix" values="0 0 0 0 0 0 0 0 0 0 0 0 0 0 0 0 0 0 .4 0"/><feOffset dx="4.0" dy="4.0" in="blurOut2" result="blurOut3"/><feBlend in="SourceGraphic" in2="blurOut3" mode="normal"/></filter></defs><g><rect fill="#DDDDDD" height="418.8398" style="stroke:#FFFFFF;stroke-width:1.0;" width="810" x="1" y="6"/><text fill="#000000" font-family="sans-serif" font-size="13" font-weight="bold" lengthAdjust="spacing" textLength="112" x="350" y="18.5684">MerchantService</text><line style="stroke:#A80036;stroke-width:1.0;stroke-dasharray:5.0,5.0;" x1="90" x2="90" y1="73.7988" y2="373.3516"/><line style="stroke:#A80036;stroke-width:1.0;stroke-dasharray:5.0,5.0;" x1="302" x2="302" y1="73.7988" y2="373.3516"/><line style="stroke:#A80036;stroke-width:1.0;stroke-dasharray:5.0,5.0;" x1="500" x2="500" y1="73.7988" y2="373.3516"/><line style="stroke:#A80036;stroke-width:1.0;stroke-dasharray:5.0,5.0;" x1="693" x2="693" y1="73.7988" y2="373.3516"/><text fill="#000000" font-family="sans-serif" font-size="14" lengthAdjust="spacing" textLength="164" x="5" y="70.8457">MerchantService.Service</text><ellipse cx="90" cy="41.3105" fill="#FEFECE" filter="url(#f6s4ujyj4s3rz)" rx="12" ry="12" style="stroke:#A80036;stroke-width:2.0;"/><line style="stroke:#A80036;stroke-width:2.0;" x1="78" x2="102" y1="55.3105" y2="55.3105"/><text fill="#000000" font-family="sans-serif" font-size="14" lengthAdjust="spacing" textLength="164" x="5" y="385.8867">MerchantService.Service</text><ellipse cx="90" cy="404.8398" fill="#FEFECE" filter="url(#f6s4ujyj4s3rz)" rx="12" ry="12" style="stroke:#A80036;stroke-width:2.0;"/><line style="stroke:#A80036;stroke-width:2.0;" x1="78" x2="102" y1="418.8398" y2="418.8398"/><text fill="#000000" font-family="sans-serif" font-size="14" lengthAdjust="spacing" textLength="229" x="185" y="70.8457">MerchantService.RepositoryClient</text><ellipse cx="302.5" cy="41.3105" fill="#FEFECE" filter="url(#f6s4ujyj4s3rz)" rx="12" ry="12" style="stroke:#A80036;stroke-width:2.0;"/><line style="stroke:#A80036;stroke-width:2.0;" x1="290.5" x2="314.5" y1="55.3105" y2="55.3105"/><text fill="#000000" font-family="sans-serif" font-size="14" lengthAdjust="spacing" textLength="229" x="185" y="385.8867">MerchantService.RepositoryClient</text><ellipse cx="302.5" cy="404.8398" fill="#FEFECE" filter="url(#f6s4ujyj4s3rz)" rx="12" ry="12" style="stroke:#A80036;stroke-width:2.0;"/><line style="stroke:#A80036;stroke-width:2.0;" x1="290.5" x2="314.5" y1="418.8398" y2="418.8398"/><text fill="#000000" font-family="sans-serif" font-size="14" lengthAdjust="spacing" textLength="134" x="430" y="70.8457">MerchantService.DB</text><ellipse cx="500" cy="41.3105" fill="#FEFECE" filter="url(#f6s4ujyj4s3rz)" rx="12" ry="12" style="stroke:#A80036;stroke-width:2.0;"/><line style="stroke:#A80036;stroke-width:2.0;" x1="488" x2="512" y1="55.3105" y2="55.3105"/><text fill="#000000" font-family="sans-serif" font-size="14" lengthAdjust="spacing" textLength="134" x="430" y="385.8867">MerchantService.DB</text><ellipse cx="500" cy="404.8398" fill="#FEFECE" filter="url(#f6s4ujyj4s3rz)" rx="12" ry="12" style="stroke:#A80036;stroke-width:2.0;"/><line style="stroke:#A80036;stroke-width:2.0;" x1="488" x2="512" y1="418.8398" y2="418.8398"/><text fill="#000000" font-family="sans-serif" font-size="14" lengthAdjust="spacing" textLength="221" x="580" y="70.8457">MerchantService.SpringBootTest</text><ellipse cx="693.5" cy="41.3105" fill="#FEFECE" filter="url(#f6s4ujyj4s3rz)" rx="12" ry="12" style="stroke:#A80036;stroke-width:2.0;"/><line style="stroke:#A80036;stroke-width:2.0;" x1="681.5" x2="705.5" y1="55.3105" y2="55.3105"/><text fill="#000000" font-family="sans-serif" font-size="14" lengthAdjust="spacing" textLength="221" x="580" y="385.8867">MerchantService.SpringBootTest</text><ellipse cx="693.5" cy="404.8398" fill="#FEFECE" filter="url(#f6s4ujyj4s3rz)" rx="12" ry="12" style="stroke:#A80036;stroke-width:2.0;"/><line style="stroke:#A80036;stroke-width:2.0;" x1="681.5" x2="705.5" y1="418.8398" y2="418.8398"/><ellipse cx="302" cy="89.0488" rx="4" ry="4" style="stroke:#A80036;stroke-width:1.5;fill:none;"/><polygon fill="#A80036" points="285,85.7988,295,89.7988,285,93.7988,289,89.7988" style="stroke:#A80036;stroke-width:1.0;"/><line style="stroke:#A80036;stroke-width:1.0;" x1="90" x2="291" y1="89.7988" y2="89.7988"/><path d="M95,102.7988 L95,127.7988 L170,127.7988 L170,112.7988 L160,102.7988 L95,102.7988 " fill="#FBFB77" filter="url(#f6s4ujyj4s3rz)" style="stroke:#A80036;stroke-width:1.0;"/><path d="M160,102.7988 L160,112.7988 L170,112.7988 L160,102.7988 " fill="#FBFB77" style="stroke:#A80036;stroke-width:1.0;"/><text fill="#000000" font-family="sans-serif" font-size="13" lengthAdjust="spacing" textLength="54" x="101" y="120.3672">工序 1-2</text><ellipse cx="499.5" cy="142.3594" rx="4" ry="4" style="stroke:#A80036;stroke-width:1.5;fill:none;"/><polygon fill="#A80036" points="482.5,139.1094,492.5,143.1094,482.5,147.1094,486.5,143.1094" style="stroke:#A80036;stroke-width:1.0;"/><line style="stroke:#A80036;stroke-width:1.0;" x1="302.5" x2="488.5" y1="143.1094" y2="143.1094"/><path d="M307,156.1094 L307,181.1094 L382,181.1094 L382,166.1094 L372,156.1094 L307,156.1094 " fill="#FBFB77" filter="url(#f6s4ujyj4s3rz)" style="stroke:#A80036;stroke-width:1.0;"/><path d="M372,156.1094 L372,166.1094 L382,166.1094 L372,156.1094 " fill="#FBFB77" style="stroke:#A80036;stroke-width:1.0;"/><text fill="#000000" font-family="sans-serif" font-size="13" lengthAdjust="spacing" textLength="54" x="313" y="173.6777">工序 1-4</text><polygon fill="#A80036" points="313.5,192.4199,303.5,196.4199,313.5,200.4199,309.5,196.4199" style="stroke:#A80036;stroke-width:1.0;"/><ellipse cx="499.5" cy="195.6699" rx="4" ry="4" style="stroke:#A80036;stroke-width:1.5;fill:none;"/><line style="stroke:#A80036;stroke-width:1.0;fill:none;" x1="307.5" x2="495" y1="196.4199" y2="196.4199"/><path d="M416,209.4199 L416,234.4199 L491,234.4199 L491,219.4199 L481,209.4199 L416,209.4199 " fill="#FBFB77" filter="url(#f6s4ujyj4s3rz)" style="stroke:#A80036;stroke-width:1.0;"/><path d="M481,209.4199 L481,219.4199 L491,219.4199 L481,209.4199 " fill="#FBFB77" style="stroke:#A80036;stroke-width:1.0;"/><text fill="#000000" font-family="sans-serif" font-size="13" lengthAdjust="spacing" textLength="54" x="422" y="226.9883">工序 1-4</text><polygon fill="#A80036" points="101,245.7305,91,249.7305,101,253.7305,97,249.7305" style="stroke:#A80036;stroke-width:1.0;"/><ellipse cx="302" cy="248.9805" rx="4" ry="4" style="stroke:#A80036;stroke-width:1.5;fill:none;"/><line style="stroke:#A80036;stroke-width:1.0;fill:none;" x1="95" x2="297.5" y1="249.7305" y2="249.7305"/><path d="M218,262.7305 L218,287.7305 L293,287.7305 L293,272.7305 L283,262.7305 L218,262.7305 " fill="#FBFB77" filter="url(#f6s4ujyj4s3rz)" style="stroke:#A80036;stroke-width:1.0;"/><path d="M283,262.7305 L283,272.7305 L293,272.7305 L283,262.7305 " fill="#FBFB77" style="stroke:#A80036;stroke-width:1.0;"/><text fill="#000000" font-family="sans-serif" font-size="13" lengthAdjust="spacing" textLength="54" x="224" y="280.2988">工序 1-2</text><ellipse cx="693" cy="315.291" rx="4" ry="4" style="stroke:#A80036;stroke-width:1.5;fill:none;"/><line style="stroke:#A80036;stroke-width:1.0;fill:none;" x1="693.5" x2="735.5" y1="303.041" y2="303.041"/><line style="stroke:#A80036;stroke-width:1.0;fill:none;" x1="735.5" x2="735.5" y1="303.041" y2="316.041"/><line style="stroke:#A80036;stroke-width:1.0;fill:none;" x1="698.5" x2="735.5" y1="316.041" y2="316.041"/><polygon fill="#A80036" points="708.5,312.041,698.5,316.041,708.5,320.041,704.5,316.041" style="stroke:#A80036;stroke-width:1.0;"/><path d="M698,329.041 L698,354.041 L773,354.041 L773,339.041 L763,329.041 L698,329.041 " fill="#FBFB77" filter="url(#f6s4ujyj4s3rz)" style="stroke:#A80036;stroke-width:1.0;"/><path d="M763,329.041 L763,339.041 L773,339.041 L763,329.041 " fill="#FBFB77" style="stroke:#A80036;stroke-width:1.0;"/><text fill="#000000" font-family="sans-serif" font-size="13" lengthAdjust="spacing" textLength="54" x="704" y="346.6094">工序 1-5</text><!--MD5=[166b00c15c2809af63dcd0aedf9b5108]
@startuml
skinparam sequence {
    BoxBorderColor WHITE
}
box MerchantService  
entity MerchantService.Service
entity MerchantService.RepositoryClient
entity MerchantService.DB
entity MerchantService.SpringBootTest
end box
MerchantService.Service ->o MerchantService.RepositoryClient:
Note right of MerchantService.Service:工序 1-2
MerchantService.RepositoryClient ->o MerchantService.DB:
Note right of MerchantService.RepositoryClient:工序 1-4
MerchantService.RepositoryClient <-o MerchantService.DB:
Note left of MerchantService.DB:工序 1-4
MerchantService.Service <-o MerchantService.RepositoryClient:
Note left of MerchantService.RepositoryClient:工序 1-2
MerchantService.SpringBootTest ->o MerchantService.SpringBootTest:
Note right of MerchantService.SpringBootTest:工序 1-5
@enduml

PlantUML version 1.2021.5(Sun Apr 25 19:20:28 CST 2021)
(GPL source distribution)
Java Runtime: OpenJDK Runtime Environment
JVM: OpenJDK 64-Bit Server VM
Default Encoding: UTF-8
Language: en
Country: CN
--></g></svg>