<?xml version="1.0" encoding="UTF-8" standalone="no"?><svg xmlns="http://www.w3.org/2000/svg" xmlns:xlink="http://www.w3.org/1999/xlink" contentScriptType="application/ecmascript" contentStyleType="text/css" height="257px" preserveAspectRatio="none" style="width:390px;height:257px;" version="1.1" viewBox="0 0 390 257" width="390px" zoomAndPan="magnify"><defs><filter height="300%" id="f14bu4ba569xww" width="300%" x="-1" y="-1"><feGaussianBlur result="blurOut" stdDeviation="2.0"/><feColorMatrix in="blurOut" result="blurOut2" type="matrix" values="0 0 0 0 0 0 0 0 0 0 0 0 0 0 0 0 0 0 .4 0"/><feOffset dx="4.0" dy="4.0" in="blurOut2" result="blurOut3"/><feBlend in="SourceGraphic" in2="blurOut3" mode="normal"/></filter></defs><g><rect fill="#DDDDDD" height="245.9082" style="stroke:#FFFFFF;stroke-width:1.0;" width="383" x="1" y="6"/><text fill="#000000" font-family="sans-serif" font-size="13" font-weight="bold" lengthAdjust="spacing" textLength="112" x="136.5" y="18.5684">MerchantService</text><line style="stroke:#A80036;stroke-width:1.0;stroke-dasharray:5.0,5.0;" x1="90" x2="90" y1="73.7988" y2="200.4199"/><line style="stroke:#A80036;stroke-width:1.0;stroke-dasharray:5.0,5.0;" x1="282" x2="282" y1="73.7988" y2="200.4199"/><text fill="#000000" font-family="sans-serif" font-size="14" lengthAdjust="spacing" textLength="164" x="5" y="70.8457">MerchantService.Service</text><ellipse cx="90" cy="41.3105" fill="#FEFECE" filter="url(#f14bu4ba569xww)" rx="12" ry="12" style="stroke:#A80036;stroke-width:2.0;"/><line style="stroke:#A80036;stroke-width:2.0;" x1="78" x2="102" y1="55.3105" y2="55.3105"/><text fill="#000000" font-family="sans-serif" font-size="14" lengthAdjust="spacing" textLength="164" x="5" y="212.9551">MerchantService.Service</text><ellipse cx="90" cy="231.9082" fill="#FEFECE" filter="url(#f14bu4ba569xww)" rx="12" ry="12" style="stroke:#A80036;stroke-width:2.0;"/><line style="stroke:#A80036;stroke-width:2.0;" x1="78" x2="102" y1="245.9082" y2="245.9082"/><text fill="#000000" font-family="sans-serif" font-size="14" lengthAdjust="spacing" textLength="189" x="185" y="70.8457">MerchantService.Repository</text><ellipse cx="282.5" cy="41.3105" fill="#FEFECE" filter="url(#f14bu4ba569xww)" rx="12" ry="12" style="stroke:#A80036;stroke-width:2.0;"/><line style="stroke:#A80036;stroke-width:2.0;" x1="270.5" x2="294.5" y1="55.3105" y2="55.3105"/><text fill="#000000" font-family="sans-serif" font-size="14" lengthAdjust="spacing" textLength="189" x="185" y="212.9551">MerchantService.Repository</text><ellipse cx="282.5" cy="231.9082" fill="#FEFECE" filter="url(#f14bu4ba569xww)" rx="12" ry="12" style="stroke:#A80036;stroke-width:2.0;"/><line style="stroke:#A80036;stroke-width:2.0;" x1="270.5" x2="294.5" y1="245.9082" y2="245.9082"/><ellipse cx="282" cy="89.0488" rx="4" ry="4" style="stroke:#A80036;stroke-width:1.5;fill:none;"/><polygon fill="#A80036" points="265,85.7988,275,89.7988,265,93.7988,269,89.7988" style="stroke:#A80036;stroke-width:1.0;"/><line style="stroke:#A80036;stroke-width:1.0;" x1="90" x2="271" y1="89.7988" y2="89.7988"/><path d="M95,102.7988 L95,127.7988 L170,127.7988 L170,112.7988 L160,102.7988 L95,102.7988 " fill="#FBFB77" filter="url(#f14bu4ba569xww)" style="stroke:#A80036;stroke-width:1.0;"/><path d="M160,102.7988 L160,112.7988 L170,112.7988 L160,102.7988 " fill="#FBFB77" style="stroke:#A80036;stroke-width:1.0;"/><text fill="#000000" font-family="sans-serif" font-size="13" lengthAdjust="spacing" textLength="54" x="101" y="120.3672">工序 1-3</text><polygon fill="#A80036" points="101,139.1094,91,143.1094,101,147.1094,97,143.1094" style="stroke:#A80036;stroke-width:1.0;"/><ellipse cx="282" cy="142.3594" rx="4" ry="4" style="stroke:#A80036;stroke-width:1.5;fill:none;"/><line style="stroke:#A80036;stroke-width:1.0;fill:none;" x1="95" x2="277.5" y1="143.1094" y2="143.1094"/><path d="M198,156.1094 L198,181.1094 L273,181.1094 L273,166.1094 L263,156.1094 L198,156.1094 " fill="#FBFB77" filter="url(#f14bu4ba569xww)" style="stroke:#A80036;stroke-width:1.0;"/><path d="M263,156.1094 L263,166.1094 L273,166.1094 L263,156.1094 " fill="#FBFB77" style="stroke:#A80036;stroke-width:1.0;"/><text fill="#000000" font-family="sans-serif" font-size="13" lengthAdjust="spacing" textLength="54" x="204" y="173.6777">工序 1-3</text><!--MD5=[f51a707f9465a787a93244e50f70ef6a]
@startuml
skinparam sequence {
    BoxBorderColor WHITE
}
box MerchantService  
entity MerchantService.Service
entity MerchantService.Repository
end box
MerchantService.Service ->o MerchantService.Repository:
Note right of MerchantService.Service:工序 1-3
MerchantService.Service <-o MerchantService.Repository:
Note left of MerchantService.Repository:工序 1-3
@enduml

PlantUML version 1.2021.5(Sun Apr 25 19:20:28 CST 2021)
(GPL source distribution)
Java Runtime: OpenJDK Runtime Environment
JVM: OpenJDK 64-Bit Server VM
Default Encoding: UTF-8
Language: en
Country: CN
--></g></svg>