<?xml version="1.0" encoding="UTF-8" standalone="no"?><svg xmlns="http://www.w3.org/2000/svg" xmlns:xlink="http://www.w3.org/1999/xlink" contentScriptType="application/ecmascript" contentStyleType="text/css" height="364px" preserveAspectRatio="none" style="width:632px;height:364px;" version="1.1" viewBox="0 0 632 364" width="632px" zoomAndPan="magnify"><defs><filter height="300%" id="fccqfpj00nf8j" width="300%" x="-1" y="-1"><feGaussianBlur result="blurOut" stdDeviation="2.0"/><feColorMatrix in="blurOut" result="blurOut2" type="matrix" values="0 0 0 0 0 0 0 0 0 0 0 0 0 0 0 0 0 0 .4 0"/><feOffset dx="4.0" dy="4.0" in="blurOut2" result="blurOut3"/><feBlend in="SourceGraphic" in2="blurOut3" mode="normal"/></filter></defs><g><rect fill="#DDDDDD" height="352.5293" style="stroke:#FFFFFF;stroke-width:1.0;" width="625" x="1" y="6"/><text fill="#000000" font-family="sans-serif" font-size="13" font-weight="bold" lengthAdjust="spacing" textLength="112" x="257.5" y="18.5684">MerchantService</text><line style="stroke:#A80036;stroke-width:1.0;stroke-dasharray:5.0,5.0;" x1="101" x2="101" y1="73.7988" y2="307.041"/><line style="stroke:#A80036;stroke-width:1.0;stroke-dasharray:5.0,5.0;" x1="292" x2="292" y1="73.7988" y2="307.041"/><line style="stroke:#A80036;stroke-width:1.0;stroke-dasharray:5.0,5.0;" x1="504" x2="504" y1="73.7988" y2="307.041"/><text fill="#000000" font-family="sans-serif" font-size="14" lengthAdjust="spacing" textLength="186" x="5" y="70.8457">MerchantService.Controller</text><ellipse cx="101" cy="41.3105" fill="#FEFECE" filter="url(#fccqfpj00nf8j)" rx="12" ry="12" style="stroke:#A80036;stroke-width:2.0;"/><line style="stroke:#A80036;stroke-width:2.0;" x1="89" x2="113" y1="55.3105" y2="55.3105"/><text fill="#000000" font-family="sans-serif" font-size="14" lengthAdjust="spacing" textLength="186" x="5" y="319.5762">MerchantService.Controller</text><ellipse cx="101" cy="338.5293" fill="#FEFECE" filter="url(#fccqfpj00nf8j)" rx="12" ry="12" style="stroke:#A80036;stroke-width:2.0;"/><line style="stroke:#A80036;stroke-width:2.0;" x1="89" x2="113" y1="352.5293" y2="352.5293"/><text fill="#000000" font-family="sans-serif" font-size="14" lengthAdjust="spacing" textLength="164" x="207" y="70.8457">MerchantService.Service</text><ellipse cx="292" cy="41.3105" fill="#FEFECE" filter="url(#fccqfpj00nf8j)" rx="12" ry="12" style="stroke:#A80036;stroke-width:2.0;"/><line style="stroke:#A80036;stroke-width:2.0;" x1="280" x2="304" y1="55.3105" y2="55.3105"/><text fill="#000000" font-family="sans-serif" font-size="14" lengthAdjust="spacing" textLength="164" x="207" y="319.5762">MerchantService.Service</text><ellipse cx="292" cy="338.5293" fill="#FEFECE" filter="url(#fccqfpj00nf8j)" rx="12" ry="12" style="stroke:#A80036;stroke-width:2.0;"/><line style="stroke:#A80036;stroke-width:2.0;" x1="280" x2="304" y1="352.5293" y2="352.5293"/><text fill="#000000" font-family="sans-serif" font-size="14" lengthAdjust="spacing" textLength="229" x="387" y="70.8457">MerchantService.RepositoryClient</text><ellipse cx="504.5" cy="41.3105" fill="#FEFECE" filter="url(#fccqfpj00nf8j)" rx="12" ry="12" style="stroke:#A80036;stroke-width:2.0;"/><line style="stroke:#A80036;stroke-width:2.0;" x1="492.5" x2="516.5" y1="55.3105" y2="55.3105"/><text fill="#000000" font-family="sans-serif" font-size="14" lengthAdjust="spacing" textLength="229" x="387" y="319.5762">MerchantService.RepositoryClient</text><ellipse cx="504.5" cy="338.5293" fill="#FEFECE" filter="url(#fccqfpj00nf8j)" rx="12" ry="12" style="stroke:#A80036;stroke-width:2.0;"/><line style="stroke:#A80036;stroke-width:2.0;" x1="492.5" x2="516.5" y1="352.5293" y2="352.5293"/><ellipse cx="291.5" cy="89.0488" rx="4" ry="4" style="stroke:#A80036;stroke-width:1.5;fill:none;"/><polygon fill="#A80036" points="274.5,85.7988,284.5,89.7988,274.5,93.7988,278.5,89.7988" style="stroke:#A80036;stroke-width:1.0;"/><line style="stroke:#A80036;stroke-width:1.0;" x1="101" x2="280.5" y1="89.7988" y2="89.7988"/><path d="M106,102.7988 L106,127.7988 L181,127.7988 L181,112.7988 L171,102.7988 L106,102.7988 " fill="#FBFB77" filter="url(#fccqfpj00nf8j)" style="stroke:#A80036;stroke-width:1.0;"/><path d="M171,102.7988 L171,112.7988 L181,112.7988 L171,102.7988 " fill="#FBFB77" style="stroke:#A80036;stroke-width:1.0;"/><text fill="#000000" font-family="sans-serif" font-size="13" lengthAdjust="spacing" textLength="54" x="112" y="120.3672">工序 1-1</text><ellipse cx="504" cy="142.3594" rx="4" ry="4" style="stroke:#A80036;stroke-width:1.5;fill:none;"/><polygon fill="#A80036" points="487,139.1094,497,143.1094,487,147.1094,491,143.1094" style="stroke:#A80036;stroke-width:1.0;"/><line style="stroke:#A80036;stroke-width:1.0;" x1="292" x2="493" y1="143.1094" y2="143.1094"/><path d="M297,156.1094 L297,181.1094 L372,181.1094 L372,166.1094 L362,156.1094 L297,156.1094 " fill="#FBFB77" filter="url(#fccqfpj00nf8j)" style="stroke:#A80036;stroke-width:1.0;"/><path d="M362,156.1094 L362,166.1094 L372,166.1094 L362,156.1094 " fill="#FBFB77" style="stroke:#A80036;stroke-width:1.0;"/><text fill="#000000" font-family="sans-serif" font-size="13" lengthAdjust="spacing" textLength="54" x="303" y="173.6777">工序 1-2</text><polygon fill="#A80036" points="303,192.4199,293,196.4199,303,200.4199,299,196.4199" style="stroke:#A80036;stroke-width:1.0;"/><ellipse cx="504" cy="195.6699" rx="4" ry="4" style="stroke:#A80036;stroke-width:1.5;fill:none;"/><line style="stroke:#A80036;stroke-width:1.0;fill:none;" x1="297" x2="499.5" y1="196.4199" y2="196.4199"/><path d="M420,209.4199 L420,234.4199 L495,234.4199 L495,219.4199 L485,209.4199 L420,209.4199 " fill="#FBFB77" filter="url(#fccqfpj00nf8j)" style="stroke:#A80036;stroke-width:1.0;"/><path d="M485,209.4199 L485,219.4199 L495,219.4199 L485,209.4199 " fill="#FBFB77" style="stroke:#A80036;stroke-width:1.0;"/><text fill="#000000" font-family="sans-serif" font-size="13" lengthAdjust="spacing" textLength="54" x="426" y="226.9883">工序 1-2</text><polygon fill="#A80036" points="112,245.7305,102,249.7305,112,253.7305,108,249.7305" style="stroke:#A80036;stroke-width:1.0;"/><ellipse cx="291.5" cy="248.9805" rx="4" ry="4" style="stroke:#A80036;stroke-width:1.5;fill:none;"/><line style="stroke:#A80036;stroke-width:1.0;fill:none;" x1="106" x2="287" y1="249.7305" y2="249.7305"/><path d="M208,262.7305 L208,287.7305 L283,287.7305 L283,272.7305 L273,262.7305 L208,262.7305 " fill="#FBFB77" filter="url(#fccqfpj00nf8j)" style="stroke:#A80036;stroke-width:1.0;"/><path d="M273,262.7305 L273,272.7305 L283,272.7305 L273,262.7305 " fill="#FBFB77" style="stroke:#A80036;stroke-width:1.0;"/><text fill="#000000" font-family="sans-serif" font-size="13" lengthAdjust="spacing" textLength="54" x="214" y="280.2988">工序 1-1</text><!--MD5=[cd37e9d44c5358a1798c8264570f2bd9]
@startuml
skinparam sequence {
    BoxBorderColor WHITE
}
box MerchantService  
entity MerchantService.Controller
entity MerchantService.Service
entity MerchantService.RepositoryClient
end box
MerchantService.Controller ->o MerchantService.Service:
Note right of MerchantService.Controller:工序 1-1
MerchantService.Service ->o MerchantService.RepositoryClient:
Note right of MerchantService.Service:工序 1-2
MerchantService.Service <-o MerchantService.RepositoryClient:
Note left of MerchantService.RepositoryClient:工序 1-2
MerchantService.Controller <-o MerchantService.Service:
Note left of MerchantService.Service:工序 1-1
@enduml

PlantUML version 1.2021.5(Sun Apr 25 19:20:28 CST 2021)
(GPL source distribution)
Java Runtime: OpenJDK Runtime Environment
JVM: OpenJDK 64-Bit Server VM
Default Encoding: UTF-8
Language: en
Country: CN
--></g></svg>