<?xml version="1.0" encoding="UTF-8" standalone="no"?><svg xmlns="http://www.w3.org/2000/svg" xmlns:xlink="http://www.w3.org/1999/xlink" contentScriptType="application/ecmascript" contentStyleType="text/css" height="430px" preserveAspectRatio="none" style="width:777px;height:430px;" version="1.1" viewBox="0 0 777 430" width="777px" zoomAndPan="magnify"><defs><filter height="300%" id="fm48n7l77rpk" width="300%" x="-1" y="-1"><feGaussianBlur result="blurOut" stdDeviation="2.0"/><feColorMatrix in="blurOut" result="blurOut2" type="matrix" values="0 0 0 0 0 0 0 0 0 0 0 0 0 0 0 0 0 0 .4 0"/><feOffset dx="4.0" dy="4.0" in="blurOut2" result="blurOut3"/><feBlend in="SourceGraphic" in2="blurOut3" mode="normal"/></filter></defs><g><rect fill="#DDDDDD" height="418.8398" style="stroke:#FFFFFF;stroke-width:1.0;" width="770" x="1" y="6"/><text fill="#000000" font-family="sans-serif" font-size="13" font-weight="bold" lengthAdjust="spacing" textLength="112" x="330" y="18.5684">MerchantService</text><line style="stroke:#A80036;stroke-width:1.0;stroke-dasharray:5.0,5.0;" x1="90" x2="90" y1="73.7988" y2="373.3516"/><line style="stroke:#A80036;stroke-width:1.0;stroke-dasharray:5.0,5.0;" x1="282" x2="282" y1="73.7988" y2="373.3516"/><line style="stroke:#A80036;stroke-width:1.0;stroke-dasharray:5.0,5.0;" x1="460" x2="460" y1="73.7988" y2="373.3516"/><line style="stroke:#A80036;stroke-width:1.0;stroke-dasharray:5.0,5.0;" x1="653" x2="653" y1="73.7988" y2="373.3516"/><text fill="#000000" font-family="sans-serif" font-size="14" lengthAdjust="spacing" textLength="164" x="5" y="70.8457">MerchantService.Service</text><ellipse cx="90" cy="41.3105" fill="#FEFECE" filter="url(#fm48n7l77rpk)" rx="12" ry="12" style="stroke:#A80036;stroke-width:2.0;"/><line style="stroke:#A80036;stroke-width:2.0;" x1="78" x2="102" y1="55.3105" y2="55.3105"/><text fill="#000000" font-family="sans-serif" font-size="14" lengthAdjust="spacing" textLength="164" x="5" y="385.8867">MerchantService.Service</text><ellipse cx="90" cy="404.8398" fill="#FEFECE" filter="url(#fm48n7l77rpk)" rx="12" ry="12" style="stroke:#A80036;stroke-width:2.0;"/><line style="stroke:#A80036;stroke-width:2.0;" x1="78" x2="102" y1="418.8398" y2="418.8398"/><text fill="#000000" font-family="sans-serif" font-size="14" lengthAdjust="spacing" textLength="189" x="185" y="70.8457">MerchantService.Repository</text><ellipse cx="282.5" cy="41.3105" fill="#FEFECE" filter="url(#fm48n7l77rpk)" rx="12" ry="12" style="stroke:#A80036;stroke-width:2.0;"/><line style="stroke:#A80036;stroke-width:2.0;" x1="270.5" x2="294.5" y1="55.3105" y2="55.3105"/><text fill="#000000" font-family="sans-serif" font-size="14" lengthAdjust="spacing" textLength="189" x="185" y="385.8867">MerchantService.Repository</text><ellipse cx="282.5" cy="404.8398" fill="#FEFECE" filter="url(#fm48n7l77rpk)" rx="12" ry="12" style="stroke:#A80036;stroke-width:2.0;"/><line style="stroke:#A80036;stroke-width:2.0;" x1="270.5" x2="294.5" y1="418.8398" y2="418.8398"/><text fill="#000000" font-family="sans-serif" font-size="14" lengthAdjust="spacing" textLength="134" x="390" y="70.8457">MerchantService.DB</text><ellipse cx="460" cy="41.3105" fill="#FEFECE" filter="url(#fm48n7l77rpk)" rx="12" ry="12" style="stroke:#A80036;stroke-width:2.0;"/><line style="stroke:#A80036;stroke-width:2.0;" x1="448" x2="472" y1="55.3105" y2="55.3105"/><text fill="#000000" font-family="sans-serif" font-size="14" lengthAdjust="spacing" textLength="134" x="390" y="385.8867">MerchantService.DB</text><ellipse cx="460" cy="404.8398" fill="#FEFECE" filter="url(#fm48n7l77rpk)" rx="12" ry="12" style="stroke:#A80036;stroke-width:2.0;"/><line style="stroke:#A80036;stroke-width:2.0;" x1="448" x2="472" y1="418.8398" y2="418.8398"/><text fill="#000000" font-family="sans-serif" font-size="14" lengthAdjust="spacing" textLength="221" x="540" y="70.8457">MerchantService.SpringBootTest</text><ellipse cx="653.5" cy="41.3105" fill="#FEFECE" filter="url(#fm48n7l77rpk)" rx="12" ry="12" style="stroke:#A80036;stroke-width:2.0;"/><line style="stroke:#A80036;stroke-width:2.0;" x1="641.5" x2="665.5" y1="55.3105" y2="55.3105"/><text fill="#000000" font-family="sans-serif" font-size="14" lengthAdjust="spacing" textLength="221" x="540" y="385.8867">MerchantService.SpringBootTest</text><ellipse cx="653.5" cy="404.8398" fill="#FEFECE" filter="url(#fm48n7l77rpk)" rx="12" ry="12" style="stroke:#A80036;stroke-width:2.0;"/><line style="stroke:#A80036;stroke-width:2.0;" x1="641.5" x2="665.5" y1="418.8398" y2="418.8398"/><ellipse cx="282" cy="89.0488" rx="4" ry="4" style="stroke:#A80036;stroke-width:1.5;fill:none;"/><polygon fill="#A80036" points="265,85.7988,275,89.7988,265,93.7988,269,89.7988" style="stroke:#A80036;stroke-width:1.0;"/><line style="stroke:#A80036;stroke-width:1.0;" x1="90" x2="271" y1="89.7988" y2="89.7988"/><path d="M95,102.7988 L95,127.7988 L170,127.7988 L170,112.7988 L160,102.7988 L95,102.7988 " fill="#FBFB77" filter="url(#fm48n7l77rpk)" style="stroke:#A80036;stroke-width:1.0;"/><path d="M160,102.7988 L160,112.7988 L170,112.7988 L160,102.7988 " fill="#FBFB77" style="stroke:#A80036;stroke-width:1.0;"/><text fill="#000000" font-family="sans-serif" font-size="13" lengthAdjust="spacing" textLength="54" x="101" y="120.3672">工序 1-3</text><ellipse cx="459.5" cy="142.3594" rx="4" ry="4" style="stroke:#A80036;stroke-width:1.5;fill:none;"/><polygon fill="#A80036" points="442.5,139.1094,452.5,143.1094,442.5,147.1094,446.5,143.1094" style="stroke:#A80036;stroke-width:1.0;"/><line style="stroke:#A80036;stroke-width:1.0;" x1="282.5" x2="448.5" y1="143.1094" y2="143.1094"/><path d="M287,156.1094 L287,181.1094 L362,181.1094 L362,166.1094 L352,156.1094 L287,156.1094 " fill="#FBFB77" filter="url(#fm48n7l77rpk)" style="stroke:#A80036;stroke-width:1.0;"/><path d="M352,156.1094 L352,166.1094 L362,166.1094 L352,156.1094 " fill="#FBFB77" style="stroke:#A80036;stroke-width:1.0;"/><text fill="#000000" font-family="sans-serif" font-size="13" lengthAdjust="spacing" textLength="54" x="293" y="173.6777">工序 1-6</text><polygon fill="#A80036" points="293.5,192.4199,283.5,196.4199,293.5,200.4199,289.5,196.4199" style="stroke:#A80036;stroke-width:1.0;"/><ellipse cx="459.5" cy="195.6699" rx="4" ry="4" style="stroke:#A80036;stroke-width:1.5;fill:none;"/><line style="stroke:#A80036;stroke-width:1.0;fill:none;" x1="287.5" x2="455" y1="196.4199" y2="196.4199"/><path d="M376,209.4199 L376,234.4199 L451,234.4199 L451,219.4199 L441,209.4199 L376,209.4199 " fill="#FBFB77" filter="url(#fm48n7l77rpk)" style="stroke:#A80036;stroke-width:1.0;"/><path d="M441,209.4199 L441,219.4199 L451,219.4199 L441,209.4199 " fill="#FBFB77" style="stroke:#A80036;stroke-width:1.0;"/><text fill="#000000" font-family="sans-serif" font-size="13" lengthAdjust="spacing" textLength="54" x="382" y="226.9883">工序 1-6</text><polygon fill="#A80036" points="101,245.7305,91,249.7305,101,253.7305,97,249.7305" style="stroke:#A80036;stroke-width:1.0;"/><ellipse cx="282" cy="248.9805" rx="4" ry="4" style="stroke:#A80036;stroke-width:1.5;fill:none;"/><line style="stroke:#A80036;stroke-width:1.0;fill:none;" x1="95" x2="277.5" y1="249.7305" y2="249.7305"/><path d="M198,262.7305 L198,287.7305 L273,287.7305 L273,272.7305 L263,262.7305 L198,262.7305 " fill="#FBFB77" filter="url(#fm48n7l77rpk)" style="stroke:#A80036;stroke-width:1.0;"/><path d="M263,262.7305 L263,272.7305 L273,272.7305 L263,262.7305 " fill="#FBFB77" style="stroke:#A80036;stroke-width:1.0;"/><text fill="#000000" font-family="sans-serif" font-size="13" lengthAdjust="spacing" textLength="54" x="204" y="280.2988">工序 1-3</text><ellipse cx="653" cy="315.291" rx="4" ry="4" style="stroke:#A80036;stroke-width:1.5;fill:none;"/><line style="stroke:#A80036;stroke-width:1.0;fill:none;" x1="653.5" x2="695.5" y1="303.041" y2="303.041"/><line style="stroke:#A80036;stroke-width:1.0;fill:none;" x1="695.5" x2="695.5" y1="303.041" y2="316.041"/><line style="stroke:#A80036;stroke-width:1.0;fill:none;" x1="658.5" x2="695.5" y1="316.041" y2="316.041"/><polygon fill="#A80036" points="668.5,312.041,658.5,316.041,668.5,320.041,664.5,316.041" style="stroke:#A80036;stroke-width:1.0;"/><path d="M658,329.041 L658,354.041 L733,354.041 L733,339.041 L723,329.041 L658,329.041 " fill="#FBFB77" filter="url(#fm48n7l77rpk)" style="stroke:#A80036;stroke-width:1.0;"/><path d="M723,329.041 L723,339.041 L733,339.041 L723,329.041 " fill="#FBFB77" style="stroke:#A80036;stroke-width:1.0;"/><text fill="#000000" font-family="sans-serif" font-size="13" lengthAdjust="spacing" textLength="54" x="664" y="346.6094">工序 1-7</text><!--MD5=[2a04ac929797855d9d1769a42ed8eca3]
@startuml
skinparam sequence {
    BoxBorderColor WHITE
}
box MerchantService  
entity MerchantService.Service
entity MerchantService.Repository
entity MerchantService.DB
entity MerchantService.SpringBootTest
end box
MerchantService.Service ->o MerchantService.Repository:
Note right of MerchantService.Service:工序 1-3
MerchantService.Repository ->o MerchantService.DB:
Note right of MerchantService.Repository:工序 1-6
MerchantService.Repository <-o MerchantService.DB:
Note left of MerchantService.DB:工序 1-6
MerchantService.Service <-o MerchantService.Repository:
Note left of MerchantService.Repository:工序 1-3
MerchantService.SpringBootTest ->o MerchantService.SpringBootTest:
Note right of MerchantService.SpringBootTest:工序 1-7
@enduml

PlantUML version 1.2021.5(Sun Apr 25 19:20:28 CST 2021)
(GPL source distribution)
Java Runtime: OpenJDK Runtime Environment
JVM: OpenJDK 64-Bit Server VM
Default Encoding: UTF-8
Language: en
Country: CN
--></g></svg>