<?xml version="1.0" encoding="UTF-8" standalone="no"?><svg xmlns="http://www.w3.org/2000/svg" xmlns:xlink="http://www.w3.org/1999/xlink" contentScriptType="application/ecmascript" contentStyleType="text/css" height="577px" preserveAspectRatio="none" style="width:994px;height:577px;" version="1.1" viewBox="0 0 994 577" width="994px" zoomAndPan="magnify"><defs><filter height="300%" id="f7wx8mocfgwih" width="300%" x="-1" y="-1"><feGaussianBlur result="blurOut" stdDeviation="2.0"/><feColorMatrix in="blurOut" result="blurOut2" type="matrix" values="0 0 0 0 0 0 0 0 0 0 0 0 0 0 0 0 0 0 .4 0"/><feOffset dx="4.0" dy="4.0" in="blurOut2" result="blurOut3"/><feBlend in="SourceGraphic" in2="blurOut3" mode="normal"/></filter></defs><g><rect fill="#DDDDDD" height="565.7715" style="stroke:#FFFFFF;stroke-width:1.0;" width="987" x="1" y="6"/><text fill="#000000" font-family="sans-serif" font-size="13" font-weight="bold" lengthAdjust="spacing" textLength="112" x="438.5" y="18.5684">MerchantService</text><line style="stroke:#A80036;stroke-width:1.0;stroke-dasharray:5.0,5.0;" x1="101" x2="101" y1="73.7988" y2="520.2832"/><line style="stroke:#A80036;stroke-width:1.0;stroke-dasharray:5.0,5.0;" x1="292" x2="292" y1="73.7988" y2="520.2832"/><line style="stroke:#A80036;stroke-width:1.0;stroke-dasharray:5.0,5.0;" x1="504" x2="504" y1="73.7988" y2="520.2832"/><line style="stroke:#A80036;stroke-width:1.0;stroke-dasharray:5.0,5.0;" x1="702" x2="702" y1="73.7988" y2="520.2832"/><line style="stroke:#A80036;stroke-width:1.0;stroke-dasharray:5.0,5.0;" x1="883" x2="883" y1="73.7988" y2="520.2832"/><text fill="#000000" font-family="sans-serif" font-size="14" lengthAdjust="spacing" textLength="186" x="5" y="70.8457">MerchantService.Controller</text><ellipse cx="101" cy="41.3105" fill="#FEFECE" filter="url(#f7wx8mocfgwih)" rx="12" ry="12" style="stroke:#A80036;stroke-width:2.0;"/><line style="stroke:#A80036;stroke-width:2.0;" x1="89" x2="113" y1="55.3105" y2="55.3105"/><text fill="#000000" font-family="sans-serif" font-size="14" lengthAdjust="spacing" textLength="186" x="5" y="532.8184">MerchantService.Controller</text><ellipse cx="101" cy="551.7715" fill="#FEFECE" filter="url(#f7wx8mocfgwih)" rx="12" ry="12" style="stroke:#A80036;stroke-width:2.0;"/><line style="stroke:#A80036;stroke-width:2.0;" x1="89" x2="113" y1="565.7715" y2="565.7715"/><text fill="#000000" font-family="sans-serif" font-size="14" lengthAdjust="spacing" textLength="164" x="207" y="70.8457">MerchantService.Service</text><ellipse cx="292" cy="41.3105" fill="#FEFECE" filter="url(#f7wx8mocfgwih)" rx="12" ry="12" style="stroke:#A80036;stroke-width:2.0;"/><line style="stroke:#A80036;stroke-width:2.0;" x1="280" x2="304" y1="55.3105" y2="55.3105"/><text fill="#000000" font-family="sans-serif" font-size="14" lengthAdjust="spacing" textLength="164" x="207" y="532.8184">MerchantService.Service</text><ellipse cx="292" cy="551.7715" fill="#FEFECE" filter="url(#f7wx8mocfgwih)" rx="12" ry="12" style="stroke:#A80036;stroke-width:2.0;"/><line style="stroke:#A80036;stroke-width:2.0;" x1="280" x2="304" y1="565.7715" y2="565.7715"/><text fill="#000000" font-family="sans-serif" font-size="14" lengthAdjust="spacing" textLength="229" x="387" y="70.8457">MerchantService.RepositoryClient</text><ellipse cx="504.5" cy="41.3105" fill="#FEFECE" filter="url(#f7wx8mocfgwih)" rx="12" ry="12" style="stroke:#A80036;stroke-width:2.0;"/><line style="stroke:#A80036;stroke-width:2.0;" x1="492.5" x2="516.5" y1="55.3105" y2="55.3105"/><text fill="#000000" font-family="sans-serif" font-size="14" lengthAdjust="spacing" textLength="229" x="387" y="532.8184">MerchantService.RepositoryClient</text><ellipse cx="504.5" cy="551.7715" fill="#FEFECE" filter="url(#f7wx8mocfgwih)" rx="12" ry="12" style="stroke:#A80036;stroke-width:2.0;"/><line style="stroke:#A80036;stroke-width:2.0;" x1="492.5" x2="516.5" y1="565.7715" y2="565.7715"/><text fill="#000000" font-family="sans-serif" font-size="14" lengthAdjust="spacing" textLength="134" x="632" y="70.8457">MerchantService.DB</text><ellipse cx="702" cy="41.3105" fill="#FEFECE" filter="url(#f7wx8mocfgwih)" rx="12" ry="12" style="stroke:#A80036;stroke-width:2.0;"/><line style="stroke:#A80036;stroke-width:2.0;" x1="690" x2="714" y1="55.3105" y2="55.3105"/><text fill="#000000" font-family="sans-serif" font-size="14" lengthAdjust="spacing" textLength="134" x="632" y="532.8184">MerchantService.DB</text><ellipse cx="702" cy="551.7715" fill="#FEFECE" filter="url(#f7wx8mocfgwih)" rx="12" ry="12" style="stroke:#A80036;stroke-width:2.0;"/><line style="stroke:#A80036;stroke-width:2.0;" x1="690" x2="714" y1="565.7715" y2="565.7715"/><text fill="#000000" font-family="sans-serif" font-size="14" lengthAdjust="spacing" textLength="196" x="782" y="70.8457">MerchantService.MQGateway</text><ellipse cx="883" cy="41.3105" fill="#FEFECE" filter="url(#f7wx8mocfgwih)" rx="12" ry="12" style="stroke:#A80036;stroke-width:2.0;"/><line style="stroke:#A80036;stroke-width:2.0;" x1="871" x2="895" y1="55.3105" y2="55.3105"/><text fill="#000000" font-family="sans-serif" font-size="14" lengthAdjust="spacing" textLength="196" x="782" y="532.8184">MerchantService.MQGateway</text><ellipse cx="883" cy="551.7715" fill="#FEFECE" filter="url(#f7wx8mocfgwih)" rx="12" ry="12" style="stroke:#A80036;stroke-width:2.0;"/><line style="stroke:#A80036;stroke-width:2.0;" x1="871" x2="895" y1="565.7715" y2="565.7715"/><ellipse cx="291.5" cy="89.0488" rx="4" ry="4" style="stroke:#A80036;stroke-width:1.5;fill:none;"/><polygon fill="#A80036" points="274.5,85.7988,284.5,89.7988,274.5,93.7988,278.5,89.7988" style="stroke:#A80036;stroke-width:1.0;"/><line style="stroke:#A80036;stroke-width:1.0;" x1="101" x2="280.5" y1="89.7988" y2="89.7988"/><path d="M106,102.7988 L106,127.7988 L181,127.7988 L181,112.7988 L171,102.7988 L106,102.7988 " fill="#FBFB77" filter="url(#f7wx8mocfgwih)" style="stroke:#A80036;stroke-width:1.0;"/><path d="M171,102.7988 L171,112.7988 L181,112.7988 L171,102.7988 " fill="#FBFB77" style="stroke:#A80036;stroke-width:1.0;"/><text fill="#000000" font-family="sans-serif" font-size="13" lengthAdjust="spacing" textLength="54" x="112" y="120.3672">工序 1-1</text><ellipse cx="504" cy="142.3594" rx="4" ry="4" style="stroke:#A80036;stroke-width:1.5;fill:none;"/><polygon fill="#A80036" points="487,139.1094,497,143.1094,487,147.1094,491,143.1094" style="stroke:#A80036;stroke-width:1.0;"/><line style="stroke:#A80036;stroke-width:1.0;" x1="292" x2="493" y1="143.1094" y2="143.1094"/><path d="M297,156.1094 L297,181.1094 L372,181.1094 L372,166.1094 L362,156.1094 L297,156.1094 " fill="#FBFB77" filter="url(#f7wx8mocfgwih)" style="stroke:#A80036;stroke-width:1.0;"/><path d="M362,156.1094 L362,166.1094 L372,166.1094 L362,156.1094 " fill="#FBFB77" style="stroke:#A80036;stroke-width:1.0;"/><text fill="#000000" font-family="sans-serif" font-size="13" lengthAdjust="spacing" textLength="54" x="303" y="173.6777">工序 1-2</text><ellipse cx="701.5" cy="195.6699" rx="4" ry="4" style="stroke:#A80036;stroke-width:1.5;fill:none;"/><polygon fill="#A80036" points="684.5,192.4199,694.5,196.4199,684.5,200.4199,688.5,196.4199" style="stroke:#A80036;stroke-width:1.0;"/><line style="stroke:#A80036;stroke-width:1.0;" x1="504.5" x2="690.5" y1="196.4199" y2="196.4199"/><path d="M509,209.4199 L509,234.4199 L584,234.4199 L584,219.4199 L574,209.4199 L509,209.4199 " fill="#FBFB77" filter="url(#f7wx8mocfgwih)" style="stroke:#A80036;stroke-width:1.0;"/><path d="M574,209.4199 L574,219.4199 L584,219.4199 L574,209.4199 " fill="#FBFB77" style="stroke:#A80036;stroke-width:1.0;"/><text fill="#000000" font-family="sans-serif" font-size="13" lengthAdjust="spacing" textLength="54" x="515" y="226.9883">工序 1-4</text><polygon fill="#A80036" points="515.5,245.7305,505.5,249.7305,515.5,253.7305,511.5,249.7305" style="stroke:#A80036;stroke-width:1.0;"/><ellipse cx="701.5" cy="248.9805" rx="4" ry="4" style="stroke:#A80036;stroke-width:1.5;fill:none;"/><line style="stroke:#A80036;stroke-width:1.0;fill:none;" x1="509.5" x2="697" y1="249.7305" y2="249.7305"/><path d="M618,262.7305 L618,287.7305 L693,287.7305 L693,272.7305 L683,262.7305 L618,262.7305 " fill="#FBFB77" filter="url(#f7wx8mocfgwih)" style="stroke:#A80036;stroke-width:1.0;"/><path d="M683,262.7305 L683,272.7305 L693,272.7305 L683,262.7305 " fill="#FBFB77" style="stroke:#A80036;stroke-width:1.0;"/><text fill="#000000" font-family="sans-serif" font-size="13" lengthAdjust="spacing" textLength="54" x="624" y="280.2988">工序 1-4</text><ellipse cx="882.5" cy="302.291" rx="4" ry="4" style="stroke:#A80036;stroke-width:1.5;fill:none;"/><polygon fill="#A80036" points="865.5,299.041,875.5,303.041,865.5,307.041,869.5,303.041" style="stroke:#A80036;stroke-width:1.0;"/><line style="stroke:#A80036;stroke-width:1.0;" x1="504.5" x2="871.5" y1="303.041" y2="303.041"/><path d="M509,316.041 L509,341.041 L584,341.041 L584,326.041 L574,316.041 L509,316.041 " fill="#FBFB77" filter="url(#f7wx8mocfgwih)" style="stroke:#A80036;stroke-width:1.0;"/><path d="M574,316.041 L574,326.041 L584,326.041 L574,316.041 " fill="#FBFB77" style="stroke:#A80036;stroke-width:1.0;"/><text fill="#000000" font-family="sans-serif" font-size="13" lengthAdjust="spacing" textLength="54" x="515" y="333.6094">工序 1-3</text><polygon fill="#A80036" points="515.5,352.3516,505.5,356.3516,515.5,360.3516,511.5,356.3516" style="stroke:#A80036;stroke-width:1.0;"/><ellipse cx="882.5" cy="355.6016" rx="4" ry="4" style="stroke:#A80036;stroke-width:1.5;fill:none;"/><line style="stroke:#A80036;stroke-width:1.0;fill:none;" x1="509.5" x2="878" y1="356.3516" y2="356.3516"/><path d="M799,369.3516 L799,394.3516 L874,394.3516 L874,379.3516 L864,369.3516 L799,369.3516 " fill="#FBFB77" filter="url(#f7wx8mocfgwih)" style="stroke:#A80036;stroke-width:1.0;"/><path d="M864,369.3516 L864,379.3516 L874,379.3516 L864,369.3516 " fill="#FBFB77" style="stroke:#A80036;stroke-width:1.0;"/><text fill="#000000" font-family="sans-serif" font-size="13" lengthAdjust="spacing" textLength="54" x="805" y="386.9199">工序 1-3</text><polygon fill="#A80036" points="303,405.6621,293,409.6621,303,413.6621,299,409.6621" style="stroke:#A80036;stroke-width:1.0;"/><ellipse cx="504" cy="408.9121" rx="4" ry="4" style="stroke:#A80036;stroke-width:1.5;fill:none;"/><line style="stroke:#A80036;stroke-width:1.0;fill:none;" x1="297" x2="499.5" y1="409.6621" y2="409.6621"/><path d="M420,422.6621 L420,447.6621 L495,447.6621 L495,432.6621 L485,422.6621 L420,422.6621 " fill="#FBFB77" filter="url(#f7wx8mocfgwih)" style="stroke:#A80036;stroke-width:1.0;"/><path d="M485,422.6621 L485,432.6621 L495,432.6621 L485,422.6621 " fill="#FBFB77" style="stroke:#A80036;stroke-width:1.0;"/><text fill="#000000" font-family="sans-serif" font-size="13" lengthAdjust="spacing" textLength="54" x="426" y="440.2305">工序 1-2</text><polygon fill="#A80036" points="112,458.9727,102,462.9727,112,466.9727,108,462.9727" style="stroke:#A80036;stroke-width:1.0;"/><ellipse cx="291.5" cy="462.2227" rx="4" ry="4" style="stroke:#A80036;stroke-width:1.5;fill:none;"/><line style="stroke:#A80036;stroke-width:1.0;fill:none;" x1="106" x2="287" y1="462.9727" y2="462.9727"/><path d="M208,475.9727 L208,500.9727 L283,500.9727 L283,485.9727 L273,475.9727 L208,475.9727 " fill="#FBFB77" filter="url(#f7wx8mocfgwih)" style="stroke:#A80036;stroke-width:1.0;"/><path d="M273,475.9727 L273,485.9727 L283,485.9727 L273,475.9727 " fill="#FBFB77" style="stroke:#A80036;stroke-width:1.0;"/><text fill="#000000" font-family="sans-serif" font-size="13" lengthAdjust="spacing" textLength="54" x="214" y="493.541">工序 1-1</text><!--MD5=[a73b940f60ff8112194af5e6c5823ec7]
@startuml
skinparam sequence {
    BoxBorderColor WHITE
}
box MerchantService  
entity MerchantService.Controller
entity MerchantService.Service
entity MerchantService.RepositoryClient
entity MerchantService.DB
entity MerchantService.MQGateway
end box
MerchantService.Controller ->o MerchantService.Service:
Note right of MerchantService.Controller:工序 1-1
MerchantService.Service ->o MerchantService.RepositoryClient:
Note right of MerchantService.Service:工序 1-2
MerchantService.RepositoryClient ->o MerchantService.DB:
Note right of MerchantService.RepositoryClient:工序 1-4
MerchantService.RepositoryClient <-o MerchantService.DB:
Note left of MerchantService.DB:工序 1-4
MerchantService.RepositoryClient ->o MerchantService.MQGateway:
Note right of MerchantService.RepositoryClient:工序 1-3
MerchantService.RepositoryClient <-o MerchantService.MQGateway:
Note left of MerchantService.MQGateway:工序 1-3
MerchantService.Service <-o MerchantService.RepositoryClient:
Note left of MerchantService.RepositoryClient:工序 1-2
MerchantService.Controller <-o MerchantService.Service:
Note left of MerchantService.Service:工序 1-1
@enduml

PlantUML version 1.2021.5(Sun Apr 25 19:20:28 CST 2021)
(GPL source distribution)
Java Runtime: OpenJDK Runtime Environment
JVM: OpenJDK 64-Bit Server VM
Default Encoding: UTF-8
Language: en
Country: CN
--></g></svg>