<?xml version="1.0" encoding="UTF-8" standalone="no"?><svg xmlns="http://www.w3.org/2000/svg" xmlns:xlink="http://www.w3.org/1999/xlink" contentScriptType="application/ecmascript" contentStyleType="text/css" height="257px" preserveAspectRatio="none" style="width:315px;height:257px;" version="1.1" viewBox="0 0 315 257" width="315px" zoomAndPan="magnify"><defs><filter height="300%" id="f1tzfv31cgyrd9" width="300%" x="-1" y="-1"><feGaussianBlur result="blurOut" stdDeviation="2.0"/><feColorMatrix in="blurOut" result="blurOut2" type="matrix" values="0 0 0 0 0 0 0 0 0 0 0 0 0 0 0 0 0 0 .4 0"/><feOffset dx="4.0" dy="4.0" in="blurOut2" result="blurOut3"/><feBlend in="SourceGraphic" in2="blurOut3" mode="normal"/></filter></defs><g><rect fill="#DDDDDD" height="245.9082" style="stroke:#FFFFFF;stroke-width:1.0;" width="308" x="1" y="6"/><text fill="#000000" font-family="sans-serif" font-size="13" font-weight="bold" lengthAdjust="spacing" textLength="57" x="126.5" y="18.5684">Backend</text><line style="stroke:#A80036;stroke-width:1.0;stroke-dasharray:5.0,5.0;" x1="66" x2="66" y1="73.7988" y2="200.4199"/><line style="stroke:#A80036;stroke-width:1.0;stroke-dasharray:5.0,5.0;" x1="221" x2="221" y1="73.7988" y2="200.4199"/><text fill="#000000" font-family="sans-serif" font-size="14" lengthAdjust="spacing" textLength="116" x="5" y="70.8457">Backend.Usecase</text><ellipse cx="66" cy="41.3105" fill="#FEFECE" filter="url(#f1tzfv31cgyrd9)" rx="12" ry="12" style="stroke:#A80036;stroke-width:2.0;"/><line style="stroke:#A80036;stroke-width:2.0;" x1="54" x2="78" y1="55.3105" y2="55.3105"/><text fill="#000000" font-family="sans-serif" font-size="14" lengthAdjust="spacing" textLength="116" x="5" y="212.9551">Backend.Usecase</text><ellipse cx="66" cy="231.9082" fill="#FEFECE" filter="url(#f1tzfv31cgyrd9)" rx="12" ry="12" style="stroke:#A80036;stroke-width:2.0;"/><line style="stroke:#A80036;stroke-width:2.0;" x1="54" x2="78" y1="245.9082" y2="245.9082"/><text fill="#000000" font-family="sans-serif" font-size="14" lengthAdjust="spacing" textLength="162" x="137" y="70.8457">Backend.DomainService</text><ellipse cx="221" cy="41.3105" fill="#FEFECE" filter="url(#f1tzfv31cgyrd9)" rx="12" ry="12" style="stroke:#A80036;stroke-width:2.0;"/><line style="stroke:#A80036;stroke-width:2.0;" x1="209" x2="233" y1="55.3105" y2="55.3105"/><text fill="#000000" font-family="sans-serif" font-size="14" lengthAdjust="spacing" textLength="162" x="137" y="212.9551">Backend.DomainService</text><ellipse cx="221" cy="231.9082" fill="#FEFECE" filter="url(#f1tzfv31cgyrd9)" rx="12" ry="12" style="stroke:#A80036;stroke-width:2.0;"/><line style="stroke:#A80036;stroke-width:2.0;" x1="209" x2="233" y1="245.9082" y2="245.9082"/><ellipse cx="220.5" cy="89.0488" rx="4" ry="4" style="stroke:#A80036;stroke-width:1.5;fill:none;"/><polygon fill="#A80036" points="203.5,85.7988,213.5,89.7988,203.5,93.7988,207.5,89.7988" style="stroke:#A80036;stroke-width:1.0;"/><line style="stroke:#A80036;stroke-width:1.0;" x1="66" x2="209.5" y1="89.7988" y2="89.7988"/><path d="M71,102.7988 L71,127.7988 L168,127.7988 L168,112.7988 L158,102.7988 L71,102.7988 " fill="#FBFB77" filter="url(#f1tzfv31cgyrd9)" style="stroke:#A80036;stroke-width:1.0;"/><path d="M158,102.7988 L158,112.7988 L168,112.7988 L158,102.7988 " fill="#FBFB77" style="stroke:#A80036;stroke-width:1.0;"/><text fill="#000000" font-family="sans-serif" font-size="13" lengthAdjust="spacing" textLength="76" x="77" y="120.3672">Process 3-2</text><polygon fill="#A80036" points="77,139.1094,67,143.1094,77,147.1094,73,143.1094" style="stroke:#A80036;stroke-width:1.0;"/><ellipse cx="220.5" cy="142.3594" rx="4" ry="4" style="stroke:#A80036;stroke-width:1.5;fill:none;"/><line style="stroke:#A80036;stroke-width:1.0;fill:none;" x1="71" x2="216" y1="143.1094" y2="143.1094"/><path d="M115,156.1094 L115,181.1094 L212,181.1094 L212,166.1094 L202,156.1094 L115,156.1094 " fill="#FBFB77" filter="url(#f1tzfv31cgyrd9)" style="stroke:#A80036;stroke-width:1.0;"/><path d="M202,156.1094 L202,166.1094 L212,166.1094 L202,156.1094 " fill="#FBFB77" style="stroke:#A80036;stroke-width:1.0;"/><text fill="#000000" font-family="sans-serif" font-size="13" lengthAdjust="spacing" textLength="76" x="121" y="173.6777">Process 3-2</text><!--MD5=[9197029d937c7fed0328e3d9523af20a]
@startuml
skinparam sequence {
    BoxBorderColor WHITE
}
box Backend  
entity Backend.Usecase
entity Backend.DomainService
end box
Backend.Usecase ->o Backend.DomainService:
Note right of Backend.Usecase:Process 3-2
Backend.DomainService o-> Backend.Usecase:
Note left of Backend.DomainService:Process 3-2
@enduml

PlantUML version 1.2021.5(Sun Apr 25 19:20:28 CST 2021)
(GPL source distribution)
Java Runtime: OpenJDK Runtime Environment
JVM: OpenJDK 64-Bit Server VM
Default Encoding: UTF-8
Language: en
Country: CN
--></g></svg>