<?xml version="1.0" encoding="UTF-8" standalone="no"?><svg xmlns="http://www.w3.org/2000/svg" xmlns:xlink="http://www.w3.org/1999/xlink" contentScriptType="application/ecmascript" contentStyleType="text/css" height="285px" preserveAspectRatio="none" style="width:266px;height:285px;" version="1.1" viewBox="0 0 266 285" width="266px" zoomAndPan="magnify"><defs><filter height="300%" id="f66eforkcylhn" width="300%" x="-1" y="-1"><feGaussianBlur result="blurOut" stdDeviation="2.0"/><feColorMatrix in="blurOut" result="blurOut2" type="matrix" values="0 0 0 0 0 0 0 0 0 0 0 0 0 0 0 0 0 0 .4 0"/><feOffset dx="4.0" dy="4.0" in="blurOut2" result="blurOut3"/><feBlend in="SourceGraphic" in2="blurOut3" mode="normal"/></filter></defs><g><rect fill="#DDDDDD" height="273.9082" style="stroke:#FFFFFF;stroke-width:1.0;" width="259" x="1" y="6"/><text fill="#000000" font-family="sans-serif" font-size="13" font-weight="bold" lengthAdjust="spacing" textLength="57" x="102" y="18.5684">Backend</text><line style="stroke:#A80036;stroke-width:1.0;stroke-dasharray:5.0,5.0;" x1="62" x2="62" y1="87.7988" y2="214.4199"/><line style="stroke:#A80036;stroke-width:1.0;stroke-dasharray:5.0,5.0;" x1="193" x2="193" y1="87.7988" y2="214.4199"/><text fill="#000000" font-family="sans-serif" font-size="14" lengthAdjust="spacing" textLength="109" x="5" y="84.8457">Backend.JpaDao</text><ellipse cx="62.5" cy="55.3105" fill="#FEFECE" filter="url(#f66eforkcylhn)" rx="12" ry="12" style="stroke:#A80036;stroke-width:2.0;"/><line style="stroke:#A80036;stroke-width:2.0;" x1="50.5" x2="74.5" y1="69.3105" y2="69.3105"/><text fill="#000000" font-family="sans-serif" font-size="14" lengthAdjust="spacing" textLength="109" x="5" y="226.9551">Backend.JpaDao</text><ellipse cx="62.5" cy="245.9082" fill="#FEFECE" filter="url(#f66eforkcylhn)" rx="12" ry="12" style="stroke:#A80036;stroke-width:2.0;"/><line style="stroke:#A80036;stroke-width:2.0;" x1="50.5" x2="74.5" y1="259.9082" y2="259.9082"/><text fill="#000000" font-family="sans-serif" font-size="14" lengthAdjust="spacing" textLength="120" x="130" y="84.8457">Backend.Postgres</text><path d="M175,35.3105 C175,25.3105 193,25.3105 193,25.3105 C193,25.3105 211,25.3105 211,35.3105 L211,61.3105 C211,71.3105 193,71.3105 193,71.3105 C193,71.3105 175,71.3105 175,61.3105 L175,35.3105 " fill="#FEFECE" filter="url(#f66eforkcylhn)" style="stroke:#000000;stroke-width:1.5;"/><path d="M175,35.3105 C175,45.3105 193,45.3105 193,45.3105 C193,45.3105 211,45.3105 211,35.3105 " fill="none" style="stroke:#000000;stroke-width:1.5;"/><text fill="#000000" font-family="sans-serif" font-size="14" lengthAdjust="spacing" textLength="120" x="130" y="226.9551">Backend.Postgres</text><path d="M175,239.9082 C175,229.9082 193,229.9082 193,229.9082 C193,229.9082 211,229.9082 211,239.9082 L211,265.9082 C211,275.9082 193,275.9082 193,275.9082 C193,275.9082 175,275.9082 175,265.9082 L175,239.9082 " fill="#FEFECE" filter="url(#f66eforkcylhn)" style="stroke:#000000;stroke-width:1.5;"/><path d="M175,239.9082 C175,249.9082 193,249.9082 193,249.9082 C193,249.9082 211,249.9082 211,239.9082 " fill="none" style="stroke:#000000;stroke-width:1.5;"/><ellipse cx="192.5" cy="103.0488" rx="4" ry="4" style="stroke:#A80036;stroke-width:1.5;fill:none;"/><polygon fill="#A80036" points="175.5,99.7988,185.5,103.7988,175.5,107.7988,179.5,103.7988" style="stroke:#A80036;stroke-width:1.0;"/><line style="stroke:#A80036;stroke-width:1.0;" x1="62.5" x2="181.5" y1="103.7988" y2="103.7988"/><path d="M67,116.7988 L67,141.7988 L164,141.7988 L164,126.7988 L154,116.7988 L67,116.7988 " fill="#FBFB77" filter="url(#f66eforkcylhn)" style="stroke:#A80036;stroke-width:1.0;"/><path d="M154,116.7988 L154,126.7988 L164,126.7988 L154,116.7988 " fill="#FBFB77" style="stroke:#A80036;stroke-width:1.0;"/><text fill="#000000" font-family="sans-serif" font-size="13" lengthAdjust="spacing" textLength="76" x="73" y="134.3672">Process 3-7</text><polygon fill="#A80036" points="73.5,153.1094,63.5,157.1094,73.5,161.1094,69.5,157.1094" style="stroke:#A80036;stroke-width:1.0;"/><ellipse cx="192.5" cy="156.3594" rx="4" ry="4" style="stroke:#A80036;stroke-width:1.5;fill:none;"/><line style="stroke:#A80036;stroke-width:1.0;fill:none;" x1="67.5" x2="188" y1="157.1094" y2="157.1094"/><path d="M87,170.1094 L87,195.1094 L184,195.1094 L184,180.1094 L174,170.1094 L87,170.1094 " fill="#FBFB77" filter="url(#f66eforkcylhn)" style="stroke:#A80036;stroke-width:1.0;"/><path d="M174,170.1094 L174,180.1094 L184,180.1094 L174,170.1094 " fill="#FBFB77" style="stroke:#A80036;stroke-width:1.0;"/><text fill="#000000" font-family="sans-serif" font-size="13" lengthAdjust="spacing" textLength="76" x="93" y="187.6777">Process 3-7</text><!--MD5=[5482f22a4ea93f45d671be4e220daf07]
@startuml
skinparam sequence {
    BoxBorderColor WHITE
}
box Backend  
entity Backend.JpaDao
database Backend.Postgres
end box
Backend.JpaDao ->o Backend.Postgres:
Note right of Backend.JpaDao:Process 3-7
Backend.Postgres o-> Backend.JpaDao:
Note left of Backend.Postgres:Process 3-7
@enduml

PlantUML version 1.2021.5(Sun Apr 25 19:20:28 CST 2021)
(GPL source distribution)
Java Runtime: OpenJDK Runtime Environment
JVM: OpenJDK 64-Bit Server VM
Default Encoding: UTF-8
Language: en
Country: CN
--></g></svg>