<?xml version="1.0" encoding="UTF-8" standalone="no"?><svg xmlns="http://www.w3.org/2000/svg" xmlns:xlink="http://www.w3.org/1999/xlink" contentScriptType="application/ecmascript" contentStyleType="text/css" height="257px" preserveAspectRatio="none" style="width:207px;height:257px;" version="1.1" viewBox="0 0 207 257" width="207px" zoomAndPan="magnify"><defs><filter height="300%" id="fmvrfgl5ctz2x" width="300%" x="-1" y="-1"><feGaussianBlur result="blurOut" stdDeviation="2.0"/><feColorMatrix in="blurOut" result="blurOut2" type="matrix" values="0 0 0 0 0 0 0 0 0 0 0 0 0 0 0 0 0 0 .4 0"/><feOffset dx="4.0" dy="4.0" in="blurOut2" result="blurOut3"/><feBlend in="SourceGraphic" in2="blurOut3" mode="normal"/></filter></defs><g><rect fill="#DDDDDD" height="245.9082" style="stroke:#FFFFFF;stroke-width:1.0;" width="200" x="1" y="6"/><text fill="#000000" font-family="sans-serif" font-size="13" font-weight="bold" lengthAdjust="spacing" textLength="18" x="92" y="18.5684">Bff</text><line style="stroke:#A80036;stroke-width:1.0;stroke-dasharray:5.0,5.0;" x1="43" x2="43" y1="73.7988" y2="200.4199"/><line style="stroke:#A80036;stroke-width:1.0;stroke-dasharray:5.0,5.0;" x1="144" x2="144" y1="73.7988" y2="200.4199"/><text fill="#000000" font-family="sans-serif" font-size="14" lengthAdjust="spacing" textLength="70" x="5" y="70.8457">Bff.Service</text><ellipse cx="43" cy="41.3105" fill="#FEFECE" filter="url(#fmvrfgl5ctz2x)" rx="12" ry="12" style="stroke:#A80036;stroke-width:2.0;"/><line style="stroke:#A80036;stroke-width:2.0;" x1="31" x2="55" y1="55.3105" y2="55.3105"/><text fill="#000000" font-family="sans-serif" font-size="14" lengthAdjust="spacing" textLength="70" x="5" y="212.9551">Bff.Service</text><ellipse cx="43" cy="231.9082" fill="#FEFECE" filter="url(#fmvrfgl5ctz2x)" rx="12" ry="12" style="stroke:#A80036;stroke-width:2.0;"/><line style="stroke:#A80036;stroke-width:2.0;" x1="31" x2="55" y1="245.9082" y2="245.9082"/><text fill="#000000" font-family="sans-serif" font-size="14" lengthAdjust="spacing" textLength="100" x="91" y="70.8457">Bff.FeignClient</text><ellipse cx="144" cy="41.3105" fill="#FEFECE" filter="url(#fmvrfgl5ctz2x)" rx="12" ry="12" style="stroke:#A80036;stroke-width:2.0;"/><polygon fill="#A80036" points="140,29.3105,146,24.3105,144,29.3105,146,34.3105,140,29.3105" style="stroke:#A80036;stroke-width:1.0;"/><text fill="#000000" font-family="sans-serif" font-size="14" lengthAdjust="spacing" textLength="100" x="91" y="212.9551">Bff.FeignClient</text><ellipse cx="144" cy="231.9082" fill="#FEFECE" filter="url(#fmvrfgl5ctz2x)" rx="12" ry="12" style="stroke:#A80036;stroke-width:2.0;"/><polygon fill="#A80036" points="140,219.9082,146,214.9082,144,219.9082,146,224.9082,140,219.9082" style="stroke:#A80036;stroke-width:1.0;"/><ellipse cx="143.5" cy="89.0488" rx="4" ry="4" style="stroke:#A80036;stroke-width:1.5;fill:none;"/><polygon fill="#A80036" points="126.5,85.7988,136.5,89.7988,126.5,93.7988,130.5,89.7988" style="stroke:#A80036;stroke-width:1.0;"/><line style="stroke:#A80036;stroke-width:1.0;" x1="43" x2="132.5" y1="89.7988" y2="89.7988"/><path d="M48,102.7988 L48,127.7988 L145,127.7988 L145,112.7988 L135,102.7988 L48,102.7988 " fill="#FBFB77" filter="url(#fmvrfgl5ctz2x)" style="stroke:#A80036;stroke-width:1.0;"/><path d="M135,102.7988 L135,112.7988 L145,112.7988 L135,102.7988 " fill="#FBFB77" style="stroke:#A80036;stroke-width:1.0;"/><text fill="#000000" font-family="sans-serif" font-size="13" lengthAdjust="spacing" textLength="76" x="54" y="120.3672">Process 2-2</text><polygon fill="#A80036" points="54,139.1094,44,143.1094,54,147.1094,50,143.1094" style="stroke:#A80036;stroke-width:1.0;"/><ellipse cx="143.5" cy="142.3594" rx="4" ry="4" style="stroke:#A80036;stroke-width:1.5;fill:none;"/><line style="stroke:#A80036;stroke-width:1.0;fill:none;" x1="48" x2="139" y1="143.1094" y2="143.1094"/><path d="M38,156.1094 L38,181.1094 L135,181.1094 L135,166.1094 L125,156.1094 L38,156.1094 " fill="#FBFB77" filter="url(#fmvrfgl5ctz2x)" style="stroke:#A80036;stroke-width:1.0;"/><path d="M125,156.1094 L125,166.1094 L135,166.1094 L125,156.1094 " fill="#FBFB77" style="stroke:#A80036;stroke-width:1.0;"/><text fill="#000000" font-family="sans-serif" font-size="13" lengthAdjust="spacing" textLength="76" x="44" y="173.6777">Process 2-2</text><!--MD5=[4c76ba8b293d8b02cf924c1523c44313]
@startuml
skinparam sequence {
    BoxBorderColor WHITE
}
box Bff  
entity Bff.Service
control Bff.FeignClient
end box
Bff.Service ->o Bff.FeignClient:
Note right of Bff.Service:Process 2-2
Bff.FeignClient o-> Bff.Service:
Note left of Bff.FeignClient:Process 2-2
@enduml

PlantUML version 1.2021.5(Sun Apr 25 19:20:28 CST 2021)
(GPL source distribution)
Java Runtime: OpenJDK Runtime Environment
JVM: OpenJDK 64-Bit Server VM
Default Encoding: UTF-8
Language: en
Country: CN
--></g></svg>