<?xml version="1.0" encoding="UTF-8" standalone="no"?><svg xmlns="http://www.w3.org/2000/svg" xmlns:xlink="http://www.w3.org/1999/xlink" contentScriptType="application/ecmascript" contentStyleType="text/css" height="257px" preserveAspectRatio="none" style="width:199px;height:257px;" version="1.1" viewBox="0 0 199 257" width="199px" zoomAndPan="magnify"><defs><filter height="300%" id="fvul2jhfz906b" width="300%" x="-1" y="-1"><feGaussianBlur result="blurOut" stdDeviation="2.0"/><feColorMatrix in="blurOut" result="blurOut2" type="matrix" values="0 0 0 0 0 0 0 0 0 0 0 0 0 0 0 0 0 0 .4 0"/><feOffset dx="4.0" dy="4.0" in="blurOut2" result="blurOut3"/><feBlend in="SourceGraphic" in2="blurOut3" mode="normal"/></filter></defs><g><rect fill="#DDDDDD" height="245.9082" style="stroke:#FFFFFF;stroke-width:1.0;" width="192" x="1" y="6"/><text fill="#000000" font-family="sans-serif" font-size="13" font-weight="bold" lengthAdjust="spacing" textLength="18" x="88" y="18.5684">Bff</text><line style="stroke:#A80036;stroke-width:1.0;stroke-dasharray:5.0,5.0;" x1="54" x2="54" y1="73.7988" y2="200.4199"/><line style="stroke:#A80036;stroke-width:1.0;stroke-dasharray:5.0,5.0;" x1="151" x2="151" y1="73.7988" y2="200.4199"/><text fill="#000000" font-family="sans-serif" font-size="14" lengthAdjust="spacing" textLength="92" x="5" y="70.8457">Bff.Controller</text><ellipse cx="54" cy="41.3105" fill="#FEFECE" filter="url(#fvul2jhfz906b)" rx="12" ry="12" style="stroke:#A80036;stroke-width:2.0;"/><polygon fill="#A80036" points="50,29.3105,56,24.3105,54,29.3105,56,34.3105,50,29.3105" style="stroke:#A80036;stroke-width:1.0;"/><text fill="#000000" font-family="sans-serif" font-size="14" lengthAdjust="spacing" textLength="92" x="5" y="212.9551">Bff.Controller</text><ellipse cx="54" cy="231.9082" fill="#FEFECE" filter="url(#fvul2jhfz906b)" rx="12" ry="12" style="stroke:#A80036;stroke-width:2.0;"/><polygon fill="#A80036" points="50,219.9082,56,214.9082,54,219.9082,56,224.9082,50,219.9082" style="stroke:#A80036;stroke-width:1.0;"/><text fill="#000000" font-family="sans-serif" font-size="14" lengthAdjust="spacing" textLength="70" x="113" y="70.8457">Bff.Service</text><ellipse cx="151" cy="41.3105" fill="#FEFECE" filter="url(#fvul2jhfz906b)" rx="12" ry="12" style="stroke:#A80036;stroke-width:2.0;"/><line style="stroke:#A80036;stroke-width:2.0;" x1="139" x2="163" y1="55.3105" y2="55.3105"/><text fill="#000000" font-family="sans-serif" font-size="14" lengthAdjust="spacing" textLength="70" x="113" y="212.9551">Bff.Service</text><ellipse cx="151" cy="231.9082" fill="#FEFECE" filter="url(#fvul2jhfz906b)" rx="12" ry="12" style="stroke:#A80036;stroke-width:2.0;"/><line style="stroke:#A80036;stroke-width:2.0;" x1="139" x2="163" y1="245.9082" y2="245.9082"/><ellipse cx="150.5" cy="89.0488" rx="4" ry="4" style="stroke:#A80036;stroke-width:1.5;fill:none;"/><polygon fill="#A80036" points="133.5,85.7988,143.5,89.7988,133.5,93.7988,137.5,89.7988" style="stroke:#A80036;stroke-width:1.0;"/><line style="stroke:#A80036;stroke-width:1.0;" x1="54" x2="139.5" y1="89.7988" y2="89.7988"/><path d="M59,102.7988 L59,127.7988 L156,127.7988 L156,112.7988 L146,102.7988 L59,102.7988 " fill="#FBFB77" filter="url(#fvul2jhfz906b)" style="stroke:#A80036;stroke-width:1.0;"/><path d="M146,102.7988 L146,112.7988 L156,112.7988 L146,102.7988 " fill="#FBFB77" style="stroke:#A80036;stroke-width:1.0;"/><text fill="#000000" font-family="sans-serif" font-size="13" lengthAdjust="spacing" textLength="76" x="65" y="120.3672">Process 2-1</text><polygon fill="#A80036" points="65,139.1094,55,143.1094,65,147.1094,61,143.1094" style="stroke:#A80036;stroke-width:1.0;"/><ellipse cx="150.5" cy="142.3594" rx="4" ry="4" style="stroke:#A80036;stroke-width:1.5;fill:none;"/><line style="stroke:#A80036;stroke-width:1.0;fill:none;" x1="59" x2="146" y1="143.1094" y2="143.1094"/><path d="M45,156.1094 L45,181.1094 L142,181.1094 L142,166.1094 L132,156.1094 L45,156.1094 " fill="#FBFB77" filter="url(#fvul2jhfz906b)" style="stroke:#A80036;stroke-width:1.0;"/><path d="M132,156.1094 L132,166.1094 L142,166.1094 L132,156.1094 " fill="#FBFB77" style="stroke:#A80036;stroke-width:1.0;"/><text fill="#000000" font-family="sans-serif" font-size="13" lengthAdjust="spacing" textLength="76" x="51" y="173.6777">Process 2-1</text><!--MD5=[86017099f7c80fa15e56d3debb81e4c0]
@startuml
skinparam sequence {
    BoxBorderColor WHITE
}
box Bff  
control Bff.Controller
entity Bff.Service
end box
Bff.Controller ->o Bff.Service:
Note right of Bff.Controller:Process 2-1
Bff.Service o-> Bff.Controller:
Note left of Bff.Service:Process 2-1
@enduml

PlantUML version 1.2021.5(Sun Apr 25 19:20:28 CST 2021)
(GPL source distribution)
Java Runtime: OpenJDK Runtime Environment
JVM: OpenJDK 64-Bit Server VM
Default Encoding: UTF-8
Language: en
Country: CN
--></g></svg>