<?xml version="1.0" encoding="UTF-8" standalone="no"?><svg xmlns="http://www.w3.org/2000/svg" xmlns:xlink="http://www.w3.org/1999/xlink" contentScriptType="application/ecmascript" contentStyleType="text/css" height="257px" preserveAspectRatio="none" style="width:386px;height:257px;" version="1.1" viewBox="0 0 386 257" width="386px" zoomAndPan="magnify"><defs><filter height="300%" id="fkmh8gto6z72v" width="300%" x="-1" y="-1"><feGaussianBlur result="blurOut" stdDeviation="2.0"/><feColorMatrix in="blurOut" result="blurOut2" type="matrix" values="0 0 0 0 0 0 0 0 0 0 0 0 0 0 0 0 0 0 .4 0"/><feOffset dx="4.0" dy="4.0" in="blurOut2" result="blurOut3"/><feBlend in="SourceGraphic" in2="blurOut3" mode="normal"/></filter></defs><g><rect fill="#DDDDDD" height="245.9082" style="stroke:#FFFFFF;stroke-width:1.0;" width="379" x="1" y="6"/><text fill="#000000" font-family="sans-serif" font-size="13" font-weight="bold" lengthAdjust="spacing" textLength="57" x="162" y="18.5684">Backend</text><line style="stroke:#A80036;stroke-width:1.0;stroke-dasharray:5.0,5.0;" x1="89" x2="89" y1="73.7988" y2="200.4199"/><line style="stroke:#A80036;stroke-width:1.0;stroke-dasharray:5.0,5.0;" x1="279" x2="279" y1="73.7988" y2="200.4199"/><text fill="#000000" font-family="sans-serif" font-size="14" lengthAdjust="spacing" textLength="162" x="5" y="70.8457">Backend.DomainService</text><ellipse cx="89" cy="41.3105" fill="#FEFECE" filter="url(#fkmh8gto6z72v)" rx="12" ry="12" style="stroke:#A80036;stroke-width:2.0;"/><line style="stroke:#A80036;stroke-width:2.0;" x1="77" x2="101" y1="55.3105" y2="55.3105"/><text fill="#000000" font-family="sans-serif" font-size="14" lengthAdjust="spacing" textLength="162" x="5" y="212.9551">Backend.DomainService</text><ellipse cx="89" cy="231.9082" fill="#FEFECE" filter="url(#fkmh8gto6z72v)" rx="12" ry="12" style="stroke:#A80036;stroke-width:2.0;"/><line style="stroke:#A80036;stroke-width:2.0;" x1="77" x2="101" y1="245.9082" y2="245.9082"/><text fill="#000000" font-family="sans-serif" font-size="14" lengthAdjust="spacing" textLength="187" x="183" y="70.8457">Backend.DomainRepository</text><ellipse cx="279.5" cy="41.3105" fill="#FEFECE" filter="url(#fkmh8gto6z72v)" rx="12" ry="12" style="stroke:#A80036;stroke-width:2.0;"/><line style="stroke:#A80036;stroke-width:2.0;" x1="267.5" x2="291.5" y1="55.3105" y2="55.3105"/><text fill="#000000" font-family="sans-serif" font-size="14" lengthAdjust="spacing" textLength="187" x="183" y="212.9551">Backend.DomainRepository</text><ellipse cx="279.5" cy="231.9082" fill="#FEFECE" filter="url(#fkmh8gto6z72v)" rx="12" ry="12" style="stroke:#A80036;stroke-width:2.0;"/><line style="stroke:#A80036;stroke-width:2.0;" x1="267.5" x2="291.5" y1="245.9082" y2="245.9082"/><ellipse cx="279" cy="89.0488" rx="4" ry="4" style="stroke:#A80036;stroke-width:1.5;fill:none;"/><polygon fill="#A80036" points="262,85.7988,272,89.7988,262,93.7988,266,89.7988" style="stroke:#A80036;stroke-width:1.0;"/><line style="stroke:#A80036;stroke-width:1.0;" x1="89" x2="268" y1="89.7988" y2="89.7988"/><path d="M94,102.7988 L94,127.7988 L191,127.7988 L191,112.7988 L181,102.7988 L94,102.7988 " fill="#FBFB77" filter="url(#fkmh8gto6z72v)" style="stroke:#A80036;stroke-width:1.0;"/><path d="M181,102.7988 L181,112.7988 L191,112.7988 L181,102.7988 " fill="#FBFB77" style="stroke:#A80036;stroke-width:1.0;"/><text fill="#000000" font-family="sans-serif" font-size="13" lengthAdjust="spacing" textLength="76" x="100" y="120.3672">Process 3-3</text><polygon fill="#A80036" points="100,139.1094,90,143.1094,100,147.1094,96,143.1094" style="stroke:#A80036;stroke-width:1.0;"/><ellipse cx="279" cy="142.3594" rx="4" ry="4" style="stroke:#A80036;stroke-width:1.5;fill:none;"/><line style="stroke:#A80036;stroke-width:1.0;fill:none;" x1="94" x2="274.5" y1="143.1094" y2="143.1094"/><path d="M173,156.1094 L173,181.1094 L270,181.1094 L270,166.1094 L260,156.1094 L173,156.1094 " fill="#FBFB77" filter="url(#fkmh8gto6z72v)" style="stroke:#A80036;stroke-width:1.0;"/><path d="M260,156.1094 L260,166.1094 L270,166.1094 L260,156.1094 " fill="#FBFB77" style="stroke:#A80036;stroke-width:1.0;"/><text fill="#000000" font-family="sans-serif" font-size="13" lengthAdjust="spacing" textLength="76" x="179" y="173.6777">Process 3-3</text><!--MD5=[8c508c2a2bb06c48bd6aec0db2dc3f56]
@startuml
skinparam sequence {
    BoxBorderColor WHITE
}
box Backend  
entity Backend.DomainService
entity Backend.DomainRepository
end box
Backend.DomainService ->o Backend.DomainRepository:
Note right of Backend.DomainService:Process 3-3
Backend.DomainRepository o-> Backend.DomainService:
Note left of Backend.DomainRepository:Process 3-3
@enduml

PlantUML version 1.2021.5(Sun Apr 25 19:20:28 CST 2021)
(GPL source distribution)
Java Runtime: OpenJDK Runtime Environment
JVM: OpenJDK 64-Bit Server VM
Default Encoding: UTF-8
Language: en
Country: CN
--></g></svg>