<?xml version="1.0" encoding="UTF-8" standalone="no"?><svg xmlns="http://www.w3.org/2000/svg" xmlns:xlink="http://www.w3.org/1999/xlink" contentScriptType="application/ecmascript" contentStyleType="text/css" height="257px" preserveAspectRatio="none" style="width:241px;height:257px;" version="1.1" viewBox="0 0 241 257" width="241px" zoomAndPan="magnify"><defs><filter height="300%" id="f6x7zzja5ldn" width="300%" x="-1" y="-1"><feGaussianBlur result="blurOut" stdDeviation="2.0"/><feColorMatrix in="blurOut" result="blurOut2" type="matrix" values="0 0 0 0 0 0 0 0 0 0 0 0 0 0 0 0 0 0 .4 0"/><feOffset dx="4.0" dy="4.0" in="blurOut2" result="blurOut3"/><feBlend in="SourceGraphic" in2="blurOut3" mode="normal"/></filter></defs><g><rect fill="#DDDDDD" height="245.9082" style="stroke:#FFFFFF;stroke-width:1.0;" width="126" x="1" y="6"/><text fill="#000000" font-family="sans-serif" font-size="13" font-weight="bold" lengthAdjust="spacing" textLength="29" x="49.5" y="18.5684">Web</text><rect fill="#DDDDDD" height="245.9082" style="stroke:#FFFFFF;stroke-width:1.0;" width="106" x="129" y="6"/><text fill="#000000" font-family="sans-serif" font-size="13" font-weight="bold" lengthAdjust="spacing" textLength="18" x="173" y="18.5684">Bff</text><line style="stroke:#A80036;stroke-width:1.0;stroke-dasharray:5.0,5.0;" x1="64" x2="64" y1="73.7988" y2="200.4199"/><line style="stroke:#A80036;stroke-width:1.0;stroke-dasharray:5.0,5.0;" x1="182" x2="182" y1="73.7988" y2="200.4199"/><text fill="#000000" font-family="sans-serif" font-size="14" lengthAdjust="spacing" textLength="112" x="5" y="70.8457">Web.AxiosClient</text><ellipse cx="64" cy="41.3105" fill="#FEFECE" filter="url(#f6x7zzja5ldn)" rx="12" ry="12" style="stroke:#A80036;stroke-width:2.0;"/><line style="stroke:#A80036;stroke-width:2.0;" x1="52" x2="76" y1="55.3105" y2="55.3105"/><text fill="#000000" font-family="sans-serif" font-size="14" lengthAdjust="spacing" textLength="112" x="5" y="212.9551">Web.AxiosClient</text><ellipse cx="64" cy="231.9082" fill="#FEFECE" filter="url(#f6x7zzja5ldn)" rx="12" ry="12" style="stroke:#A80036;stroke-width:2.0;"/><line style="stroke:#A80036;stroke-width:2.0;" x1="52" x2="76" y1="245.9082" y2="245.9082"/><text fill="#000000" font-family="sans-serif" font-size="14" lengthAdjust="spacing" textLength="92" x="133" y="70.8457">Bff.Controller</text><ellipse cx="182" cy="41.3105" fill="#FEFECE" filter="url(#f6x7zzja5ldn)" rx="12" ry="12" style="stroke:#A80036;stroke-width:2.0;"/><polygon fill="#A80036" points="178,29.3105,184,24.3105,182,29.3105,184,34.3105,178,29.3105" style="stroke:#A80036;stroke-width:1.0;"/><text fill="#000000" font-family="sans-serif" font-size="14" lengthAdjust="spacing" textLength="92" x="133" y="212.9551">Bff.Controller</text><ellipse cx="182" cy="231.9082" fill="#FEFECE" filter="url(#f6x7zzja5ldn)" rx="12" ry="12" style="stroke:#A80036;stroke-width:2.0;"/><polygon fill="#A80036" points="178,219.9082,184,214.9082,182,219.9082,184,224.9082,178,219.9082" style="stroke:#A80036;stroke-width:1.0;"/><ellipse cx="181.5" cy="89.0488" rx="4" ry="4" style="stroke:#A80036;stroke-width:1.5;fill:none;"/><polygon fill="#A80036" points="164.5,85.7988,174.5,89.7988,164.5,93.7988,168.5,89.7988" style="stroke:#A80036;stroke-width:1.0;"/><line style="stroke:#A80036;stroke-width:1.0;" x1="64" x2="170.5" y1="89.7988" y2="89.7988"/><path d="M69,102.7988 L69,127.7988 L166,127.7988 L166,112.7988 L156,102.7988 L69,102.7988 " fill="#FBFB77" filter="url(#f6x7zzja5ldn)" style="stroke:#A80036;stroke-width:1.0;"/><path d="M156,102.7988 L156,112.7988 L166,112.7988 L156,102.7988 " fill="#FBFB77" style="stroke:#A80036;stroke-width:1.0;"/><text fill="#000000" font-family="sans-serif" font-size="13" lengthAdjust="spacing" textLength="76" x="75" y="120.3672">Process 1-3</text><polygon fill="#A80036" points="75,139.1094,65,143.1094,75,147.1094,71,143.1094" style="stroke:#A80036;stroke-width:1.0;"/><line style="stroke:#A80036;stroke-width:2.0;" x1="164" x2="174" y1="138.1094" y2="148.1094"/><line style="stroke:#A80036;stroke-width:2.0;" x1="164" x2="174" y1="148.1094" y2="138.1094"/><line style="stroke:#A80036;stroke-width:1.0;" x1="69" x2="169" y1="143.1094" y2="143.1094"/><path d="M76,156.1094 L76,181.1094 L173,181.1094 L173,166.1094 L163,156.1094 L76,156.1094 " fill="#FBFB77" filter="url(#f6x7zzja5ldn)" style="stroke:#A80036;stroke-width:1.0;"/><path d="M163,156.1094 L163,166.1094 L173,166.1094 L163,156.1094 " fill="#FBFB77" style="stroke:#A80036;stroke-width:1.0;"/><text fill="#000000" font-family="sans-serif" font-size="13" lengthAdjust="spacing" textLength="76" x="82" y="173.6777">Process 1-3</text><!--MD5=[0c4fcebf40afa8f32eea89bbd4bbeb21]
@startuml
skinparam sequence {
    BoxBorderColor WHITE
}
box Web  
entity Web.AxiosClient
end box
box Bff  
control Bff.Controller
end box
Web.AxiosClient ->o Bff.Controller:
Note right of Web.AxiosClient:Process 1-3
Bff.Controller x-> Web.AxiosClient:
Note left of Bff.Controller:Process 1-3
@enduml

PlantUML version 1.2021.5(Sun Apr 25 19:20:28 CST 2021)
(GPL source distribution)
Java Runtime: OpenJDK Runtime Environment
JVM: OpenJDK 64-Bit Server VM
Default Encoding: UTF-8
Language: en
Country: CN
--></g></svg>