<?xml version="1.0" encoding="UTF-8" standalone="no"?><svg xmlns="http://www.w3.org/2000/svg" xmlns:xlink="http://www.w3.org/1999/xlink" contentScriptType="application/ecmascript" contentStyleType="text/css" height="390px" preserveAspectRatio="none" style="width:277px;height:390px;" version="1.1" viewBox="0 0 277 390" width="277px" zoomAndPan="magnify"><defs><filter height="300%" id="fmv25dhwc5i9v" width="300%" x="-1" y="-1"><feGaussianBlur result="blurOut" stdDeviation="2.0"/><feColorMatrix in="blurOut" result="blurOut2" type="matrix" values="0 0 0 0 0 0 0 0 0 0 0 0 0 0 0 0 0 0 .4 0"/><feOffset dx="4.0" dy="4.0" in="blurOut2" result="blurOut3"/><feBlend in="SourceGraphic" in2="blurOut3" mode="normal"/></filter></defs><g><rect fill="#DDDDDD" height="378.5293" style="stroke:#FFFFFF;stroke-width:1.0;" width="270" x="1" y="6"/><text fill="#000000" font-family="sans-serif" font-size="13" font-weight="bold" lengthAdjust="spacing" textLength="29" x="121.5" y="18.5684">Web</text><line style="stroke:#A80036;stroke-width:1.0;stroke-dasharray:5.0,5.0;" x1="72" x2="72" y1="73.7988" y2="333.041"/><line style="stroke:#A80036;stroke-width:1.0;stroke-dasharray:5.0,5.0;" x1="208" x2="208" y1="73.7988" y2="333.041"/><text fill="#000000" font-family="sans-serif" font-size="14" lengthAdjust="spacing" textLength="128" x="5" y="70.8457">Web.UiComponent</text><ellipse cx="72" cy="41.3105" fill="#FEFECE" filter="url(#fmv25dhwc5i9v)" rx="12" ry="12" style="stroke:#A80036;stroke-width:2.0;"/><line style="stroke:#A80036;stroke-width:2.0;" x1="60" x2="84" y1="55.3105" y2="55.3105"/><text fill="#000000" font-family="sans-serif" font-size="14" lengthAdjust="spacing" textLength="128" x="5" y="345.5762">Web.UiComponent</text><ellipse cx="72" cy="364.5293" fill="#FEFECE" filter="url(#fmv25dhwc5i9v)" rx="12" ry="12" style="stroke:#A80036;stroke-width:2.0;"/><line style="stroke:#A80036;stroke-width:2.0;" x1="60" x2="84" y1="378.5293" y2="378.5293"/><text fill="#000000" font-family="sans-serif" font-size="14" lengthAdjust="spacing" textLength="112" x="149" y="70.8457">Web.AxiosClient</text><ellipse cx="208" cy="41.3105" fill="#FEFECE" filter="url(#fmv25dhwc5i9v)" rx="12" ry="12" style="stroke:#A80036;stroke-width:2.0;"/><line style="stroke:#A80036;stroke-width:2.0;" x1="196" x2="220" y1="55.3105" y2="55.3105"/><text fill="#000000" font-family="sans-serif" font-size="14" lengthAdjust="spacing" textLength="112" x="149" y="345.5762">Web.AxiosClient</text><ellipse cx="208" cy="364.5293" fill="#FEFECE" filter="url(#fmv25dhwc5i9v)" rx="12" ry="12" style="stroke:#A80036;stroke-width:2.0;"/><line style="stroke:#A80036;stroke-width:2.0;" x1="196" x2="220" y1="378.5293" y2="378.5293"/><ellipse cx="71.5" cy="102.0488" rx="4" ry="4" style="stroke:#A80036;stroke-width:1.5;fill:none;"/><line style="stroke:#A80036;stroke-width:1.0;fill:none;" x1="72" x2="114" y1="89.7988" y2="89.7988"/><line style="stroke:#A80036;stroke-width:1.0;fill:none;" x1="114" x2="114" y1="89.7988" y2="102.7988"/><line style="stroke:#A80036;stroke-width:1.0;fill:none;" x1="77" x2="114" y1="102.7988" y2="102.7988"/><polygon fill="#A80036" points="87,98.7988,77,102.7988,87,106.7988,83,102.7988" style="stroke:#A80036;stroke-width:1.0;"/><path d="M77,115.7988 L77,140.7988 L174,140.7988 L174,125.7988 L164,115.7988 L77,115.7988 " fill="#FBFB77" filter="url(#fmv25dhwc5i9v)" style="stroke:#A80036;stroke-width:1.0;"/><path d="M164,115.7988 L164,125.7988 L174,125.7988 L164,115.7988 " fill="#FBFB77" style="stroke:#A80036;stroke-width:1.0;"/><text fill="#000000" font-family="sans-serif" font-size="13" lengthAdjust="spacing" textLength="76" x="83" y="133.3672">Process 1-1</text><ellipse cx="207.5" cy="155.3594" rx="4" ry="4" style="stroke:#A80036;stroke-width:1.5;fill:none;"/><polygon fill="#A80036" points="190.5,152.1094,200.5,156.1094,190.5,160.1094,194.5,156.1094" style="stroke:#A80036;stroke-width:1.0;"/><line style="stroke:#A80036;stroke-width:1.0;" x1="72" x2="196.5" y1="156.1094" y2="156.1094"/><path d="M77,169.1094 L77,194.1094 L174,194.1094 L174,179.1094 L164,169.1094 L77,169.1094 " fill="#FBFB77" filter="url(#fmv25dhwc5i9v)" style="stroke:#A80036;stroke-width:1.0;"/><path d="M164,169.1094 L164,179.1094 L174,179.1094 L164,169.1094 " fill="#FBFB77" style="stroke:#A80036;stroke-width:1.0;"/><text fill="#000000" font-family="sans-serif" font-size="13" lengthAdjust="spacing" textLength="76" x="83" y="186.6777">Process 1-2</text><polygon fill="#A80036" points="83,205.4199,73,209.4199,83,213.4199,79,209.4199" style="stroke:#A80036;stroke-width:1.0;"/><ellipse cx="207.5" cy="208.6699" rx="4" ry="4" style="stroke:#A80036;stroke-width:1.5;fill:none;"/><line style="stroke:#A80036;stroke-width:1.0;fill:none;" x1="77" x2="203" y1="209.4199" y2="209.4199"/><path d="M102,222.4199 L102,247.4199 L199,247.4199 L199,232.4199 L189,222.4199 L102,222.4199 " fill="#FBFB77" filter="url(#fmv25dhwc5i9v)" style="stroke:#A80036;stroke-width:1.0;"/><path d="M189,222.4199 L189,232.4199 L199,232.4199 L189,222.4199 " fill="#FBFB77" style="stroke:#A80036;stroke-width:1.0;"/><text fill="#000000" font-family="sans-serif" font-size="13" lengthAdjust="spacing" textLength="76" x="108" y="239.9883">Process 1-2</text><ellipse cx="71.5" cy="274.9805" rx="4" ry="4" style="stroke:#A80036;stroke-width:1.5;fill:none;"/><line style="stroke:#A80036;stroke-width:1.0;fill:none;" x1="72" x2="114" y1="262.7305" y2="262.7305"/><line style="stroke:#A80036;stroke-width:1.0;fill:none;" x1="114" x2="114" y1="262.7305" y2="275.7305"/><line style="stroke:#A80036;stroke-width:1.0;fill:none;" x1="77" x2="114" y1="275.7305" y2="275.7305"/><polygon fill="#A80036" points="87,271.7305,77,275.7305,87,279.7305,83,275.7305" style="stroke:#A80036;stroke-width:1.0;"/><path d="M77,288.7305 L77,313.7305 L174,313.7305 L174,298.7305 L164,288.7305 L77,288.7305 " fill="#FBFB77" filter="url(#fmv25dhwc5i9v)" style="stroke:#A80036;stroke-width:1.0;"/><path d="M164,288.7305 L164,298.7305 L174,298.7305 L164,288.7305 " fill="#FBFB77" style="stroke:#A80036;stroke-width:1.0;"/><text fill="#000000" font-family="sans-serif" font-size="13" lengthAdjust="spacing" textLength="76" x="83" y="306.2988">Process 1-1</text><!--MD5=[4faa1997bfcb33c2b3482c139f1578fc]
@startuml
skinparam sequence {
    BoxBorderColor WHITE
}
box Web  
entity Web.UiComponent
entity Web.AxiosClient
end box
Web.UiComponent ->o Web.UiComponent:
Note right of Web.UiComponent:Process 1-1
Web.UiComponent ->o Web.AxiosClient:
Note right of Web.UiComponent:Process 1-2
Web.AxiosClient o-> Web.UiComponent:
Note left of Web.AxiosClient:Process 1-2
Web.UiComponent ->o Web.UiComponent:
Note right of Web.UiComponent:Process 1-1
@enduml

PlantUML version 1.2021.5(Sun Apr 25 19:20:28 CST 2021)
(GPL source distribution)
Java Runtime: OpenJDK Runtime Environment
JVM: OpenJDK 64-Bit Server VM
Default Encoding: UTF-8
Language: en
Country: CN
--></g></svg>