<?xml version="1.0" encoding="UTF-8" standalone="no"?><svg xmlns="http://www.w3.org/2000/svg" xmlns:xlink="http://www.w3.org/1999/xlink" contentScriptType="application/ecmascript" contentStyleType="text/css" height="257px" preserveAspectRatio="none" style="width:284px;height:257px;" version="1.1" viewBox="0 0 284 257" width="284px" zoomAndPan="magnify"><defs><filter height="300%" id="f104murnkfvqn1" width="300%" x="-1" y="-1"><feGaussianBlur result="blurOut" stdDeviation="2.0"/><feColorMatrix in="blurOut" result="blurOut2" type="matrix" values="0 0 0 0 0 0 0 0 0 0 0 0 0 0 0 0 0 0 .4 0"/><feOffset dx="4.0" dy="4.0" in="blurOut2" result="blurOut3"/><feBlend in="SourceGraphic" in2="blurOut3" mode="normal"/></filter></defs><g><rect fill="#DDDDDD" height="245.9082" style="stroke:#FFFFFF;stroke-width:1.0;" width="277" x="1" y="6"/><text fill="#000000" font-family="sans-serif" font-size="13" font-weight="bold" lengthAdjust="spacing" textLength="57" x="111" y="18.5684">Backend</text><line style="stroke:#A80036;stroke-width:1.0;stroke-dasharray:5.0,5.0;" x1="73" x2="73" y1="73.7988" y2="200.4199"/><line style="stroke:#A80036;stroke-width:1.0;stroke-dasharray:5.0,5.0;" x1="213" x2="213" y1="73.7988" y2="200.4199"/><text fill="#000000" font-family="sans-serif" font-size="14" lengthAdjust="spacing" textLength="131" x="5" y="70.8457">Backend.Controller</text><ellipse cx="73.5" cy="41.3105" fill="#FEFECE" filter="url(#f104murnkfvqn1)" rx="12" ry="12" style="stroke:#A80036;stroke-width:2.0;"/><polygon fill="#A80036" points="69.5,29.3105,75.5,24.3105,73.5,29.3105,75.5,34.3105,69.5,29.3105" style="stroke:#A80036;stroke-width:1.0;"/><text fill="#000000" font-family="sans-serif" font-size="14" lengthAdjust="spacing" textLength="131" x="5" y="212.9551">Backend.Controller</text><ellipse cx="73.5" cy="231.9082" fill="#FEFECE" filter="url(#f104murnkfvqn1)" rx="12" ry="12" style="stroke:#A80036;stroke-width:2.0;"/><polygon fill="#A80036" points="69.5,219.9082,75.5,214.9082,73.5,219.9082,75.5,224.9082,69.5,219.9082" style="stroke:#A80036;stroke-width:1.0;"/><text fill="#000000" font-family="sans-serif" font-size="14" lengthAdjust="spacing" textLength="116" x="152" y="70.8457">Backend.Usecase</text><ellipse cx="213" cy="41.3105" fill="#FEFECE" filter="url(#f104murnkfvqn1)" rx="12" ry="12" style="stroke:#A80036;stroke-width:2.0;"/><line style="stroke:#A80036;stroke-width:2.0;" x1="201" x2="225" y1="55.3105" y2="55.3105"/><text fill="#000000" font-family="sans-serif" font-size="14" lengthAdjust="spacing" textLength="116" x="152" y="212.9551">Backend.Usecase</text><ellipse cx="213" cy="231.9082" fill="#FEFECE" filter="url(#f104murnkfvqn1)" rx="12" ry="12" style="stroke:#A80036;stroke-width:2.0;"/><line style="stroke:#A80036;stroke-width:2.0;" x1="201" x2="225" y1="245.9082" y2="245.9082"/><ellipse cx="212.5" cy="89.0488" rx="4" ry="4" style="stroke:#A80036;stroke-width:1.5;fill:none;"/><polygon fill="#A80036" points="195.5,85.7988,205.5,89.7988,195.5,93.7988,199.5,89.7988" style="stroke:#A80036;stroke-width:1.0;"/><line style="stroke:#A80036;stroke-width:1.0;" x1="73.5" x2="201.5" y1="89.7988" y2="89.7988"/><path d="M78,102.7988 L78,127.7988 L175,127.7988 L175,112.7988 L165,102.7988 L78,102.7988 " fill="#FBFB77" filter="url(#f104murnkfvqn1)" style="stroke:#A80036;stroke-width:1.0;"/><path d="M165,102.7988 L165,112.7988 L175,112.7988 L165,102.7988 " fill="#FBFB77" style="stroke:#A80036;stroke-width:1.0;"/><text fill="#000000" font-family="sans-serif" font-size="13" lengthAdjust="spacing" textLength="76" x="84" y="120.3672">Process 3-1</text><polygon fill="#A80036" points="84.5,139.1094,74.5,143.1094,84.5,147.1094,80.5,143.1094" style="stroke:#A80036;stroke-width:1.0;"/><ellipse cx="212.5" cy="142.3594" rx="4" ry="4" style="stroke:#A80036;stroke-width:1.5;fill:none;"/><line style="stroke:#A80036;stroke-width:1.0;fill:none;" x1="78.5" x2="208" y1="143.1094" y2="143.1094"/><path d="M107,156.1094 L107,181.1094 L204,181.1094 L204,166.1094 L194,156.1094 L107,156.1094 " fill="#FBFB77" filter="url(#f104murnkfvqn1)" style="stroke:#A80036;stroke-width:1.0;"/><path d="M194,156.1094 L194,166.1094 L204,166.1094 L194,156.1094 " fill="#FBFB77" style="stroke:#A80036;stroke-width:1.0;"/><text fill="#000000" font-family="sans-serif" font-size="13" lengthAdjust="spacing" textLength="76" x="113" y="173.6777">Process 3-1</text><!--MD5=[04bf0e77996275acc5bb133109d73e1d]
@startuml
skinparam sequence {
    BoxBorderColor WHITE
}
box Backend  
control Backend.Controller
entity Backend.Usecase
end box
Backend.Controller ->o Backend.Usecase:
Note right of Backend.Controller:Process 3-1
Backend.Usecase o-> Backend.Controller:
Note left of Backend.Usecase:Process 3-1
@enduml

PlantUML version 1.2021.5(Sun Apr 25 19:20:28 CST 2021)
(GPL source distribution)
Java Runtime: OpenJDK Runtime Environment
JVM: OpenJDK 64-Bit Server VM
Default Encoding: UTF-8
Language: en
Country: CN
--></g></svg>