<?xml version="1.0" encoding="UTF-8" standalone="no"?><svg xmlns="http://www.w3.org/2000/svg" xmlns:xlink="http://www.w3.org/1999/xlink" contentScriptType="application/ecmascript" contentStyleType="text/css" height="257px" preserveAspectRatio="none" style="width:268px;height:257px;" version="1.1" viewBox="0 0 268 257" width="268px" zoomAndPan="magnify"><defs><filter height="300%" id="fu0ue1cx0tlhm" width="300%" x="-1" y="-1"><feGaussianBlur result="blurOut" stdDeviation="2.0"/><feColorMatrix in="blurOut" result="blurOut2" type="matrix" values="0 0 0 0 0 0 0 0 0 0 0 0 0 0 0 0 0 0 .4 0"/><feOffset dx="4.0" dy="4.0" in="blurOut2" result="blurOut3"/><feBlend in="SourceGraphic" in2="blurOut3" mode="normal"/></filter></defs><g><rect fill="#DDDDDD" height="245.9082" style="stroke:#FFFFFF;stroke-width:1.0;" width="114" x="1" y="6"/><text fill="#000000" font-family="sans-serif" font-size="13" font-weight="bold" lengthAdjust="spacing" textLength="18" x="49" y="18.5684">Bff</text><rect fill="#DDDDDD" height="245.9082" style="stroke:#FFFFFF;stroke-width:1.0;" width="145" x="117" y="6"/><text fill="#000000" font-family="sans-serif" font-size="13" font-weight="bold" lengthAdjust="spacing" textLength="57" x="161" y="18.5684">Backend</text><line style="stroke:#A80036;stroke-width:1.0;stroke-dasharray:5.0,5.0;" x1="58" x2="58" y1="73.7988" y2="200.4199"/><line style="stroke:#A80036;stroke-width:1.0;stroke-dasharray:5.0,5.0;" x1="189" x2="189" y1="73.7988" y2="200.4199"/><text fill="#000000" font-family="sans-serif" font-size="14" lengthAdjust="spacing" textLength="100" x="5" y="70.8457">Bff.FeignClient</text><ellipse cx="58" cy="41.3105" fill="#FEFECE" filter="url(#fu0ue1cx0tlhm)" rx="12" ry="12" style="stroke:#A80036;stroke-width:2.0;"/><polygon fill="#A80036" points="54,29.3105,60,24.3105,58,29.3105,60,34.3105,54,29.3105" style="stroke:#A80036;stroke-width:1.0;"/><text fill="#000000" font-family="sans-serif" font-size="14" lengthAdjust="spacing" textLength="100" x="5" y="212.9551">Bff.FeignClient</text><ellipse cx="58" cy="231.9082" fill="#FEFECE" filter="url(#fu0ue1cx0tlhm)" rx="12" ry="12" style="stroke:#A80036;stroke-width:2.0;"/><polygon fill="#A80036" points="54,219.9082,60,214.9082,58,219.9082,60,224.9082,54,219.9082" style="stroke:#A80036;stroke-width:1.0;"/><text fill="#000000" font-family="sans-serif" font-size="14" lengthAdjust="spacing" textLength="131" x="121" y="70.8457">Backend.Controller</text><ellipse cx="189.5" cy="41.3105" fill="#FEFECE" filter="url(#fu0ue1cx0tlhm)" rx="12" ry="12" style="stroke:#A80036;stroke-width:2.0;"/><polygon fill="#A80036" points="185.5,29.3105,191.5,24.3105,189.5,29.3105,191.5,34.3105,185.5,29.3105" style="stroke:#A80036;stroke-width:1.0;"/><text fill="#000000" font-family="sans-serif" font-size="14" lengthAdjust="spacing" textLength="131" x="121" y="212.9551">Backend.Controller</text><ellipse cx="189.5" cy="231.9082" fill="#FEFECE" filter="url(#fu0ue1cx0tlhm)" rx="12" ry="12" style="stroke:#A80036;stroke-width:2.0;"/><polygon fill="#A80036" points="185.5,219.9082,191.5,214.9082,189.5,219.9082,191.5,224.9082,185.5,219.9082" style="stroke:#A80036;stroke-width:1.0;"/><ellipse cx="189" cy="89.0488" rx="4" ry="4" style="stroke:#A80036;stroke-width:1.5;fill:none;"/><polygon fill="#A80036" points="172,85.7988,182,89.7988,172,93.7988,176,89.7988" style="stroke:#A80036;stroke-width:1.0;"/><line style="stroke:#A80036;stroke-width:1.0;" x1="58" x2="178" y1="89.7988" y2="89.7988"/><path d="M63,102.7988 L63,127.7988 L160,127.7988 L160,112.7988 L150,102.7988 L63,102.7988 " fill="#FBFB77" filter="url(#fu0ue1cx0tlhm)" style="stroke:#A80036;stroke-width:1.0;"/><path d="M150,102.7988 L150,112.7988 L160,112.7988 L150,102.7988 " fill="#FBFB77" style="stroke:#A80036;stroke-width:1.0;"/><text fill="#000000" font-family="sans-serif" font-size="13" lengthAdjust="spacing" textLength="76" x="69" y="120.3672">Process 2-3</text><polygon fill="#A80036" points="69,139.1094,59,143.1094,69,147.1094,65,143.1094" style="stroke:#A80036;stroke-width:1.0;"/><ellipse cx="189" cy="142.3594" rx="4" ry="4" style="stroke:#A80036;stroke-width:1.5;fill:none;"/><line style="stroke:#A80036;stroke-width:1.0;fill:none;" x1="63" x2="184.5" y1="143.1094" y2="143.1094"/><path d="M83,156.1094 L83,181.1094 L180,181.1094 L180,166.1094 L170,156.1094 L83,156.1094 " fill="#FBFB77" filter="url(#fu0ue1cx0tlhm)" style="stroke:#A80036;stroke-width:1.0;"/><path d="M170,156.1094 L170,166.1094 L180,166.1094 L170,156.1094 " fill="#FBFB77" style="stroke:#A80036;stroke-width:1.0;"/><text fill="#000000" font-family="sans-serif" font-size="13" lengthAdjust="spacing" textLength="76" x="89" y="173.6777">Process 2-3</text><!--MD5=[a8314ce058159ea47d5b029966497b7e]
@startuml
skinparam sequence {
    BoxBorderColor WHITE
}
box Bff  
control Bff.FeignClient
end box
box Backend  
control Backend.Controller
end box
Bff.FeignClient ->o Backend.Controller:
Note right of Bff.FeignClient:Process 2-3
Backend.Controller o-> Bff.FeignClient:
Note left of Backend.Controller:Process 2-3
@enduml

PlantUML version 1.2021.5(Sun Apr 25 19:20:28 CST 2021)
(GPL source distribution)
Java Runtime: OpenJDK Runtime Environment
JVM: OpenJDK 64-Bit Server VM
Default Encoding: UTF-8
Language: en
Country: CN
--></g></svg>