<?xml version="1.0" encoding="UTF-8" standalone="no"?><svg xmlns="http://www.w3.org/2000/svg" xmlns:xlink="http://www.w3.org/1999/xlink" contentScriptType="application/ecmascript" contentStyleType="text/css" height="257px" preserveAspectRatio="none" style="width:310px;height:257px;" version="1.1" viewBox="0 0 310 257" width="310px" zoomAndPan="magnify"><defs><filter height="300%" id="fbpmcg90yboyr" width="300%" x="-1" y="-1"><feGaussianBlur result="blurOut" stdDeviation="2.0"/><feColorMatrix in="blurOut" result="blurOut2" type="matrix" values="0 0 0 0 0 0 0 0 0 0 0 0 0 0 0 0 0 0 .4 0"/><feOffset dx="4.0" dy="4.0" in="blurOut2" result="blurOut3"/><feBlend in="SourceGraphic" in2="blurOut3" mode="normal"/></filter></defs><g><rect fill="#DDDDDD" height="245.9082" style="stroke:#FFFFFF;stroke-width:1.0;" width="303" x="1" y="6"/><text fill="#000000" font-family="sans-serif" font-size="13" font-weight="bold" lengthAdjust="spacing" textLength="57" x="124" y="18.5684">Backend</text><line style="stroke:#A80036;stroke-width:1.0;stroke-dasharray:5.0,5.0;" x1="90" x2="90" y1="73.7988" y2="200.4199"/><line style="stroke:#A80036;stroke-width:1.0;stroke-dasharray:5.0,5.0;" x1="242" x2="242" y1="73.7988" y2="200.4199"/><text fill="#000000" font-family="sans-serif" font-size="14" lengthAdjust="spacing" textLength="164" x="5" y="70.8457">Backend.RepositoryImpl</text><ellipse cx="90" cy="41.3105" fill="#FEFECE" filter="url(#fbpmcg90yboyr)" rx="12" ry="12" style="stroke:#A80036;stroke-width:2.0;"/><line style="stroke:#A80036;stroke-width:2.0;" x1="78" x2="102" y1="55.3105" y2="55.3105"/><text fill="#000000" font-family="sans-serif" font-size="14" lengthAdjust="spacing" textLength="164" x="5" y="212.9551">Backend.RepositoryImpl</text><ellipse cx="90" cy="231.9082" fill="#FEFECE" filter="url(#fbpmcg90yboyr)" rx="12" ry="12" style="stroke:#A80036;stroke-width:2.0;"/><line style="stroke:#A80036;stroke-width:2.0;" x1="78" x2="102" y1="245.9082" y2="245.9082"/><text fill="#000000" font-family="sans-serif" font-size="14" lengthAdjust="spacing" textLength="109" x="185" y="70.8457">Backend.JpaDao</text><ellipse cx="242.5" cy="41.3105" fill="#FEFECE" filter="url(#fbpmcg90yboyr)" rx="12" ry="12" style="stroke:#A80036;stroke-width:2.0;"/><line style="stroke:#A80036;stroke-width:2.0;" x1="230.5" x2="254.5" y1="55.3105" y2="55.3105"/><text fill="#000000" font-family="sans-serif" font-size="14" lengthAdjust="spacing" textLength="109" x="185" y="212.9551">Backend.JpaDao</text><ellipse cx="242.5" cy="231.9082" fill="#FEFECE" filter="url(#fbpmcg90yboyr)" rx="12" ry="12" style="stroke:#A80036;stroke-width:2.0;"/><line style="stroke:#A80036;stroke-width:2.0;" x1="230.5" x2="254.5" y1="245.9082" y2="245.9082"/><ellipse cx="242" cy="89.0488" rx="4" ry="4" style="stroke:#A80036;stroke-width:1.5;fill:none;"/><polygon fill="#A80036" points="225,85.7988,235,89.7988,225,93.7988,229,89.7988" style="stroke:#A80036;stroke-width:1.0;"/><line style="stroke:#A80036;stroke-width:1.0;" x1="90" x2="231" y1="89.7988" y2="89.7988"/><path d="M95,102.7988 L95,127.7988 L192,127.7988 L192,112.7988 L182,102.7988 L95,102.7988 " fill="#FBFB77" filter="url(#fbpmcg90yboyr)" style="stroke:#A80036;stroke-width:1.0;"/><path d="M182,102.7988 L182,112.7988 L192,112.7988 L182,102.7988 " fill="#FBFB77" style="stroke:#A80036;stroke-width:1.0;"/><text fill="#000000" font-family="sans-serif" font-size="13" lengthAdjust="spacing" textLength="76" x="101" y="120.3672">Process 3-6</text><polygon fill="#A80036" points="101,139.1094,91,143.1094,101,147.1094,97,143.1094" style="stroke:#A80036;stroke-width:1.0;"/><ellipse cx="242" cy="142.3594" rx="4" ry="4" style="stroke:#A80036;stroke-width:1.5;fill:none;"/><line style="stroke:#A80036;stroke-width:1.0;fill:none;" x1="95" x2="237.5" y1="143.1094" y2="143.1094"/><path d="M136,156.1094 L136,181.1094 L233,181.1094 L233,166.1094 L223,156.1094 L136,156.1094 " fill="#FBFB77" filter="url(#fbpmcg90yboyr)" style="stroke:#A80036;stroke-width:1.0;"/><path d="M223,156.1094 L223,166.1094 L233,166.1094 L223,156.1094 " fill="#FBFB77" style="stroke:#A80036;stroke-width:1.0;"/><text fill="#000000" font-family="sans-serif" font-size="13" lengthAdjust="spacing" textLength="76" x="142" y="173.6777">Process 3-6</text><!--MD5=[1ffa94cbbebc67494c3ef82c3cfd096c]
@startuml
skinparam sequence {
    BoxBorderColor WHITE
}
box Backend  
entity Backend.RepositoryImpl
entity Backend.JpaDao
end box
Backend.RepositoryImpl ->o Backend.JpaDao:
Note right of Backend.RepositoryImpl:Process 3-6
Backend.JpaDao o-> Backend.RepositoryImpl:
Note left of Backend.JpaDao:Process 3-6
@enduml

PlantUML version 1.2021.5(Sun Apr 25 19:20:28 CST 2021)
(GPL source distribution)
Java Runtime: OpenJDK Runtime Environment
JVM: OpenJDK 64-Bit Server VM
Default Encoding: UTF-8
Language: en
Country: CN
--></g></svg>