<?xml version="1.0" encoding="UTF-8" standalone="no"?><svg xmlns="http://www.w3.org/2000/svg" xmlns:xlink="http://www.w3.org/1999/xlink" contentScriptType="application/ecmascript" contentStyleType="text/css" height="577px" preserveAspectRatio="none" style="width:587px;height:577px;" version="1.1" viewBox="0 0 587 577" width="587px" zoomAndPan="magnify"><defs><filter height="300%" id="fxe2ttwdj2mkr" width="300%" x="-1" y="-1"><feGaussianBlur result="blurOut" stdDeviation="2.0"/><feColorMatrix in="blurOut" result="blurOut2" type="matrix" values="0 0 0 0 0 0 0 0 0 0 0 0 0 0 0 0 0 0 .4 0"/><feOffset dx="4.0" dy="4.0" in="blurOut2" result="blurOut3"/><feBlend in="SourceGraphic" in2="blurOut3" mode="normal"/></filter></defs><g><rect fill="#DDDDDD" height="565.7715" style="stroke:#FFFFFF;stroke-width:1.0;" width="270" x="1" y="6"/><text fill="#000000" font-family="sans-serif" font-size="13" font-weight="bold" lengthAdjust="spacing" textLength="29" x="121.5" y="18.5684">Web</text><rect fill="#DDDDDD" height="565.7715" style="stroke:#FFFFFF;stroke-width:1.0;" width="308" x="273" y="6"/><text fill="#000000" font-family="sans-serif" font-size="13" font-weight="bold" lengthAdjust="spacing" textLength="18" x="418" y="18.5684">Bff</text><line style="stroke:#A80036;stroke-width:1.0;stroke-dasharray:5.0,5.0;" x1="72" x2="72" y1="73.7988" y2="520.2832"/><line style="stroke:#A80036;stroke-width:1.0;stroke-dasharray:5.0,5.0;" x1="208" x2="208" y1="73.7988" y2="520.2832"/><line style="stroke:#A80036;stroke-width:1.0;stroke-dasharray:5.0,5.0;" x1="326" x2="326" y1="73.7988" y2="520.2832"/><line style="stroke:#A80036;stroke-width:1.0;stroke-dasharray:5.0,5.0;" x1="423" x2="423" y1="73.7988" y2="520.2832"/><line style="stroke:#A80036;stroke-width:1.0;stroke-dasharray:5.0,5.0;" x1="524" x2="524" y1="73.7988" y2="520.2832"/><text fill="#000000" font-family="sans-serif" font-size="14" lengthAdjust="spacing" textLength="128" x="5" y="70.8457">Web.UiComponent</text><ellipse cx="72" cy="41.3105" fill="#FEFECE" filter="url(#fxe2ttwdj2mkr)" rx="12" ry="12" style="stroke:#A80036;stroke-width:2.0;"/><line style="stroke:#A80036;stroke-width:2.0;" x1="60" x2="84" y1="55.3105" y2="55.3105"/><text fill="#000000" font-family="sans-serif" font-size="14" lengthAdjust="spacing" textLength="128" x="5" y="532.8184">Web.UiComponent</text><ellipse cx="72" cy="551.7715" fill="#FEFECE" filter="url(#fxe2ttwdj2mkr)" rx="12" ry="12" style="stroke:#A80036;stroke-width:2.0;"/><line style="stroke:#A80036;stroke-width:2.0;" x1="60" x2="84" y1="565.7715" y2="565.7715"/><text fill="#000000" font-family="sans-serif" font-size="14" lengthAdjust="spacing" textLength="112" x="149" y="70.8457">Web.AxiosClient</text><ellipse cx="208" cy="41.3105" fill="#FEFECE" filter="url(#fxe2ttwdj2mkr)" rx="12" ry="12" style="stroke:#A80036;stroke-width:2.0;"/><line style="stroke:#A80036;stroke-width:2.0;" x1="196" x2="220" y1="55.3105" y2="55.3105"/><text fill="#000000" font-family="sans-serif" font-size="14" lengthAdjust="spacing" textLength="112" x="149" y="532.8184">Web.AxiosClient</text><ellipse cx="208" cy="551.7715" fill="#FEFECE" filter="url(#fxe2ttwdj2mkr)" rx="12" ry="12" style="stroke:#A80036;stroke-width:2.0;"/><line style="stroke:#A80036;stroke-width:2.0;" x1="196" x2="220" y1="565.7715" y2="565.7715"/><text fill="#000000" font-family="sans-serif" font-size="14" lengthAdjust="spacing" textLength="92" x="277" y="70.8457">Bff.Controller</text><ellipse cx="326" cy="41.3105" fill="#FEFECE" filter="url(#fxe2ttwdj2mkr)" rx="12" ry="12" style="stroke:#A80036;stroke-width:2.0;"/><polygon fill="#A80036" points="322,29.3105,328,24.3105,326,29.3105,328,34.3105,322,29.3105" style="stroke:#A80036;stroke-width:1.0;"/><text fill="#000000" font-family="sans-serif" font-size="14" lengthAdjust="spacing" textLength="92" x="277" y="532.8184">Bff.Controller</text><ellipse cx="326" cy="551.7715" fill="#FEFECE" filter="url(#fxe2ttwdj2mkr)" rx="12" ry="12" style="stroke:#A80036;stroke-width:2.0;"/><polygon fill="#A80036" points="322,539.7715,328,534.7715,326,539.7715,328,544.7715,322,539.7715" style="stroke:#A80036;stroke-width:1.0;"/><text fill="#000000" font-family="sans-serif" font-size="14" lengthAdjust="spacing" textLength="70" x="385" y="70.8457">Bff.Service</text><ellipse cx="423" cy="41.3105" fill="#FEFECE" filter="url(#fxe2ttwdj2mkr)" rx="12" ry="12" style="stroke:#A80036;stroke-width:2.0;"/><line style="stroke:#A80036;stroke-width:2.0;" x1="411" x2="435" y1="55.3105" y2="55.3105"/><text fill="#000000" font-family="sans-serif" font-size="14" lengthAdjust="spacing" textLength="70" x="385" y="532.8184">Bff.Service</text><ellipse cx="423" cy="551.7715" fill="#FEFECE" filter="url(#fxe2ttwdj2mkr)" rx="12" ry="12" style="stroke:#A80036;stroke-width:2.0;"/><line style="stroke:#A80036;stroke-width:2.0;" x1="411" x2="435" y1="565.7715" y2="565.7715"/><text fill="#000000" font-family="sans-serif" font-size="14" lengthAdjust="spacing" textLength="100" x="471" y="70.8457">Bff.FeignClient</text><ellipse cx="524" cy="41.3105" fill="#FEFECE" filter="url(#fxe2ttwdj2mkr)" rx="12" ry="12" style="stroke:#A80036;stroke-width:2.0;"/><polygon fill="#A80036" points="520,29.3105,526,24.3105,524,29.3105,526,34.3105,520,29.3105" style="stroke:#A80036;stroke-width:1.0;"/><text fill="#000000" font-family="sans-serif" font-size="14" lengthAdjust="spacing" textLength="100" x="471" y="532.8184">Bff.FeignClient</text><ellipse cx="524" cy="551.7715" fill="#FEFECE" filter="url(#fxe2ttwdj2mkr)" rx="12" ry="12" style="stroke:#A80036;stroke-width:2.0;"/><polygon fill="#A80036" points="520,539.7715,526,534.7715,524,539.7715,526,544.7715,520,539.7715" style="stroke:#A80036;stroke-width:1.0;"/><ellipse cx="207.5" cy="89.0488" rx="4" ry="4" style="stroke:#A80036;stroke-width:1.5;fill:none;"/><polygon fill="#A80036" points="190.5,85.7988,200.5,89.7988,190.5,93.7988,194.5,89.7988" style="stroke:#A80036;stroke-width:1.0;"/><line style="stroke:#A80036;stroke-width:1.0;" x1="72" x2="196.5" y1="89.7988" y2="89.7988"/><path d="M77,102.7988 L77,127.7988 L174,127.7988 L174,112.7988 L164,102.7988 L77,102.7988 " fill="#FBFB77" filter="url(#fxe2ttwdj2mkr)" style="stroke:#A80036;stroke-width:1.0;"/><path d="M164,102.7988 L164,112.7988 L174,112.7988 L164,102.7988 " fill="#FBFB77" style="stroke:#A80036;stroke-width:1.0;"/><text fill="#000000" font-family="sans-serif" font-size="13" lengthAdjust="spacing" textLength="76" x="83" y="120.3672">Process 1-2</text><ellipse cx="325.5" cy="142.3594" rx="4" ry="4" style="stroke:#A80036;stroke-width:1.5;fill:none;"/><polygon fill="#A80036" points="308.5,139.1094,318.5,143.1094,308.5,147.1094,312.5,143.1094" style="stroke:#A80036;stroke-width:1.0;"/><line style="stroke:#A80036;stroke-width:1.0;" x1="208" x2="314.5" y1="143.1094" y2="143.1094"/><path d="M213,156.1094 L213,181.1094 L310,181.1094 L310,166.1094 L300,156.1094 L213,156.1094 " fill="#FBFB77" filter="url(#fxe2ttwdj2mkr)" style="stroke:#A80036;stroke-width:1.0;"/><path d="M300,156.1094 L300,166.1094 L310,166.1094 L300,156.1094 " fill="#FBFB77" style="stroke:#A80036;stroke-width:1.0;"/><text fill="#000000" font-family="sans-serif" font-size="13" lengthAdjust="spacing" textLength="76" x="219" y="173.6777">Process 1-3</text><ellipse cx="422.5" cy="195.6699" rx="4" ry="4" style="stroke:#A80036;stroke-width:1.5;fill:none;"/><polygon fill="#A80036" points="405.5,192.4199,415.5,196.4199,405.5,200.4199,409.5,196.4199" style="stroke:#A80036;stroke-width:1.0;"/><line style="stroke:#A80036;stroke-width:1.0;" x1="326" x2="411.5" y1="196.4199" y2="196.4199"/><path d="M331,209.4199 L331,234.4199 L428,234.4199 L428,219.4199 L418,209.4199 L331,209.4199 " fill="#FBFB77" filter="url(#fxe2ttwdj2mkr)" style="stroke:#A80036;stroke-width:1.0;"/><path d="M418,209.4199 L418,219.4199 L428,219.4199 L418,209.4199 " fill="#FBFB77" style="stroke:#A80036;stroke-width:1.0;"/><text fill="#000000" font-family="sans-serif" font-size="13" lengthAdjust="spacing" textLength="76" x="337" y="226.9883">Process 2-1</text><ellipse cx="523.5" cy="248.9805" rx="4" ry="4" style="stroke:#A80036;stroke-width:1.5;fill:none;"/><polygon fill="#A80036" points="506.5,245.7305,516.5,249.7305,506.5,253.7305,510.5,249.7305" style="stroke:#A80036;stroke-width:1.0;"/><line style="stroke:#A80036;stroke-width:1.0;" x1="423" x2="512.5" y1="249.7305" y2="249.7305"/><path d="M428,262.7305 L428,287.7305 L525,287.7305 L525,272.7305 L515,262.7305 L428,262.7305 " fill="#FBFB77" filter="url(#fxe2ttwdj2mkr)" style="stroke:#A80036;stroke-width:1.0;"/><path d="M515,262.7305 L515,272.7305 L525,272.7305 L515,262.7305 " fill="#FBFB77" style="stroke:#A80036;stroke-width:1.0;"/><text fill="#000000" font-family="sans-serif" font-size="13" lengthAdjust="spacing" textLength="76" x="434" y="280.2988">Process 2-2</text><polygon fill="#A80036" points="434,299.041,424,303.041,434,307.041,430,303.041" style="stroke:#A80036;stroke-width:1.0;"/><ellipse cx="523.5" cy="302.291" rx="4" ry="4" style="stroke:#A80036;stroke-width:1.5;fill:none;"/><line style="stroke:#A80036;stroke-width:1.0;fill:none;" x1="428" x2="519" y1="303.041" y2="303.041"/><path d="M418,316.041 L418,341.041 L515,341.041 L515,326.041 L505,316.041 L418,316.041 " fill="#FBFB77" filter="url(#fxe2ttwdj2mkr)" style="stroke:#A80036;stroke-width:1.0;"/><path d="M505,316.041 L505,326.041 L515,326.041 L505,316.041 " fill="#FBFB77" style="stroke:#A80036;stroke-width:1.0;"/><text fill="#000000" font-family="sans-serif" font-size="13" lengthAdjust="spacing" textLength="76" x="424" y="333.6094">Process 2-2</text><polygon fill="#A80036" points="337,352.3516,327,356.3516,337,360.3516,333,356.3516" style="stroke:#A80036;stroke-width:1.0;"/><ellipse cx="422.5" cy="355.6016" rx="4" ry="4" style="stroke:#A80036;stroke-width:1.5;fill:none;"/><line style="stroke:#A80036;stroke-width:1.0;fill:none;" x1="331" x2="418" y1="356.3516" y2="356.3516"/><path d="M317,369.3516 L317,394.3516 L414,394.3516 L414,379.3516 L404,369.3516 L317,369.3516 " fill="#FBFB77" filter="url(#fxe2ttwdj2mkr)" style="stroke:#A80036;stroke-width:1.0;"/><path d="M404,369.3516 L404,379.3516 L414,379.3516 L404,369.3516 " fill="#FBFB77" style="stroke:#A80036;stroke-width:1.0;"/><text fill="#000000" font-family="sans-serif" font-size="13" lengthAdjust="spacing" textLength="76" x="323" y="386.9199">Process 2-1</text><polygon fill="#A80036" points="219,405.6621,209,409.6621,219,413.6621,215,409.6621" style="stroke:#A80036;stroke-width:1.0;"/><ellipse cx="325.5" cy="408.9121" rx="4" ry="4" style="stroke:#A80036;stroke-width:1.5;fill:none;"/><line style="stroke:#A80036;stroke-width:1.0;fill:none;" x1="213" x2="321" y1="409.6621" y2="409.6621"/><path d="M220,422.6621 L220,447.6621 L317,447.6621 L317,432.6621 L307,422.6621 L220,422.6621 " fill="#FBFB77" filter="url(#fxe2ttwdj2mkr)" style="stroke:#A80036;stroke-width:1.0;"/><path d="M307,422.6621 L307,432.6621 L317,432.6621 L307,422.6621 " fill="#FBFB77" style="stroke:#A80036;stroke-width:1.0;"/><text fill="#000000" font-family="sans-serif" font-size="13" lengthAdjust="spacing" textLength="76" x="226" y="440.2305">Process 1-3</text><polygon fill="#A80036" points="83,458.9727,73,462.9727,83,466.9727,79,462.9727" style="stroke:#A80036;stroke-width:1.0;"/><ellipse cx="207.5" cy="462.2227" rx="4" ry="4" style="stroke:#A80036;stroke-width:1.5;fill:none;"/><line style="stroke:#A80036;stroke-width:1.0;fill:none;" x1="77" x2="203" y1="462.9727" y2="462.9727"/><path d="M102,475.9727 L102,500.9727 L199,500.9727 L199,485.9727 L189,475.9727 L102,475.9727 " fill="#FBFB77" filter="url(#fxe2ttwdj2mkr)" style="stroke:#A80036;stroke-width:1.0;"/><path d="M189,475.9727 L189,485.9727 L199,485.9727 L189,475.9727 " fill="#FBFB77" style="stroke:#A80036;stroke-width:1.0;"/><text fill="#000000" font-family="sans-serif" font-size="13" lengthAdjust="spacing" textLength="76" x="108" y="493.541">Process 1-2</text><!--MD5=[9cb1afd5e32f0ebb0b83e7884eb96fc8]
@startuml
skinparam sequence {
    BoxBorderColor WHITE
}
box Web  
entity Web.UiComponent
entity Web.AxiosClient
end box
box Bff  
control Bff.Controller
entity Bff.Service
control Bff.FeignClient
end box
Web.UiComponent ->o Web.AxiosClient:
Note right of Web.UiComponent:Process 1-2
Web.AxiosClient ->o Bff.Controller:
Note right of Web.AxiosClient:Process 1-3
Bff.Controller ->o Bff.Service:
Note right of Bff.Controller:Process 2-1
Bff.Service ->o Bff.FeignClient:
Note right of Bff.Service:Process 2-2
Bff.FeignClient o-> Bff.Service:
Note left of Bff.FeignClient:Process 2-2
Bff.Service o-> Bff.Controller:
Note left of Bff.Service:Process 2-1
Bff.Controller o-> Web.AxiosClient:
Note left of Bff.Controller:Process 1-3
Web.AxiosClient o-> Web.UiComponent:
Note left of Web.AxiosClient:Process 1-2
@enduml

PlantUML version 1.2021.5(Sun Apr 25 19:20:28 CST 2021)
(GPL source distribution)
Java Runtime: OpenJDK Runtime Environment
JVM: OpenJDK 64-Bit Server VM
Default Encoding: UTF-8
Language: en
Country: CN
--></g></svg>