<?xml version="1.0" encoding="UTF-8" standalone="no"?><svg xmlns="http://www.w3.org/2000/svg" xmlns:xlink="http://www.w3.org/1999/xlink" contentScriptType="application/ecmascript" contentStyleType="text/css" height="257px" preserveAspectRatio="none" style="width:306px;height:257px;" version="1.1" viewBox="0 0 306 257" width="306px" zoomAndPan="magnify"><defs><filter height="300%" id="f18ti1w3n2i5eh" width="300%" x="-1" y="-1"><feGaussianBlur result="blurOut" stdDeviation="2.0"/><feColorMatrix in="blurOut" result="blurOut2" type="matrix" values="0 0 0 0 0 0 0 0 0 0 0 0 0 0 0 0 0 0 .4 0"/><feOffset dx="4.0" dy="4.0" in="blurOut2" result="blurOut3"/><feBlend in="SourceGraphic" in2="blurOut3" mode="normal"/></filter></defs><g><rect fill="#DDDDDD" height="245.9082" style="stroke:#FFFFFF;stroke-width:1.0;" width="299" x="1" y="6"/><text fill="#000000" font-family="sans-serif" font-size="13" font-weight="bold" lengthAdjust="spacing" textLength="57" x="122" y="18.5684">Backend</text><line style="stroke:#A80036;stroke-width:1.0;stroke-dasharray:5.0,5.0;" x1="77" x2="77" y1="73.7988" y2="200.4199"/><line style="stroke:#A80036;stroke-width:1.0;stroke-dasharray:5.0,5.0;" x1="228" x2="228" y1="73.7988" y2="200.4199"/><text fill="#000000" font-family="sans-serif" font-size="14" lengthAdjust="spacing" textLength="139" x="5" y="70.8457">Backend.FeignClient</text><ellipse cx="77.5" cy="41.3105" fill="#FEFECE" filter="url(#f18ti1w3n2i5eh)" rx="12" ry="12" style="stroke:#A80036;stroke-width:2.0;"/><polygon fill="#A80036" points="73.5,29.3105,79.5,24.3105,77.5,29.3105,79.5,34.3105,73.5,29.3105" style="stroke:#A80036;stroke-width:1.0;"/><text fill="#000000" font-family="sans-serif" font-size="14" lengthAdjust="spacing" textLength="139" x="5" y="212.9551">Backend.FeignClient</text><ellipse cx="77.5" cy="231.9082" fill="#FEFECE" filter="url(#f18ti1w3n2i5eh)" rx="12" ry="12" style="stroke:#A80036;stroke-width:2.0;"/><polygon fill="#A80036" points="73.5,219.9082,79.5,214.9082,77.5,219.9082,79.5,224.9082,73.5,219.9082" style="stroke:#A80036;stroke-width:1.0;"/><text fill="#000000" font-family="sans-serif" font-size="14" lengthAdjust="spacing" textLength="130" x="160" y="70.8457">Backend.HttpClient</text><ellipse cx="228" cy="41.3105" fill="#FEFECE" filter="url(#f18ti1w3n2i5eh)" rx="12" ry="12" style="stroke:#A80036;stroke-width:2.0;"/><line style="stroke:#A80036;stroke-width:2.0;" x1="216" x2="240" y1="55.3105" y2="55.3105"/><text fill="#000000" font-family="sans-serif" font-size="14" lengthAdjust="spacing" textLength="130" x="160" y="212.9551">Backend.HttpClient</text><ellipse cx="228" cy="231.9082" fill="#FEFECE" filter="url(#f18ti1w3n2i5eh)" rx="12" ry="12" style="stroke:#A80036;stroke-width:2.0;"/><line style="stroke:#A80036;stroke-width:2.0;" x1="216" x2="240" y1="245.9082" y2="245.9082"/><ellipse cx="227.5" cy="89.0488" rx="4" ry="4" style="stroke:#A80036;stroke-width:1.5;fill:none;"/><polygon fill="#A80036" points="210.5,85.7988,220.5,89.7988,210.5,93.7988,214.5,89.7988" style="stroke:#A80036;stroke-width:1.0;"/><line style="stroke:#A80036;stroke-width:1.0;" x1="77.5" x2="216.5" y1="89.7988" y2="89.7988"/><path d="M82,102.7988 L82,127.7988 L179,127.7988 L179,112.7988 L169,102.7988 L82,102.7988 " fill="#FBFB77" filter="url(#f18ti1w3n2i5eh)" style="stroke:#A80036;stroke-width:1.0;"/><path d="M169,102.7988 L169,112.7988 L179,112.7988 L169,102.7988 " fill="#FBFB77" style="stroke:#A80036;stroke-width:1.0;"/><text fill="#000000" font-family="sans-serif" font-size="13" lengthAdjust="spacing" textLength="76" x="88" y="120.3672">Process 3-5</text><polygon fill="#A80036" points="88.5,139.1094,78.5,143.1094,88.5,147.1094,84.5,143.1094" style="stroke:#A80036;stroke-width:1.0;"/><ellipse cx="227.5" cy="142.3594" rx="4" ry="4" style="stroke:#A80036;stroke-width:1.5;fill:none;"/><line style="stroke:#A80036;stroke-width:1.0;fill:none;" x1="82.5" x2="223" y1="143.1094" y2="143.1094"/><path d="M122,156.1094 L122,181.1094 L219,181.1094 L219,166.1094 L209,156.1094 L122,156.1094 " fill="#FBFB77" filter="url(#f18ti1w3n2i5eh)" style="stroke:#A80036;stroke-width:1.0;"/><path d="M209,156.1094 L209,166.1094 L219,166.1094 L209,156.1094 " fill="#FBFB77" style="stroke:#A80036;stroke-width:1.0;"/><text fill="#000000" font-family="sans-serif" font-size="13" lengthAdjust="spacing" textLength="76" x="128" y="173.6777">Process 3-5</text><!--MD5=[bbb7ac37a3a45003278116c46db48b49]
@startuml
skinparam sequence {
    BoxBorderColor WHITE
}
box Backend  
control Backend.FeignClient
entity Backend.HttpClient
end box
Backend.FeignClient ->o Backend.HttpClient:
Note right of Backend.FeignClient:Process 3-5
Backend.HttpClient o-> Backend.FeignClient:
Note left of Backend.HttpClient:Process 3-5
@enduml

PlantUML version 1.2021.5(Sun Apr 25 19:20:28 CST 2021)
(GPL source distribution)
Java Runtime: OpenJDK Runtime Environment
JVM: OpenJDK 64-Bit Server VM
Default Encoding: UTF-8
Language: en
Country: CN
--></g></svg>