<?xml version="1.0" encoding="UTF-8" standalone="no"?><svg xmlns="http://www.w3.org/2000/svg" xmlns:xlink="http://www.w3.org/1999/xlink" contentScriptType="application/ecmascript" contentStyleType="text/css" height="257px" preserveAspectRatio="none" style="width:277px;height:257px;" version="1.1" viewBox="0 0 277 257" width="277px" zoomAndPan="magnify"><defs><filter height="300%" id="f825kppx6im8d" width="300%" x="-1" y="-1"><feGaussianBlur result="blurOut" stdDeviation="2.0"/><feColorMatrix in="blurOut" result="blurOut2" type="matrix" values="0 0 0 0 0 0 0 0 0 0 0 0 0 0 0 0 0 0 .4 0"/><feOffset dx="4.0" dy="4.0" in="blurOut2" result="blurOut3"/><feBlend in="SourceGraphic" in2="blurOut3" mode="normal"/></filter></defs><g><rect fill="#DDDDDD" height="245.9082" style="stroke:#FFFFFF;stroke-width:1.0;" width="270" x="1" y="6"/><text fill="#000000" font-family="sans-serif" font-size="13" font-weight="bold" lengthAdjust="spacing" textLength="29" x="121.5" y="18.5684">Web</text><line style="stroke:#A80036;stroke-width:1.0;stroke-dasharray:5.0,5.0;" x1="72" x2="72" y1="73.7988" y2="200.4199"/><line style="stroke:#A80036;stroke-width:1.0;stroke-dasharray:5.0,5.0;" x1="208" x2="208" y1="73.7988" y2="200.4199"/><text fill="#000000" font-family="sans-serif" font-size="14" lengthAdjust="spacing" textLength="128" x="5" y="70.8457">Web.UiComponent</text><ellipse cx="72" cy="41.3105" fill="#FEFECE" filter="url(#f825kppx6im8d)" rx="12" ry="12" style="stroke:#A80036;stroke-width:2.0;"/><line style="stroke:#A80036;stroke-width:2.0;" x1="60" x2="84" y1="55.3105" y2="55.3105"/><text fill="#000000" font-family="sans-serif" font-size="14" lengthAdjust="spacing" textLength="128" x="5" y="212.9551">Web.UiComponent</text><ellipse cx="72" cy="231.9082" fill="#FEFECE" filter="url(#f825kppx6im8d)" rx="12" ry="12" style="stroke:#A80036;stroke-width:2.0;"/><line style="stroke:#A80036;stroke-width:2.0;" x1="60" x2="84" y1="245.9082" y2="245.9082"/><text fill="#000000" font-family="sans-serif" font-size="14" lengthAdjust="spacing" textLength="112" x="149" y="70.8457">Web.AxiosClient</text><ellipse cx="208" cy="41.3105" fill="#FEFECE" filter="url(#f825kppx6im8d)" rx="12" ry="12" style="stroke:#A80036;stroke-width:2.0;"/><line style="stroke:#A80036;stroke-width:2.0;" x1="196" x2="220" y1="55.3105" y2="55.3105"/><text fill="#000000" font-family="sans-serif" font-size="14" lengthAdjust="spacing" textLength="112" x="149" y="212.9551">Web.AxiosClient</text><ellipse cx="208" cy="231.9082" fill="#FEFECE" filter="url(#f825kppx6im8d)" rx="12" ry="12" style="stroke:#A80036;stroke-width:2.0;"/><line style="stroke:#A80036;stroke-width:2.0;" x1="196" x2="220" y1="245.9082" y2="245.9082"/><ellipse cx="207.5" cy="89.0488" rx="4" ry="4" style="stroke:#A80036;stroke-width:1.5;fill:none;"/><polygon fill="#A80036" points="190.5,85.7988,200.5,89.7988,190.5,93.7988,194.5,89.7988" style="stroke:#A80036;stroke-width:1.0;"/><line style="stroke:#A80036;stroke-width:1.0;" x1="72" x2="196.5" y1="89.7988" y2="89.7988"/><path d="M77,102.7988 L77,127.7988 L174,127.7988 L174,112.7988 L164,102.7988 L77,102.7988 " fill="#FBFB77" filter="url(#f825kppx6im8d)" style="stroke:#A80036;stroke-width:1.0;"/><path d="M164,102.7988 L164,112.7988 L174,112.7988 L164,102.7988 " fill="#FBFB77" style="stroke:#A80036;stroke-width:1.0;"/><text fill="#000000" font-family="sans-serif" font-size="13" lengthAdjust="spacing" textLength="76" x="83" y="120.3672">Process 1-2</text><polygon fill="#A80036" points="83,139.1094,73,143.1094,83,147.1094,79,143.1094" style="stroke:#A80036;stroke-width:1.0;"/><ellipse cx="207.5" cy="142.3594" rx="4" ry="4" style="stroke:#A80036;stroke-width:1.5;fill:none;"/><line style="stroke:#A80036;stroke-width:1.0;fill:none;" x1="77" x2="203" y1="143.1094" y2="143.1094"/><path d="M102,156.1094 L102,181.1094 L199,181.1094 L199,166.1094 L189,156.1094 L102,156.1094 " fill="#FBFB77" filter="url(#f825kppx6im8d)" style="stroke:#A80036;stroke-width:1.0;"/><path d="M189,156.1094 L189,166.1094 L199,166.1094 L189,156.1094 " fill="#FBFB77" style="stroke:#A80036;stroke-width:1.0;"/><text fill="#000000" font-family="sans-serif" font-size="13" lengthAdjust="spacing" textLength="76" x="108" y="173.6777">Process 1-2</text><!--MD5=[006ec9a3f91f9d962a2d2f22cbdf6d15]
@startuml
skinparam sequence {
    BoxBorderColor WHITE
}
box Web  
entity Web.UiComponent
entity Web.AxiosClient
end box
Web.UiComponent ->o Web.AxiosClient:
Note right of Web.UiComponent:Process 1-2
Web.AxiosClient o-> Web.UiComponent:
Note left of Web.AxiosClient:Process 1-2
@enduml

PlantUML version 1.2021.5(Sun Apr 25 19:20:28 CST 2021)
(GPL source distribution)
Java Runtime: OpenJDK Runtime Environment
JVM: OpenJDK 64-Bit Server VM
Default Encoding: UTF-8
Language: en
Country: CN
--></g></svg>