<?xml version="1.0" encoding="UTF-8" standalone="no"?><svg xmlns="http://www.w3.org/2000/svg" xmlns:xlink="http://www.w3.org/1999/xlink" contentScriptType="application/ecmascript" contentStyleType="text/css" height="471px" preserveAspectRatio="none" style="width:742px;height:471px;" version="1.1" viewBox="0 0 742 471" width="742px" zoomAndPan="magnify"><defs><filter height="300%" id="fqg2rctqxyd8z" width="300%" x="-1" y="-1"><feGaussianBlur result="blurOut" stdDeviation="2.0"/><feColorMatrix in="blurOut" result="blurOut2" type="matrix" values="0 0 0 0 0 0 0 0 0 0 0 0 0 0 0 0 0 0 .4 0"/><feOffset dx="4.0" dy="4.0" in="blurOut2" result="blurOut3"/><feBlend in="SourceGraphic" in2="blurOut3" mode="normal"/></filter></defs><g><rect fill="#DDDDDD" height="459.1504" style="stroke:#FFFFFF;stroke-width:1.0;" width="735" x="1" y="6"/><text fill="#000000" font-family="sans-serif" font-size="13" font-weight="bold" lengthAdjust="spacing" textLength="112" x="312.5" y="18.5684">MerchantService</text><line style="stroke:#A80036;stroke-width:1.0;stroke-dasharray:5.0,5.0;" x1="101" x2="101" y1="73.7988" y2="413.6621"/><line style="stroke:#A80036;stroke-width:1.0;stroke-dasharray:5.0,5.0;" x1="292" x2="292" y1="73.7988" y2="413.6621"/><line style="stroke:#A80036;stroke-width:1.0;stroke-dasharray:5.0,5.0;" x1="484" x2="484" y1="73.7988" y2="413.6621"/><line style="stroke:#A80036;stroke-width:1.0;stroke-dasharray:5.0,5.0;" x1="662" x2="662" y1="73.7988" y2="413.6621"/><text fill="#000000" font-family="sans-serif" font-size="14" lengthAdjust="spacing" textLength="186" x="5" y="70.8457">MerchantService.Controller</text><ellipse cx="101" cy="41.3105" fill="#FEFECE" filter="url(#fqg2rctqxyd8z)" rx="12" ry="12" style="stroke:#A80036;stroke-width:2.0;"/><line style="stroke:#A80036;stroke-width:2.0;" x1="89" x2="113" y1="55.3105" y2="55.3105"/><text fill="#000000" font-family="sans-serif" font-size="14" lengthAdjust="spacing" textLength="186" x="5" y="426.1973">MerchantService.Controller</text><ellipse cx="101" cy="445.1504" fill="#FEFECE" filter="url(#fqg2rctqxyd8z)" rx="12" ry="12" style="stroke:#A80036;stroke-width:2.0;"/><line style="stroke:#A80036;stroke-width:2.0;" x1="89" x2="113" y1="459.1504" y2="459.1504"/><text fill="#000000" font-family="sans-serif" font-size="14" lengthAdjust="spacing" textLength="164" x="207" y="70.8457">MerchantService.Service</text><ellipse cx="292" cy="41.3105" fill="#FEFECE" filter="url(#fqg2rctqxyd8z)" rx="12" ry="12" style="stroke:#A80036;stroke-width:2.0;"/><line style="stroke:#A80036;stroke-width:2.0;" x1="280" x2="304" y1="55.3105" y2="55.3105"/><text fill="#000000" font-family="sans-serif" font-size="14" lengthAdjust="spacing" textLength="164" x="207" y="426.1973">MerchantService.Service</text><ellipse cx="292" cy="445.1504" fill="#FEFECE" filter="url(#fqg2rctqxyd8z)" rx="12" ry="12" style="stroke:#A80036;stroke-width:2.0;"/><line style="stroke:#A80036;stroke-width:2.0;" x1="280" x2="304" y1="459.1504" y2="459.1504"/><text fill="#000000" font-family="sans-serif" font-size="14" lengthAdjust="spacing" textLength="189" x="387" y="70.8457">MerchantService.Repository</text><ellipse cx="484.5" cy="41.3105" fill="#FEFECE" filter="url(#fqg2rctqxyd8z)" rx="12" ry="12" style="stroke:#A80036;stroke-width:2.0;"/><line style="stroke:#A80036;stroke-width:2.0;" x1="472.5" x2="496.5" y1="55.3105" y2="55.3105"/><text fill="#000000" font-family="sans-serif" font-size="14" lengthAdjust="spacing" textLength="189" x="387" y="426.1973">MerchantService.Repository</text><ellipse cx="484.5" cy="445.1504" fill="#FEFECE" filter="url(#fqg2rctqxyd8z)" rx="12" ry="12" style="stroke:#A80036;stroke-width:2.0;"/><line style="stroke:#A80036;stroke-width:2.0;" x1="472.5" x2="496.5" y1="459.1504" y2="459.1504"/><text fill="#000000" font-family="sans-serif" font-size="14" lengthAdjust="spacing" textLength="134" x="592" y="70.8457">MerchantService.DB</text><ellipse cx="662" cy="41.3105" fill="#FEFECE" filter="url(#fqg2rctqxyd8z)" rx="12" ry="12" style="stroke:#A80036;stroke-width:2.0;"/><line style="stroke:#A80036;stroke-width:2.0;" x1="650" x2="674" y1="55.3105" y2="55.3105"/><text fill="#000000" font-family="sans-serif" font-size="14" lengthAdjust="spacing" textLength="134" x="592" y="426.1973">MerchantService.DB</text><ellipse cx="662" cy="445.1504" fill="#FEFECE" filter="url(#fqg2rctqxyd8z)" rx="12" ry="12" style="stroke:#A80036;stroke-width:2.0;"/><line style="stroke:#A80036;stroke-width:2.0;" x1="650" x2="674" y1="459.1504" y2="459.1504"/><ellipse cx="291.5" cy="89.0488" rx="4" ry="4" style="stroke:#A80036;stroke-width:1.5;fill:none;"/><polygon fill="#A80036" points="274.5,85.7988,284.5,89.7988,274.5,93.7988,278.5,89.7988" style="stroke:#A80036;stroke-width:1.0;"/><line style="stroke:#A80036;stroke-width:1.0;" x1="101" x2="280.5" y1="89.7988" y2="89.7988"/><path d="M106,102.7988 L106,127.7988 L181,127.7988 L181,112.7988 L171,102.7988 L106,102.7988 " fill="#FBFB77" filter="url(#fqg2rctqxyd8z)" style="stroke:#A80036;stroke-width:1.0;"/><path d="M171,102.7988 L171,112.7988 L181,112.7988 L171,102.7988 " fill="#FBFB77" style="stroke:#A80036;stroke-width:1.0;"/><text fill="#000000" font-family="sans-serif" font-size="13" lengthAdjust="spacing" textLength="54" x="112" y="120.3672">工序 1-1</text><ellipse cx="484" cy="142.3594" rx="4" ry="4" style="stroke:#A80036;stroke-width:1.5;fill:none;"/><polygon fill="#A80036" points="467,139.1094,477,143.1094,467,147.1094,471,143.1094" style="stroke:#A80036;stroke-width:1.0;"/><line style="stroke:#A80036;stroke-width:1.0;" x1="292" x2="473" y1="143.1094" y2="143.1094"/><path d="M297,156.1094 L297,181.1094 L372,181.1094 L372,166.1094 L362,156.1094 L297,156.1094 " fill="#FBFB77" filter="url(#fqg2rctqxyd8z)" style="stroke:#A80036;stroke-width:1.0;"/><path d="M362,156.1094 L362,166.1094 L372,166.1094 L362,156.1094 " fill="#FBFB77" style="stroke:#A80036;stroke-width:1.0;"/><text fill="#000000" font-family="sans-serif" font-size="13" lengthAdjust="spacing" textLength="54" x="303" y="173.6777">工序 1-3</text><ellipse cx="661.5" cy="195.6699" rx="4" ry="4" style="stroke:#A80036;stroke-width:1.5;fill:none;"/><polygon fill="#A80036" points="644.5,192.4199,654.5,196.4199,644.5,200.4199,648.5,196.4199" style="stroke:#A80036;stroke-width:1.0;"/><line style="stroke:#A80036;stroke-width:1.0;" x1="484.5" x2="650.5" y1="196.4199" y2="196.4199"/><path d="M489,209.4199 L489,234.4199 L564,234.4199 L564,219.4199 L554,209.4199 L489,209.4199 " fill="#FBFB77" filter="url(#fqg2rctqxyd8z)" style="stroke:#A80036;stroke-width:1.0;"/><path d="M554,209.4199 L554,219.4199 L564,219.4199 L554,209.4199 " fill="#FBFB77" style="stroke:#A80036;stroke-width:1.0;"/><text fill="#000000" font-family="sans-serif" font-size="13" lengthAdjust="spacing" textLength="54" x="495" y="226.9883">工序 1-6</text><polygon fill="#A80036" points="495.5,245.7305,485.5,249.7305,495.5,253.7305,491.5,249.7305" style="stroke:#A80036;stroke-width:1.0;"/><ellipse cx="661.5" cy="248.9805" rx="4" ry="4" style="stroke:#A80036;stroke-width:1.5;fill:none;"/><line style="stroke:#A80036;stroke-width:1.0;fill:none;" x1="489.5" x2="657" y1="249.7305" y2="249.7305"/><path d="M578,262.7305 L578,287.7305 L653,287.7305 L653,272.7305 L643,262.7305 L578,262.7305 " fill="#FBFB77" filter="url(#fqg2rctqxyd8z)" style="stroke:#A80036;stroke-width:1.0;"/><path d="M643,262.7305 L643,272.7305 L653,272.7305 L643,262.7305 " fill="#FBFB77" style="stroke:#A80036;stroke-width:1.0;"/><text fill="#000000" font-family="sans-serif" font-size="13" lengthAdjust="spacing" textLength="54" x="584" y="280.2988">工序 1-6</text><polygon fill="#A80036" points="303,299.041,293,303.041,303,307.041,299,303.041" style="stroke:#A80036;stroke-width:1.0;"/><ellipse cx="484" cy="302.291" rx="4" ry="4" style="stroke:#A80036;stroke-width:1.5;fill:none;"/><line style="stroke:#A80036;stroke-width:1.0;fill:none;" x1="297" x2="479.5" y1="303.041" y2="303.041"/><path d="M400,316.041 L400,341.041 L475,341.041 L475,326.041 L465,316.041 L400,316.041 " fill="#FBFB77" filter="url(#fqg2rctqxyd8z)" style="stroke:#A80036;stroke-width:1.0;"/><path d="M465,316.041 L465,326.041 L475,326.041 L465,316.041 " fill="#FBFB77" style="stroke:#A80036;stroke-width:1.0;"/><text fill="#000000" font-family="sans-serif" font-size="13" lengthAdjust="spacing" textLength="54" x="406" y="333.6094">工序 1-3</text><polygon fill="#A80036" points="112,352.3516,102,356.3516,112,360.3516,108,356.3516" style="stroke:#A80036;stroke-width:1.0;"/><ellipse cx="291.5" cy="355.6016" rx="4" ry="4" style="stroke:#A80036;stroke-width:1.5;fill:none;"/><line style="stroke:#A80036;stroke-width:1.0;fill:none;" x1="106" x2="287" y1="356.3516" y2="356.3516"/><path d="M208,369.3516 L208,394.3516 L283,394.3516 L283,379.3516 L273,369.3516 L208,369.3516 " fill="#FBFB77" filter="url(#fqg2rctqxyd8z)" style="stroke:#A80036;stroke-width:1.0;"/><path d="M273,369.3516 L273,379.3516 L283,379.3516 L273,369.3516 " fill="#FBFB77" style="stroke:#A80036;stroke-width:1.0;"/><text fill="#000000" font-family="sans-serif" font-size="13" lengthAdjust="spacing" textLength="54" x="214" y="386.9199">工序 1-1</text><!--MD5=[1dabca0573ae45edba97b4e00d8c9dd9]
@startuml
skinparam sequence {
    BoxBorderColor WHITE
}
box MerchantService  
entity MerchantService.Controller
entity MerchantService.Service
entity MerchantService.Repository
entity MerchantService.DB
end box
MerchantService.Controller ->o MerchantService.Service:
Note right of MerchantService.Controller:工序 1-1
MerchantService.Service ->o MerchantService.Repository:
Note right of MerchantService.Service:工序 1-3
MerchantService.Repository ->o MerchantService.DB:
Note right of MerchantService.Repository:工序 1-6
MerchantService.Repository <-o MerchantService.DB:
Note left of MerchantService.DB:工序 1-6
MerchantService.Service <-o MerchantService.Repository:
Note left of MerchantService.Repository:工序 1-3
MerchantService.Controller <-o MerchantService.Service:
Note left of MerchantService.Service:工序 1-1
@enduml

PlantUML version 1.2021.5(Sun Apr 25 19:20:28 CST 2021)
(GPL source distribution)
Java Runtime: OpenJDK Runtime Environment
JVM: OpenJDK 64-Bit Server VM
Default Encoding: UTF-8
Language: en
Country: CN
--></g></svg>