<?xml version="1.0" encoding="UTF-8" standalone="no"?><svg xmlns="http://www.w3.org/2000/svg" xmlns:xlink="http://www.w3.org/1999/xlink" contentScriptType="application/ecmascript" contentStyleType="text/css" height="257px" preserveAspectRatio="none" style="width:430px;height:257px;" version="1.1" viewBox="0 0 430 257" width="430px" zoomAndPan="magnify"><defs><filter height="300%" id="fk4d5bs7tybd2" width="300%" x="-1" y="-1"><feGaussianBlur result="blurOut" stdDeviation="2.0"/><feColorMatrix in="blurOut" result="blurOut2" type="matrix" values="0 0 0 0 0 0 0 0 0 0 0 0 0 0 0 0 0 0 .4 0"/><feOffset dx="4.0" dy="4.0" in="blurOut2" result="blurOut3"/><feBlend in="SourceGraphic" in2="blurOut3" mode="normal"/></filter></defs><g><rect fill="#DDDDDD" height="245.9082" style="stroke:#FFFFFF;stroke-width:1.0;" width="423" x="1" y="6"/><text fill="#000000" font-family="sans-serif" font-size="13" font-weight="bold" lengthAdjust="spacing" textLength="112" x="156.5" y="18.5684">MerchantService</text><line style="stroke:#A80036;stroke-width:1.0;stroke-dasharray:5.0,5.0;" x1="90" x2="90" y1="73.7988" y2="200.4199"/><line style="stroke:#A80036;stroke-width:1.0;stroke-dasharray:5.0,5.0;" x1="302" x2="302" y1="73.7988" y2="200.4199"/><text fill="#000000" font-family="sans-serif" font-size="14" lengthAdjust="spacing" textLength="164" x="5" y="70.8457">MerchantService.Service</text><ellipse cx="90" cy="41.3105" fill="#FEFECE" filter="url(#fk4d5bs7tybd2)" rx="12" ry="12" style="stroke:#A80036;stroke-width:2.0;"/><line style="stroke:#A80036;stroke-width:2.0;" x1="78" x2="102" y1="55.3105" y2="55.3105"/><text fill="#000000" font-family="sans-serif" font-size="14" lengthAdjust="spacing" textLength="164" x="5" y="212.9551">MerchantService.Service</text><ellipse cx="90" cy="231.9082" fill="#FEFECE" filter="url(#fk4d5bs7tybd2)" rx="12" ry="12" style="stroke:#A80036;stroke-width:2.0;"/><line style="stroke:#A80036;stroke-width:2.0;" x1="78" x2="102" y1="245.9082" y2="245.9082"/><text fill="#000000" font-family="sans-serif" font-size="14" lengthAdjust="spacing" textLength="229" x="185" y="70.8457">MerchantService.RepositoryClient</text><ellipse cx="302.5" cy="41.3105" fill="#FEFECE" filter="url(#fk4d5bs7tybd2)" rx="12" ry="12" style="stroke:#A80036;stroke-width:2.0;"/><line style="stroke:#A80036;stroke-width:2.0;" x1="290.5" x2="314.5" y1="55.3105" y2="55.3105"/><text fill="#000000" font-family="sans-serif" font-size="14" lengthAdjust="spacing" textLength="229" x="185" y="212.9551">MerchantService.RepositoryClient</text><ellipse cx="302.5" cy="231.9082" fill="#FEFECE" filter="url(#fk4d5bs7tybd2)" rx="12" ry="12" style="stroke:#A80036;stroke-width:2.0;"/><line style="stroke:#A80036;stroke-width:2.0;" x1="290.5" x2="314.5" y1="245.9082" y2="245.9082"/><ellipse cx="302" cy="89.0488" rx="4" ry="4" style="stroke:#A80036;stroke-width:1.5;fill:none;"/><polygon fill="#A80036" points="285,85.7988,295,89.7988,285,93.7988,289,89.7988" style="stroke:#A80036;stroke-width:1.0;"/><line style="stroke:#A80036;stroke-width:1.0;" x1="90" x2="291" y1="89.7988" y2="89.7988"/><path d="M95,102.7988 L95,127.7988 L170,127.7988 L170,112.7988 L160,102.7988 L95,102.7988 " fill="#FBFB77" filter="url(#fk4d5bs7tybd2)" style="stroke:#A80036;stroke-width:1.0;"/><path d="M160,102.7988 L160,112.7988 L170,112.7988 L160,102.7988 " fill="#FBFB77" style="stroke:#A80036;stroke-width:1.0;"/><text fill="#000000" font-family="sans-serif" font-size="13" lengthAdjust="spacing" textLength="54" x="101" y="120.3672">工序 1-2</text><polygon fill="#A80036" points="101,139.1094,91,143.1094,101,147.1094,97,143.1094" style="stroke:#A80036;stroke-width:1.0;"/><ellipse cx="302" cy="142.3594" rx="4" ry="4" style="stroke:#A80036;stroke-width:1.5;fill:none;"/><line style="stroke:#A80036;stroke-width:1.0;fill:none;" x1="95" x2="297.5" y1="143.1094" y2="143.1094"/><path d="M218,156.1094 L218,181.1094 L293,181.1094 L293,166.1094 L283,156.1094 L218,156.1094 " fill="#FBFB77" filter="url(#fk4d5bs7tybd2)" style="stroke:#A80036;stroke-width:1.0;"/><path d="M283,156.1094 L283,166.1094 L293,166.1094 L283,156.1094 " fill="#FBFB77" style="stroke:#A80036;stroke-width:1.0;"/><text fill="#000000" font-family="sans-serif" font-size="13" lengthAdjust="spacing" textLength="54" x="224" y="173.6777">工序 1-2</text><!--MD5=[e9d700bb407f255df60c6edd1817998e]
@startuml
skinparam sequence {
    BoxBorderColor WHITE
}
box MerchantService  
entity MerchantService.Service
entity MerchantService.RepositoryClient
end box
MerchantService.Service ->o MerchantService.RepositoryClient:
Note right of MerchantService.Service:工序 1-2
MerchantService.Service <-o MerchantService.RepositoryClient:
Note left of MerchantService.RepositoryClient:工序 1-2
@enduml

PlantUML version 1.2021.5(Sun Apr 25 19:20:28 CST 2021)
(GPL source distribution)
Java Runtime: OpenJDK Runtime Environment
JVM: OpenJDK 64-Bit Server VM
Default Encoding: UTF-8
Language: en
Country: CN
--></g></svg>