<?xml version="1.0" encoding="UTF-8" standalone="no"?><svg xmlns="http://www.w3.org/2000/svg" xmlns:xlink="http://www.w3.org/1999/xlink" contentScriptType="application/ecmascript" contentStyleType="text/css" height="471px" preserveAspectRatio="none" style="width:993px;height:471px;" version="1.1" viewBox="0 0 993 471" width="993px" zoomAndPan="magnify"><defs><filter height="300%" id="f1q3tkhgwtddm0" width="300%" x="-1" y="-1"><feGaussianBlur result="blurOut" stdDeviation="2.0"/><feColorMatrix in="blurOut" result="blurOut2" type="matrix" values="0 0 0 0 0 0 0 0 0 0 0 0 0 0 0 0 0 0 .4 0"/><feOffset dx="4.0" dy="4.0" in="blurOut2" result="blurOut3"/><feBlend in="SourceGraphic" in2="blurOut3" mode="normal"/></filter></defs><g><rect fill="#DDDDDD" height="459.1504" style="stroke:#FFFFFF;stroke-width:1.0;" width="773" x="1" y="6"/><text fill="#000000" font-family="sans-serif" font-size="13" font-weight="bold" lengthAdjust="spacing" textLength="175" x="300" y="18.5684">PopularizationApplication</text><rect fill="#DDDDDD" height="459.1504" style="stroke:#FFFFFF;stroke-width:1.0;" width="211" x="776" y="6"/><text fill="#000000" font-family="sans-serif" font-size="13" font-weight="bold" lengthAdjust="spacing" textLength="100" x="831.5" y="18.5684">PrepaidService</text><line style="stroke:#A80036;stroke-width:1.0;stroke-dasharray:5.0,5.0;" x1="145" x2="145" y1="73.7988" y2="413.6621"/><line style="stroke:#A80036;stroke-width:1.0;stroke-dasharray:5.0,5.0;" x1="414" x2="414" y1="73.7988" y2="413.6621"/><line style="stroke:#A80036;stroke-width:1.0;stroke-dasharray:5.0,5.0;" x1="656" x2="656" y1="73.7988" y2="413.6621"/><line style="stroke:#A80036;stroke-width:1.0;stroke-dasharray:5.0,5.0;" x1="881" x2="881" y1="73.7988" y2="413.6621"/><text fill="#000000" font-family="sans-serif" font-size="14" lengthAdjust="spacing" textLength="275" x="5" y="70.8457">PopularizationApplication.ApiController</text><ellipse cx="145.5" cy="41.3105" fill="#FEFECE" filter="url(#f1q3tkhgwtddm0)" rx="12" ry="12" style="stroke:#A80036;stroke-width:2.0;"/><line style="stroke:#A80036;stroke-width:2.0;" x1="133.5" x2="157.5" y1="55.3105" y2="55.3105"/><text fill="#000000" font-family="sans-serif" font-size="14" lengthAdjust="spacing" textLength="275" x="5" y="426.1973">PopularizationApplication.ApiController</text><ellipse cx="145.5" cy="445.1504" fill="#FEFECE" filter="url(#f1q3tkhgwtddm0)" rx="12" ry="12" style="stroke:#A80036;stroke-width:2.0;"/><line style="stroke:#A80036;stroke-width:2.0;" x1="133.5" x2="157.5" y1="459.1504" y2="459.1504"/><text fill="#000000" font-family="sans-serif" font-size="14" lengthAdjust="spacing" textLength="230" x="296" y="70.8457">PopularizationApplication.Service</text><ellipse cx="414" cy="41.3105" fill="#FEFECE" filter="url(#f1q3tkhgwtddm0)" rx="12" ry="12" style="stroke:#A80036;stroke-width:2.0;"/><line style="stroke:#A80036;stroke-width:2.0;" x1="402" x2="426" y1="55.3105" y2="55.3105"/><text fill="#000000" font-family="sans-serif" font-size="14" lengthAdjust="spacing" textLength="230" x="296" y="426.1973">PopularizationApplication.Service</text><ellipse cx="414" cy="445.1504" fill="#FEFECE" filter="url(#f1q3tkhgwtddm0)" rx="12" ry="12" style="stroke:#A80036;stroke-width:2.0;"/><line style="stroke:#A80036;stroke-width:2.0;" x1="402" x2="426" y1="459.1504" y2="459.1504"/><text fill="#000000" font-family="sans-serif" font-size="14" lengthAdjust="spacing" textLength="222" x="542" y="70.8457">PopularizationApplication.Client</text><ellipse cx="656" cy="41.3105" fill="#FEFECE" filter="url(#f1q3tkhgwtddm0)" rx="12" ry="12" style="stroke:#A80036;stroke-width:2.0;"/><line style="stroke:#A80036;stroke-width:2.0;" x1="644" x2="668" y1="55.3105" y2="55.3105"/><text fill="#000000" font-family="sans-serif" font-size="14" lengthAdjust="spacing" textLength="222" x="542" y="426.1973">PopularizationApplication.Client</text><ellipse cx="656" cy="445.1504" fill="#FEFECE" filter="url(#f1q3tkhgwtddm0)" rx="12" ry="12" style="stroke:#A80036;stroke-width:2.0;"/><line style="stroke:#A80036;stroke-width:2.0;" x1="644" x2="668" y1="459.1504" y2="459.1504"/><text fill="#000000" font-family="sans-serif" font-size="14" lengthAdjust="spacing" textLength="197" x="780" y="70.8457">PrepaidService.ApiController</text><ellipse cx="881.5" cy="41.3105" fill="#FEFECE" filter="url(#f1q3tkhgwtddm0)" rx="12" ry="12" style="stroke:#A80036;stroke-width:2.0;"/><line style="stroke:#A80036;stroke-width:2.0;" x1="869.5" x2="893.5" y1="55.3105" y2="55.3105"/><text fill="#000000" font-family="sans-serif" font-size="14" lengthAdjust="spacing" textLength="197" x="780" y="426.1973">PrepaidService.ApiController</text><ellipse cx="881.5" cy="445.1504" fill="#FEFECE" filter="url(#f1q3tkhgwtddm0)" rx="12" ry="12" style="stroke:#A80036;stroke-width:2.0;"/><line style="stroke:#A80036;stroke-width:2.0;" x1="869.5" x2="893.5" y1="459.1504" y2="459.1504"/><ellipse cx="413.5" cy="89.0488" rx="4" ry="4" style="stroke:#A80036;stroke-width:1.5;fill:none;"/><polygon fill="#A80036" points="396.5,85.7988,406.5,89.7988,396.5,93.7988,400.5,89.7988" style="stroke:#A80036;stroke-width:1.0;"/><line style="stroke:#A80036;stroke-width:1.0;" x1="145.5" x2="402.5" y1="89.7988" y2="89.7988"/><path d="M150,102.7988 L150,127.7988 L255,127.7988 L255,112.7988 L245,102.7988 L150,102.7988 " fill="#FBFB77" filter="url(#f1q3tkhgwtddm0)" style="stroke:#A80036;stroke-width:1.0;"/><path d="M245,102.7988 L245,112.7988 L255,112.7988 L245,102.7988 " fill="#FBFB77" style="stroke:#A80036;stroke-width:1.0;"/><text fill="#000000" font-family="sans-serif" font-size="13" lengthAdjust="spacing" textLength="84" x="156" y="120.3672">Process 32-2</text><ellipse cx="655.5" cy="142.3594" rx="4" ry="4" style="stroke:#A80036;stroke-width:1.5;fill:none;"/><polygon fill="#A80036" points="638.5,139.1094,648.5,143.1094,638.5,147.1094,642.5,143.1094" style="stroke:#A80036;stroke-width:1.0;"/><line style="stroke:#A80036;stroke-width:1.0;" x1="414" x2="644.5" y1="143.1094" y2="143.1094"/><path d="M419,156.1094 L419,181.1094 L524,181.1094 L524,166.1094 L514,156.1094 L419,156.1094 " fill="#FBFB77" filter="url(#f1q3tkhgwtddm0)" style="stroke:#A80036;stroke-width:1.0;"/><path d="M514,156.1094 L514,166.1094 L524,166.1094 L514,156.1094 " fill="#FBFB77" style="stroke:#A80036;stroke-width:1.0;"/><text fill="#000000" font-family="sans-serif" font-size="13" lengthAdjust="spacing" textLength="84" x="425" y="173.6777">Process 32-4</text><ellipse cx="881" cy="195.6699" rx="4" ry="4" style="stroke:#A80036;stroke-width:1.5;fill:none;"/><polygon fill="#A80036" points="864,192.4199,874,196.4199,864,200.4199,868,196.4199" style="stroke:#A80036;stroke-width:1.0;"/><line style="stroke:#A80036;stroke-width:1.0;" x1="656" x2="870" y1="196.4199" y2="196.4199"/><path d="M661,209.4199 L661,234.4199 L766,234.4199 L766,219.4199 L756,209.4199 L661,209.4199 " fill="#FBFB77" filter="url(#f1q3tkhgwtddm0)" style="stroke:#A80036;stroke-width:1.0;"/><path d="M756,209.4199 L756,219.4199 L766,219.4199 L756,209.4199 " fill="#FBFB77" style="stroke:#A80036;stroke-width:1.0;"/><text fill="#000000" font-family="sans-serif" font-size="13" lengthAdjust="spacing" textLength="84" x="667" y="226.9883">Process 32-6</text><polygon fill="#A80036" points="667,245.7305,657,249.7305,667,253.7305,663,249.7305" style="stroke:#A80036;stroke-width:1.0;"/><line style="stroke:#A80036;stroke-width:2.0;" x1="863.5" x2="873.5" y1="244.7305" y2="254.7305"/><line style="stroke:#A80036;stroke-width:2.0;" x1="863.5" x2="873.5" y1="254.7305" y2="244.7305"/><line style="stroke:#A80036;stroke-width:1.0;" x1="661" x2="868.5" y1="249.7305" y2="249.7305"/><path d="M767,262.7305 L767,287.7305 L872,287.7305 L872,272.7305 L862,262.7305 L767,262.7305 " fill="#FBFB77" filter="url(#f1q3tkhgwtddm0)" style="stroke:#A80036;stroke-width:1.0;"/><path d="M862,262.7305 L862,272.7305 L872,272.7305 L862,262.7305 " fill="#FBFB77" style="stroke:#A80036;stroke-width:1.0;"/><text fill="#000000" font-family="sans-serif" font-size="13" lengthAdjust="spacing" textLength="84" x="773" y="280.2988">Process 32-6</text><polygon fill="#A80036" points="425,299.041,415,303.041,425,307.041,421,303.041" style="stroke:#A80036;stroke-width:1.0;"/><ellipse cx="655.5" cy="302.291" rx="4" ry="4" style="stroke:#A80036;stroke-width:1.5;fill:none;"/><line style="stroke:#A80036;stroke-width:1.0;fill:none;" x1="419" x2="651" y1="303.041" y2="303.041"/><path d="M542,316.041 L542,341.041 L647,341.041 L647,326.041 L637,316.041 L542,316.041 " fill="#FBFB77" filter="url(#f1q3tkhgwtddm0)" style="stroke:#A80036;stroke-width:1.0;"/><path d="M637,316.041 L637,326.041 L647,326.041 L637,316.041 " fill="#FBFB77" style="stroke:#A80036;stroke-width:1.0;"/><text fill="#000000" font-family="sans-serif" font-size="13" lengthAdjust="spacing" textLength="84" x="548" y="333.6094">Process 32-4</text><polygon fill="#A80036" points="156.5,352.3516,146.5,356.3516,156.5,360.3516,152.5,356.3516" style="stroke:#A80036;stroke-width:1.0;"/><ellipse cx="413.5" cy="355.6016" rx="4" ry="4" style="stroke:#A80036;stroke-width:1.5;fill:none;"/><line style="stroke:#A80036;stroke-width:1.0;fill:none;" x1="150.5" x2="409" y1="356.3516" y2="356.3516"/><path d="M300,369.3516 L300,394.3516 L405,394.3516 L405,379.3516 L395,369.3516 L300,369.3516 " fill="#FBFB77" filter="url(#f1q3tkhgwtddm0)" style="stroke:#A80036;stroke-width:1.0;"/><path d="M395,369.3516 L395,379.3516 L405,379.3516 L395,369.3516 " fill="#FBFB77" style="stroke:#A80036;stroke-width:1.0;"/><text fill="#000000" font-family="sans-serif" font-size="13" lengthAdjust="spacing" textLength="84" x="306" y="386.9199">Process 32-2</text><!--MD5=[8f86c13e9c8e9b542b7ab12d6e57de44]
@startuml
skinparam sequence {
    BoxBorderColor WHITE
}
box PopularizationApplication  
entity PopularizationApplication.ApiController
entity PopularizationApplication.Service
entity PopularizationApplication.Client
end box
box PrepaidService  
entity PrepaidService.ApiController
end box
PopularizationApplication.ApiController ->o PopularizationApplication.Service:
Note right of PopularizationApplication.ApiController:Process 32-2
PopularizationApplication.Service ->o PopularizationApplication.Client:
Note right of PopularizationApplication.Service:Process 32-4
PopularizationApplication.Client ->o PrepaidService.ApiController:
Note right of PopularizationApplication.Client:Process 32-6
PrepaidService.ApiController x-> PopularizationApplication.Client:
Note left of PrepaidService.ApiController:Process 32-6
PopularizationApplication.Client o-> PopularizationApplication.Service:
Note left of PopularizationApplication.Client:Process 32-4
PopularizationApplication.Service o-> PopularizationApplication.ApiController:
Note left of PopularizationApplication.Service:Process 32-2
@enduml

PlantUML version 1.2021.5(Sun Apr 25 19:20:28 CST 2021)
(GPL source distribution)
Java Runtime: OpenJDK Runtime Environment
JVM: OpenJDK 64-Bit Server VM
Default Encoding: UTF-8
Language: en
Country: CN
--></g></svg>