<?xml version="1.0" encoding="UTF-8" standalone="no"?><svg xmlns="http://www.w3.org/2000/svg" xmlns:xlink="http://www.w3.org/1999/xlink" contentScriptType="application/ecmascript" contentStyleType="text/css" height="257px" preserveAspectRatio="none" style="width:570px;height:257px;" version="1.1" viewBox="0 0 570 257" width="570px" zoomAndPan="magnify"><defs><filter height="300%" id="f27lhob5hhixs" width="300%" x="-1" y="-1"><feGaussianBlur result="blurOut" stdDeviation="2.0"/><feColorMatrix in="blurOut" result="blurOut2" type="matrix" values="0 0 0 0 0 0 0 0 0 0 0 0 0 0 0 0 0 0 .4 0"/><feOffset dx="4.0" dy="4.0" in="blurOut2" result="blurOut3"/><feBlend in="SourceGraphic" in2="blurOut3" mode="normal"/></filter></defs><g><rect fill="#DDDDDD" height="245.9082" style="stroke:#FFFFFF;stroke-width:1.0;" width="563" x="1" y="6"/><text fill="#000000" font-family="sans-serif" font-size="13" font-weight="bold" lengthAdjust="spacing" textLength="175" x="195" y="18.5684">PopularizationApplication</text><line style="stroke:#A80036;stroke-width:1.0;stroke-dasharray:5.0,5.0;" x1="137" x2="137" y1="73.7988" y2="200.4199"/><line style="stroke:#A80036;stroke-width:1.0;stroke-dasharray:5.0,5.0;" x1="419" x2="419" y1="73.7988" y2="200.4199"/><text fill="#000000" font-family="sans-serif" font-size="14" lengthAdjust="spacing" textLength="258" x="5" y="70.8457">PopularizationApplication.Interceptor</text><ellipse cx="137" cy="41.3105" fill="#FEFECE" filter="url(#f27lhob5hhixs)" rx="12" ry="12" style="stroke:#A80036;stroke-width:2.0;"/><line style="stroke:#A80036;stroke-width:2.0;" x1="125" x2="149" y1="55.3105" y2="55.3105"/><text fill="#000000" font-family="sans-serif" font-size="14" lengthAdjust="spacing" textLength="258" x="5" y="212.9551">PopularizationApplication.Interceptor</text><ellipse cx="137" cy="231.9082" fill="#FEFECE" filter="url(#f27lhob5hhixs)" rx="12" ry="12" style="stroke:#A80036;stroke-width:2.0;"/><line style="stroke:#A80036;stroke-width:2.0;" x1="125" x2="149" y1="245.9082" y2="245.9082"/><text fill="#000000" font-family="sans-serif" font-size="14" lengthAdjust="spacing" textLength="275" x="279" y="70.8457">PopularizationApplication.ApiController</text><ellipse cx="419.5" cy="41.3105" fill="#FEFECE" filter="url(#f27lhob5hhixs)" rx="12" ry="12" style="stroke:#A80036;stroke-width:2.0;"/><line style="stroke:#A80036;stroke-width:2.0;" x1="407.5" x2="431.5" y1="55.3105" y2="55.3105"/><text fill="#000000" font-family="sans-serif" font-size="14" lengthAdjust="spacing" textLength="275" x="279" y="212.9551">PopularizationApplication.ApiController</text><ellipse cx="419.5" cy="231.9082" fill="#FEFECE" filter="url(#f27lhob5hhixs)" rx="12" ry="12" style="stroke:#A80036;stroke-width:2.0;"/><line style="stroke:#A80036;stroke-width:2.0;" x1="407.5" x2="431.5" y1="245.9082" y2="245.9082"/><ellipse cx="419" cy="89.0488" rx="4" ry="4" style="stroke:#A80036;stroke-width:1.5;fill:none;"/><polygon fill="#A80036" points="402,85.7988,412,89.7988,402,93.7988,406,89.7988" style="stroke:#A80036;stroke-width:1.0;"/><line style="stroke:#A80036;stroke-width:1.0;" x1="137" x2="408" y1="89.7988" y2="89.7988"/><path d="M142,102.7988 L142,127.7988 L247,127.7988 L247,112.7988 L237,102.7988 L142,102.7988 " fill="#FBFB77" filter="url(#f27lhob5hhixs)" style="stroke:#A80036;stroke-width:1.0;"/><path d="M237,102.7988 L237,112.7988 L247,112.7988 L237,102.7988 " fill="#FBFB77" style="stroke:#A80036;stroke-width:1.0;"/><text fill="#000000" font-family="sans-serif" font-size="13" lengthAdjust="spacing" textLength="84" x="148" y="120.3672">Process 32-1</text><ellipse cx="136.5" cy="142.3594" rx="4" ry="4" style="stroke:#A80036;stroke-width:1.5;fill:none;"/><polygon fill="#A80036" points="407.5,139.1094,417.5,143.1094,407.5,147.1094,411.5,143.1094" style="stroke:#A80036;stroke-width:1.0;"/><line style="stroke:#A80036;stroke-width:1.0;" x1="141" x2="413.5" y1="143.1094" y2="143.1094"/><path d="M305,156.1094 L305,181.1094 L410,181.1094 L410,166.1094 L400,156.1094 L305,156.1094 " fill="#FBFB77" filter="url(#f27lhob5hhixs)" style="stroke:#A80036;stroke-width:1.0;"/><path d="M400,156.1094 L400,166.1094 L410,166.1094 L400,156.1094 " fill="#FBFB77" style="stroke:#A80036;stroke-width:1.0;"/><text fill="#000000" font-family="sans-serif" font-size="13" lengthAdjust="spacing" textLength="84" x="311" y="173.6777">Process 32-1</text><!--MD5=[d0522dfbc93ad28a8a7b1cfeee655f7b]
@startuml
skinparam sequence {
    BoxBorderColor WHITE
}
box PopularizationApplication  
entity PopularizationApplication.Interceptor
entity PopularizationApplication.ApiController
end box
PopularizationApplication.Interceptor ->o PopularizationApplication.ApiController:
Note right of PopularizationApplication.Interceptor:Process 32-1
PopularizationApplication.Interceptor o-> PopularizationApplication.ApiController:
Note left of PopularizationApplication.ApiController:Process 32-1
@enduml

PlantUML version 1.2021.5(Sun Apr 25 19:20:28 CST 2021)
(GPL source distribution)
Java Runtime: OpenJDK Runtime Environment
JVM: OpenJDK 64-Bit Server VM
Default Encoding: UTF-8
Language: en
Country: CN
--></g></svg>