<?xml version="1.0" encoding="UTF-8" standalone="no"?><svg xmlns="http://www.w3.org/2000/svg" xmlns:xlink="http://www.w3.org/1999/xlink" contentScriptType="application/ecmascript" contentStyleType="text/css" height="257px" preserveAspectRatio="none" style="width:358px;height:257px;" version="1.1" viewBox="0 0 358 257" width="358px" zoomAndPan="magnify"><defs><filter height="300%" id="ft6g6go62b7dc" width="300%" x="-1" y="-1"><feGaussianBlur result="blurOut" stdDeviation="2.0"/><feColorMatrix in="blurOut" result="blurOut2" type="matrix" values="0 0 0 0 0 0 0 0 0 0 0 0 0 0 0 0 0 0 .4 0"/><feOffset dx="4.0" dy="4.0" in="blurOut2" result="blurOut3"/><feBlend in="SourceGraphic" in2="blurOut3" mode="normal"/></filter></defs><g><rect fill="#DDDDDD" height="245.9082" style="stroke:#FFFFFF;stroke-width:1.0;" width="105" x="1" y="6"/><text fill="#000000" font-family="sans-serif" font-size="13" font-weight="bold" lengthAdjust="spacing" textLength="21" x="43" y="18.5684">Ext</text><rect fill="#DDDDDD" height="245.9082" style="stroke:#FFFFFF;stroke-width:1.0;" width="244" x="108" y="6"/><text fill="#000000" font-family="sans-serif" font-size="13" font-weight="bold" lengthAdjust="spacing" textLength="175" x="142.5" y="18.5684">PopularizationApplication</text><line style="stroke:#A80036;stroke-width:1.0;stroke-dasharray:5.0,5.0;" x1="53" x2="53" y1="73.7988" y2="200.4199"/><line style="stroke:#A80036;stroke-width:1.0;stroke-dasharray:5.0,5.0;" x1="230" x2="230" y1="73.7988" y2="200.4199"/><text fill="#000000" font-family="sans-serif" font-size="14" lengthAdjust="spacing" textLength="91" x="5" y="70.8457">Ext.Unknown</text><ellipse cx="53.5" cy="41.3105" fill="#FEFECE" filter="url(#ft6g6go62b7dc)" rx="12" ry="12" style="stroke:#A80036;stroke-width:2.0;"/><line style="stroke:#A80036;stroke-width:2.0;" x1="41.5" x2="65.5" y1="55.3105" y2="55.3105"/><text fill="#000000" font-family="sans-serif" font-size="14" lengthAdjust="spacing" textLength="91" x="5" y="212.9551">Ext.Unknown</text><ellipse cx="53.5" cy="231.9082" fill="#FEFECE" filter="url(#ft6g6go62b7dc)" rx="12" ry="12" style="stroke:#A80036;stroke-width:2.0;"/><line style="stroke:#A80036;stroke-width:2.0;" x1="41.5" x2="65.5" y1="245.9082" y2="245.9082"/><text fill="#000000" font-family="sans-serif" font-size="14" lengthAdjust="spacing" textLength="230" x="112" y="70.8457">PopularizationApplication.Service</text><ellipse cx="230" cy="41.3105" fill="#FEFECE" filter="url(#ft6g6go62b7dc)" rx="12" ry="12" style="stroke:#A80036;stroke-width:2.0;"/><line style="stroke:#A80036;stroke-width:2.0;" x1="218" x2="242" y1="55.3105" y2="55.3105"/><text fill="#000000" font-family="sans-serif" font-size="14" lengthAdjust="spacing" textLength="230" x="112" y="212.9551">PopularizationApplication.Service</text><ellipse cx="230" cy="231.9082" fill="#FEFECE" filter="url(#ft6g6go62b7dc)" rx="12" ry="12" style="stroke:#A80036;stroke-width:2.0;"/><line style="stroke:#A80036;stroke-width:2.0;" x1="218" x2="242" y1="245.9082" y2="245.9082"/><polygon fill="#A80036" points="218,85.7988,228,89.7988,218,93.7988,222,89.7988" style="stroke:#A80036;stroke-width:1.0;"/><line style="stroke:#A80036;stroke-width:1.0;" x1="0" x2="224" y1="89.7988" y2="89.7988"/><path d="M58,102.7988 L58,127.7988 L149,127.7988 L149,112.7988 L139,102.7988 L58,102.7988 " fill="#FBFB77" filter="url(#ft6g6go62b7dc)" style="stroke:#A80036;stroke-width:1.0;"/><path d="M139,102.7988 L139,112.7988 L149,112.7988 L139,102.7988 " fill="#FBFB77" style="stroke:#A80036;stroke-width:1.0;"/><text fill="#000000" font-family="sans-serif" font-size="13" lengthAdjust="spacing" textLength="70" x="64" y="120.3672">Inner Logic</text><polygon fill="#A80036" points="218,139.1094,228,143.1094,218,147.1094,222,143.1094" style="stroke:#A80036;stroke-width:1.0;"/><line style="stroke:#A80036;stroke-width:1.0;" x1="0" x2="224" y1="143.1094" y2="143.1094"/><path d="M130,156.1094 L130,181.1094 L221,181.1094 L221,166.1094 L211,156.1094 L130,156.1094 " fill="#FBFB77" filter="url(#ft6g6go62b7dc)" style="stroke:#A80036;stroke-width:1.0;"/><path d="M211,156.1094 L211,166.1094 L221,166.1094 L211,156.1094 " fill="#FBFB77" style="stroke:#A80036;stroke-width:1.0;"/><text fill="#000000" font-family="sans-serif" font-size="13" lengthAdjust="spacing" textLength="70" x="136" y="173.6777">Inner Logic</text><!--MD5=[98bba08ebb23c6bbf50e3a0f12eea8ee]
@startuml
skinparam sequence {
    BoxBorderColor WHITE
}
box Ext  
entity Ext.Unknown
end box
box PopularizationApplication  
entity PopularizationApplication.Service
end box
[-> PopularizationApplication.Service:
Note right of Ext.Unknown:Inner Logic
[-> PopularizationApplication.Service:
Note left of PopularizationApplication.Service:Inner Logic
@enduml

PlantUML version 1.2021.5(Sun Apr 25 19:20:28 CST 2021)
(GPL source distribution)
Java Runtime: OpenJDK Runtime Environment
JVM: OpenJDK 64-Bit Server VM
Default Encoding: UTF-8
Language: en
Country: CN
--></g></svg>