<?xml version="1.0" encoding="UTF-8" standalone="no"?><svg xmlns="http://www.w3.org/2000/svg" xmlns:xlink="http://www.w3.org/1999/xlink" contentScriptType="application/ecmascript" contentStyleType="text/css" height="577px" preserveAspectRatio="none" style="width:1267px;height:577px;" version="1.1" viewBox="0 0 1267 577" width="1267px" zoomAndPan="magnify"><defs><filter height="300%" id="ftxda2vl2aq9b" width="300%" x="-1" y="-1"><feGaussianBlur result="blurOut" stdDeviation="2.0"/><feColorMatrix in="blurOut" result="blurOut2" type="matrix" values="0 0 0 0 0 0 0 0 0 0 0 0 0 0 0 0 0 0 .4 0"/><feOffset dx="4.0" dy="4.0" in="blurOut2" result="blurOut3"/><feBlend in="SourceGraphic" in2="blurOut3" mode="normal"/></filter></defs><g><rect fill="#DDDDDD" height="565.7715" style="stroke:#FFFFFF;stroke-width:1.0;" width="1047" x="1" y="6"/><text fill="#000000" font-family="sans-serif" font-size="13" font-weight="bold" lengthAdjust="spacing" textLength="175" x="437" y="18.5684">PopularizationApplication</text><rect fill="#DDDDDD" height="565.7715" style="stroke:#FFFFFF;stroke-width:1.0;" width="211" x="1050" y="6"/><text fill="#000000" font-family="sans-serif" font-size="13" font-weight="bold" lengthAdjust="spacing" textLength="100" x="1105.5" y="18.5684">PrepaidService</text><line style="stroke:#A80036;stroke-width:1.0;stroke-dasharray:5.0,5.0;" x1="137" x2="137" y1="73.7988" y2="520.2832"/><line style="stroke:#A80036;stroke-width:1.0;stroke-dasharray:5.0,5.0;" x1="419" x2="419" y1="73.7988" y2="520.2832"/><line style="stroke:#A80036;stroke-width:1.0;stroke-dasharray:5.0,5.0;" x1="688" x2="688" y1="73.7988" y2="520.2832"/><line style="stroke:#A80036;stroke-width:1.0;stroke-dasharray:5.0,5.0;" x1="930" x2="930" y1="73.7988" y2="520.2832"/><line style="stroke:#A80036;stroke-width:1.0;stroke-dasharray:5.0,5.0;" x1="1155" x2="1155" y1="73.7988" y2="520.2832"/><text fill="#000000" font-family="sans-serif" font-size="14" lengthAdjust="spacing" textLength="258" x="5" y="70.8457">PopularizationApplication.Interceptor</text><ellipse cx="137" cy="41.3105" fill="#FEFECE" filter="url(#ftxda2vl2aq9b)" rx="12" ry="12" style="stroke:#A80036;stroke-width:2.0;"/><line style="stroke:#A80036;stroke-width:2.0;" x1="125" x2="149" y1="55.3105" y2="55.3105"/><text fill="#000000" font-family="sans-serif" font-size="14" lengthAdjust="spacing" textLength="258" x="5" y="532.8184">PopularizationApplication.Interceptor</text><ellipse cx="137" cy="551.7715" fill="#FEFECE" filter="url(#ftxda2vl2aq9b)" rx="12" ry="12" style="stroke:#A80036;stroke-width:2.0;"/><line style="stroke:#A80036;stroke-width:2.0;" x1="125" x2="149" y1="565.7715" y2="565.7715"/><text fill="#000000" font-family="sans-serif" font-size="14" lengthAdjust="spacing" textLength="275" x="279" y="70.8457">PopularizationApplication.ApiController</text><ellipse cx="419.5" cy="41.3105" fill="#FEFECE" filter="url(#ftxda2vl2aq9b)" rx="12" ry="12" style="stroke:#A80036;stroke-width:2.0;"/><line style="stroke:#A80036;stroke-width:2.0;" x1="407.5" x2="431.5" y1="55.3105" y2="55.3105"/><text fill="#000000" font-family="sans-serif" font-size="14" lengthAdjust="spacing" textLength="275" x="279" y="532.8184">PopularizationApplication.ApiController</text><ellipse cx="419.5" cy="551.7715" fill="#FEFECE" filter="url(#ftxda2vl2aq9b)" rx="12" ry="12" style="stroke:#A80036;stroke-width:2.0;"/><line style="stroke:#A80036;stroke-width:2.0;" x1="407.5" x2="431.5" y1="565.7715" y2="565.7715"/><text fill="#000000" font-family="sans-serif" font-size="14" lengthAdjust="spacing" textLength="230" x="570" y="70.8457">PopularizationApplication.Service</text><ellipse cx="688" cy="41.3105" fill="#FEFECE" filter="url(#ftxda2vl2aq9b)" rx="12" ry="12" style="stroke:#A80036;stroke-width:2.0;"/><line style="stroke:#A80036;stroke-width:2.0;" x1="676" x2="700" y1="55.3105" y2="55.3105"/><text fill="#000000" font-family="sans-serif" font-size="14" lengthAdjust="spacing" textLength="230" x="570" y="532.8184">PopularizationApplication.Service</text><ellipse cx="688" cy="551.7715" fill="#FEFECE" filter="url(#ftxda2vl2aq9b)" rx="12" ry="12" style="stroke:#A80036;stroke-width:2.0;"/><line style="stroke:#A80036;stroke-width:2.0;" x1="676" x2="700" y1="565.7715" y2="565.7715"/><text fill="#000000" font-family="sans-serif" font-size="14" lengthAdjust="spacing" textLength="222" x="816" y="70.8457">PopularizationApplication.Client</text><ellipse cx="930" cy="41.3105" fill="#FEFECE" filter="url(#ftxda2vl2aq9b)" rx="12" ry="12" style="stroke:#A80036;stroke-width:2.0;"/><line style="stroke:#A80036;stroke-width:2.0;" x1="918" x2="942" y1="55.3105" y2="55.3105"/><text fill="#000000" font-family="sans-serif" font-size="14" lengthAdjust="spacing" textLength="222" x="816" y="532.8184">PopularizationApplication.Client</text><ellipse cx="930" cy="551.7715" fill="#FEFECE" filter="url(#ftxda2vl2aq9b)" rx="12" ry="12" style="stroke:#A80036;stroke-width:2.0;"/><line style="stroke:#A80036;stroke-width:2.0;" x1="918" x2="942" y1="565.7715" y2="565.7715"/><text fill="#000000" font-family="sans-serif" font-size="14" lengthAdjust="spacing" textLength="197" x="1054" y="70.8457">PrepaidService.ApiController</text><ellipse cx="1155.5" cy="41.3105" fill="#FEFECE" filter="url(#ftxda2vl2aq9b)" rx="12" ry="12" style="stroke:#A80036;stroke-width:2.0;"/><line style="stroke:#A80036;stroke-width:2.0;" x1="1143.5" x2="1167.5" y1="55.3105" y2="55.3105"/><text fill="#000000" font-family="sans-serif" font-size="14" lengthAdjust="spacing" textLength="197" x="1054" y="532.8184">PrepaidService.ApiController</text><ellipse cx="1155.5" cy="551.7715" fill="#FEFECE" filter="url(#ftxda2vl2aq9b)" rx="12" ry="12" style="stroke:#A80036;stroke-width:2.0;"/><line style="stroke:#A80036;stroke-width:2.0;" x1="1143.5" x2="1167.5" y1="565.7715" y2="565.7715"/><ellipse cx="419" cy="89.0488" rx="4" ry="4" style="stroke:#A80036;stroke-width:1.5;fill:none;"/><polygon fill="#A80036" points="402,85.7988,412,89.7988,402,93.7988,406,89.7988" style="stroke:#A80036;stroke-width:1.0;"/><line style="stroke:#A80036;stroke-width:1.0;" x1="137" x2="408" y1="89.7988" y2="89.7988"/><path d="M142,102.7988 L142,127.7988 L247,127.7988 L247,112.7988 L237,102.7988 L142,102.7988 " fill="#FBFB77" filter="url(#ftxda2vl2aq9b)" style="stroke:#A80036;stroke-width:1.0;"/><path d="M237,102.7988 L237,112.7988 L247,112.7988 L237,102.7988 " fill="#FBFB77" style="stroke:#A80036;stroke-width:1.0;"/><text fill="#000000" font-family="sans-serif" font-size="13" lengthAdjust="spacing" textLength="84" x="148" y="120.3672">Process 32-1</text><ellipse cx="687.5" cy="142.3594" rx="4" ry="4" style="stroke:#A80036;stroke-width:1.5;fill:none;"/><polygon fill="#A80036" points="670.5,139.1094,680.5,143.1094,670.5,147.1094,674.5,143.1094" style="stroke:#A80036;stroke-width:1.0;"/><line style="stroke:#A80036;stroke-width:1.0;" x1="419.5" x2="676.5" y1="143.1094" y2="143.1094"/><path d="M424,156.1094 L424,181.1094 L529,181.1094 L529,166.1094 L519,156.1094 L424,156.1094 " fill="#FBFB77" filter="url(#ftxda2vl2aq9b)" style="stroke:#A80036;stroke-width:1.0;"/><path d="M519,156.1094 L519,166.1094 L529,166.1094 L519,156.1094 " fill="#FBFB77" style="stroke:#A80036;stroke-width:1.0;"/><text fill="#000000" font-family="sans-serif" font-size="13" lengthAdjust="spacing" textLength="84" x="430" y="173.6777">Process 32-2</text><ellipse cx="929.5" cy="195.6699" rx="4" ry="4" style="stroke:#A80036;stroke-width:1.5;fill:none;"/><polygon fill="#A80036" points="912.5,192.4199,922.5,196.4199,912.5,200.4199,916.5,196.4199" style="stroke:#A80036;stroke-width:1.0;"/><line style="stroke:#A80036;stroke-width:1.0;" x1="688" x2="918.5" y1="196.4199" y2="196.4199"/><path d="M693,209.4199 L693,234.4199 L798,234.4199 L798,219.4199 L788,209.4199 L693,209.4199 " fill="#FBFB77" filter="url(#ftxda2vl2aq9b)" style="stroke:#A80036;stroke-width:1.0;"/><path d="M788,209.4199 L788,219.4199 L798,219.4199 L788,209.4199 " fill="#FBFB77" style="stroke:#A80036;stroke-width:1.0;"/><text fill="#000000" font-family="sans-serif" font-size="13" lengthAdjust="spacing" textLength="84" x="699" y="226.9883">Process 32-4</text><ellipse cx="1155" cy="248.9805" rx="4" ry="4" style="stroke:#A80036;stroke-width:1.5;fill:none;"/><polygon fill="#A80036" points="1138,245.7305,1148,249.7305,1138,253.7305,1142,249.7305" style="stroke:#A80036;stroke-width:1.0;"/><line style="stroke:#A80036;stroke-width:1.0;" x1="930" x2="1144" y1="249.7305" y2="249.7305"/><path d="M935,262.7305 L935,287.7305 L1040,287.7305 L1040,272.7305 L1030,262.7305 L935,262.7305 " fill="#FBFB77" filter="url(#ftxda2vl2aq9b)" style="stroke:#A80036;stroke-width:1.0;"/><path d="M1030,262.7305 L1030,272.7305 L1040,272.7305 L1030,262.7305 " fill="#FBFB77" style="stroke:#A80036;stroke-width:1.0;"/><text fill="#000000" font-family="sans-serif" font-size="13" lengthAdjust="spacing" textLength="84" x="941" y="280.2988">Process 32-6</text><polygon fill="#A80036" points="941,299.041,931,303.041,941,307.041,937,303.041" style="stroke:#A80036;stroke-width:1.0;"/><ellipse cx="1155" cy="302.291" rx="4" ry="4" style="stroke:#A80036;stroke-width:1.5;fill:none;"/><line style="stroke:#A80036;stroke-width:1.0;fill:none;" x1="935" x2="1150.5" y1="303.041" y2="303.041"/><path d="M1041,316.041 L1041,341.041 L1146,341.041 L1146,326.041 L1136,316.041 L1041,316.041 " fill="#FBFB77" filter="url(#ftxda2vl2aq9b)" style="stroke:#A80036;stroke-width:1.0;"/><path d="M1136,316.041 L1136,326.041 L1146,326.041 L1136,316.041 " fill="#FBFB77" style="stroke:#A80036;stroke-width:1.0;"/><text fill="#000000" font-family="sans-serif" font-size="13" lengthAdjust="spacing" textLength="84" x="1047" y="333.6094">Process 32-6</text><polygon fill="#A80036" points="699,352.3516,689,356.3516,699,360.3516,695,356.3516" style="stroke:#A80036;stroke-width:1.0;"/><ellipse cx="929.5" cy="355.6016" rx="4" ry="4" style="stroke:#A80036;stroke-width:1.5;fill:none;"/><line style="stroke:#A80036;stroke-width:1.0;fill:none;" x1="693" x2="925" y1="356.3516" y2="356.3516"/><path d="M816,369.3516 L816,394.3516 L921,394.3516 L921,379.3516 L911,369.3516 L816,369.3516 " fill="#FBFB77" filter="url(#ftxda2vl2aq9b)" style="stroke:#A80036;stroke-width:1.0;"/><path d="M911,369.3516 L911,379.3516 L921,379.3516 L911,369.3516 " fill="#FBFB77" style="stroke:#A80036;stroke-width:1.0;"/><text fill="#000000" font-family="sans-serif" font-size="13" lengthAdjust="spacing" textLength="84" x="822" y="386.9199">Process 32-4</text><polygon fill="#A80036" points="430.5,405.6621,420.5,409.6621,430.5,413.6621,426.5,409.6621" style="stroke:#A80036;stroke-width:1.0;"/><ellipse cx="687.5" cy="408.9121" rx="4" ry="4" style="stroke:#A80036;stroke-width:1.5;fill:none;"/><line style="stroke:#A80036;stroke-width:1.0;fill:none;" x1="424.5" x2="683" y1="409.6621" y2="409.6621"/><path d="M574,422.6621 L574,447.6621 L679,447.6621 L679,432.6621 L669,422.6621 L574,422.6621 " fill="#FBFB77" filter="url(#ftxda2vl2aq9b)" style="stroke:#A80036;stroke-width:1.0;"/><path d="M669,422.6621 L669,432.6621 L679,432.6621 L669,422.6621 " fill="#FBFB77" style="stroke:#A80036;stroke-width:1.0;"/><text fill="#000000" font-family="sans-serif" font-size="13" lengthAdjust="spacing" textLength="84" x="580" y="440.2305">Process 32-2</text><polygon fill="#A80036" points="148,458.9727,138,462.9727,148,466.9727,144,462.9727" style="stroke:#A80036;stroke-width:1.0;"/><ellipse cx="419" cy="462.2227" rx="4" ry="4" style="stroke:#A80036;stroke-width:1.5;fill:none;"/><line style="stroke:#A80036;stroke-width:1.0;fill:none;" x1="142" x2="414.5" y1="462.9727" y2="462.9727"/><path d="M305,475.9727 L305,500.9727 L410,500.9727 L410,485.9727 L400,475.9727 L305,475.9727 " fill="#FBFB77" filter="url(#ftxda2vl2aq9b)" style="stroke:#A80036;stroke-width:1.0;"/><path d="M400,475.9727 L400,485.9727 L410,485.9727 L400,475.9727 " fill="#FBFB77" style="stroke:#A80036;stroke-width:1.0;"/><text fill="#000000" font-family="sans-serif" font-size="13" lengthAdjust="spacing" textLength="84" x="311" y="493.541">Process 32-1</text><!--MD5=[c58366f4a7be2bf3a134d2fd277594b6]
@startuml
skinparam sequence {
    BoxBorderColor WHITE
}
box PopularizationApplication  
entity PopularizationApplication.Interceptor
entity PopularizationApplication.ApiController
entity PopularizationApplication.Service
entity PopularizationApplication.Client
end box
box PrepaidService  
entity PrepaidService.ApiController
end box
PopularizationApplication.Interceptor ->o PopularizationApplication.ApiController:
Note right of PopularizationApplication.Interceptor:Process 32-1
PopularizationApplication.ApiController ->o PopularizationApplication.Service:
Note right of PopularizationApplication.ApiController:Process 32-2
PopularizationApplication.Service ->o PopularizationApplication.Client:
Note right of PopularizationApplication.Service:Process 32-4
PopularizationApplication.Client ->o PrepaidService.ApiController:
Note right of PopularizationApplication.Client:Process 32-6
PrepaidService.ApiController o-> PopularizationApplication.Client:
Note left of PrepaidService.ApiController:Process 32-6
PopularizationApplication.Client o-> PopularizationApplication.Service:
Note left of PopularizationApplication.Client:Process 32-4
PopularizationApplication.Service o-> PopularizationApplication.ApiController:
Note left of PopularizationApplication.Service:Process 32-2
PopularizationApplication.ApiController o-> PopularizationApplication.Interceptor:
Note left of PopularizationApplication.ApiController:Process 32-1
@enduml

PlantUML version 1.2021.5(Sun Apr 25 19:20:28 CST 2021)
(GPL source distribution)
Java Runtime: OpenJDK Runtime Environment
JVM: OpenJDK 64-Bit Server VM
Default Encoding: UTF-8
Language: en
Country: CN
--></g></svg>