<?xml version="1.0" encoding="UTF-8" standalone="no"?><svg xmlns="http://www.w3.org/2000/svg" xmlns:xlink="http://www.w3.org/1999/xlink" contentScriptType="application/ecmascript" contentStyleType="text/css" height="471px" preserveAspectRatio="none" style="width:1205px;height:471px;" version="1.1" viewBox="0 0 1205 471" width="1205px" zoomAndPan="magnify"><defs><filter height="300%" id="f6cyycbrhl1f9" width="300%" x="-1" y="-1"><feGaussianBlur result="blurOut" stdDeviation="2.0"/><feColorMatrix in="blurOut" result="blurOut2" type="matrix" values="0 0 0 0 0 0 0 0 0 0 0 0 0 0 0 0 0 0 .4 0"/><feOffset dx="4.0" dy="4.0" in="blurOut2" result="blurOut3"/><feBlend in="SourceGraphic" in2="blurOut3" mode="normal"/></filter></defs><g><rect fill="#DDDDDD" height="459.1504" style="stroke:#FFFFFF;stroke-width:1.0;" width="1047" x="1" y="6"/><text fill="#000000" font-family="sans-serif" font-size="13" font-weight="bold" lengthAdjust="spacing" textLength="175" x="437" y="18.5684">PopularizationApplication</text><rect fill="#DDDDDD" height="459.1504" style="stroke:#FFFFFF;stroke-width:1.0;" width="149" x="1050" y="6"/><text fill="#000000" font-family="sans-serif" font-size="13" font-weight="bold" lengthAdjust="spacing" textLength="104" x="1072.5" y="18.5684">MessageQueue</text><line style="stroke:#A80036;stroke-width:1.0;stroke-dasharray:5.0,5.0;" x1="137" x2="137" y1="73.7988" y2="413.6621"/><line style="stroke:#A80036;stroke-width:1.0;stroke-dasharray:5.0,5.0;" x1="419" x2="419" y1="73.7988" y2="413.6621"/><line style="stroke:#A80036;stroke-width:1.0;stroke-dasharray:5.0,5.0;" x1="688" x2="688" y1="73.7988" y2="413.6621"/><line style="stroke:#A80036;stroke-width:1.0;stroke-dasharray:5.0,5.0;" x1="930" x2="930" y1="73.7988" y2="413.6621"/><line style="stroke:#A80036;stroke-width:1.0;stroke-dasharray:5.0,5.0;" x1="1124" x2="1124" y1="73.7988" y2="413.6621"/><text fill="#000000" font-family="sans-serif" font-size="14" lengthAdjust="spacing" textLength="258" x="5" y="70.8457">PopularizationApplication.Interceptor</text><ellipse cx="137" cy="41.3105" fill="#FEFECE" filter="url(#f6cyycbrhl1f9)" rx="12" ry="12" style="stroke:#A80036;stroke-width:2.0;"/><line style="stroke:#A80036;stroke-width:2.0;" x1="125" x2="149" y1="55.3105" y2="55.3105"/><text fill="#000000" font-family="sans-serif" font-size="14" lengthAdjust="spacing" textLength="258" x="5" y="426.1973">PopularizationApplication.Interceptor</text><ellipse cx="137" cy="445.1504" fill="#FEFECE" filter="url(#f6cyycbrhl1f9)" rx="12" ry="12" style="stroke:#A80036;stroke-width:2.0;"/><line style="stroke:#A80036;stroke-width:2.0;" x1="125" x2="149" y1="459.1504" y2="459.1504"/><text fill="#000000" font-family="sans-serif" font-size="14" lengthAdjust="spacing" textLength="275" x="279" y="70.8457">PopularizationApplication.ApiController</text><ellipse cx="419.5" cy="41.3105" fill="#FEFECE" filter="url(#f6cyycbrhl1f9)" rx="12" ry="12" style="stroke:#A80036;stroke-width:2.0;"/><line style="stroke:#A80036;stroke-width:2.0;" x1="407.5" x2="431.5" y1="55.3105" y2="55.3105"/><text fill="#000000" font-family="sans-serif" font-size="14" lengthAdjust="spacing" textLength="275" x="279" y="426.1973">PopularizationApplication.ApiController</text><ellipse cx="419.5" cy="445.1504" fill="#FEFECE" filter="url(#f6cyycbrhl1f9)" rx="12" ry="12" style="stroke:#A80036;stroke-width:2.0;"/><line style="stroke:#A80036;stroke-width:2.0;" x1="407.5" x2="431.5" y1="459.1504" y2="459.1504"/><text fill="#000000" font-family="sans-serif" font-size="14" lengthAdjust="spacing" textLength="230" x="570" y="70.8457">PopularizationApplication.Service</text><ellipse cx="688" cy="41.3105" fill="#FEFECE" filter="url(#f6cyycbrhl1f9)" rx="12" ry="12" style="stroke:#A80036;stroke-width:2.0;"/><line style="stroke:#A80036;stroke-width:2.0;" x1="676" x2="700" y1="55.3105" y2="55.3105"/><text fill="#000000" font-family="sans-serif" font-size="14" lengthAdjust="spacing" textLength="230" x="570" y="426.1973">PopularizationApplication.Service</text><ellipse cx="688" cy="445.1504" fill="#FEFECE" filter="url(#f6cyycbrhl1f9)" rx="12" ry="12" style="stroke:#A80036;stroke-width:2.0;"/><line style="stroke:#A80036;stroke-width:2.0;" x1="676" x2="700" y1="459.1504" y2="459.1504"/><text fill="#000000" font-family="sans-serif" font-size="14" lengthAdjust="spacing" textLength="222" x="816" y="70.8457">PopularizationApplication.Client</text><ellipse cx="930" cy="41.3105" fill="#FEFECE" filter="url(#f6cyycbrhl1f9)" rx="12" ry="12" style="stroke:#A80036;stroke-width:2.0;"/><line style="stroke:#A80036;stroke-width:2.0;" x1="918" x2="942" y1="55.3105" y2="55.3105"/><text fill="#000000" font-family="sans-serif" font-size="14" lengthAdjust="spacing" textLength="222" x="816" y="426.1973">PopularizationApplication.Client</text><ellipse cx="930" cy="445.1504" fill="#FEFECE" filter="url(#f6cyycbrhl1f9)" rx="12" ry="12" style="stroke:#A80036;stroke-width:2.0;"/><line style="stroke:#A80036;stroke-width:2.0;" x1="918" x2="942" y1="459.1504" y2="459.1504"/><text fill="#000000" font-family="sans-serif" font-size="14" lengthAdjust="spacing" textLength="135" x="1054" y="70.8457">MessageQueue.SQS</text><ellipse cx="1124.5" cy="41.3105" fill="#FEFECE" filter="url(#f6cyycbrhl1f9)" rx="12" ry="12" style="stroke:#A80036;stroke-width:2.0;"/><line style="stroke:#A80036;stroke-width:2.0;" x1="1112.5" x2="1136.5" y1="55.3105" y2="55.3105"/><text fill="#000000" font-family="sans-serif" font-size="14" lengthAdjust="spacing" textLength="135" x="1054" y="426.1973">MessageQueue.SQS</text><ellipse cx="1124.5" cy="445.1504" fill="#FEFECE" filter="url(#f6cyycbrhl1f9)" rx="12" ry="12" style="stroke:#A80036;stroke-width:2.0;"/><line style="stroke:#A80036;stroke-width:2.0;" x1="1112.5" x2="1136.5" y1="459.1504" y2="459.1504"/><ellipse cx="419" cy="89.0488" rx="4" ry="4" style="stroke:#A80036;stroke-width:1.5;fill:none;"/><polygon fill="#A80036" points="402,85.7988,412,89.7988,402,93.7988,406,89.7988" style="stroke:#A80036;stroke-width:1.0;"/><line style="stroke:#A80036;stroke-width:1.0;" x1="137" x2="408" y1="89.7988" y2="89.7988"/><path d="M142,102.7988 L142,127.7988 L247,127.7988 L247,112.7988 L237,102.7988 L142,102.7988 " fill="#FBFB77" filter="url(#f6cyycbrhl1f9)" style="stroke:#A80036;stroke-width:1.0;"/><path d="M237,102.7988 L237,112.7988 L247,112.7988 L237,102.7988 " fill="#FBFB77" style="stroke:#A80036;stroke-width:1.0;"/><text fill="#000000" font-family="sans-serif" font-size="13" lengthAdjust="spacing" textLength="84" x="148" y="120.3672">Process 32-1</text><ellipse cx="929.5" cy="142.3594" rx="4" ry="4" style="stroke:#A80036;stroke-width:1.5;fill:none;"/><polygon fill="#A80036" points="912.5,139.1094,922.5,143.1094,912.5,147.1094,916.5,143.1094" style="stroke:#A80036;stroke-width:1.0;"/><line style="stroke:#A80036;stroke-width:1.0;" x1="688" x2="918.5" y1="143.1094" y2="143.1094"/><path d="M693,156.1094 L693,181.1094 L798,181.1094 L798,166.1094 L788,156.1094 L693,156.1094 " fill="#FBFB77" filter="url(#f6cyycbrhl1f9)" style="stroke:#A80036;stroke-width:1.0;"/><path d="M788,156.1094 L788,166.1094 L798,166.1094 L788,156.1094 " fill="#FBFB77" style="stroke:#A80036;stroke-width:1.0;"/><text fill="#000000" font-family="sans-serif" font-size="13" lengthAdjust="spacing" textLength="84" x="699" y="173.6777">Process 32-4</text><ellipse cx="1124" cy="195.6699" rx="4" ry="4" style="stroke:#A80036;stroke-width:1.5;fill:none;"/><polygon fill="#A80036" points="1107,192.4199,1117,196.4199,1107,200.4199,1111,196.4199" style="stroke:#A80036;stroke-width:1.0;"/><line style="stroke:#A80036;stroke-width:1.0;" x1="930" x2="1113" y1="196.4199" y2="196.4199"/><path d="M935,209.4199 L935,234.4199 L1040,234.4199 L1040,219.4199 L1030,209.4199 L935,209.4199 " fill="#FBFB77" filter="url(#f6cyycbrhl1f9)" style="stroke:#A80036;stroke-width:1.0;"/><path d="M1030,209.4199 L1030,219.4199 L1040,219.4199 L1030,209.4199 " fill="#FBFB77" style="stroke:#A80036;stroke-width:1.0;"/><text fill="#000000" font-family="sans-serif" font-size="13" lengthAdjust="spacing" textLength="84" x="941" y="226.9883">Process 32-5</text><polygon fill="#A80036" points="941,245.7305,931,249.7305,941,253.7305,937,249.7305" style="stroke:#A80036;stroke-width:1.0;"/><ellipse cx="1124" cy="248.9805" rx="4" ry="4" style="stroke:#A80036;stroke-width:1.5;fill:none;"/><line style="stroke:#A80036;stroke-width:1.0;fill:none;" x1="935" x2="1119.5" y1="249.7305" y2="249.7305"/><path d="M1010,262.7305 L1010,287.7305 L1115,287.7305 L1115,272.7305 L1105,262.7305 L1010,262.7305 " fill="#FBFB77" filter="url(#f6cyycbrhl1f9)" style="stroke:#A80036;stroke-width:1.0;"/><path d="M1105,262.7305 L1105,272.7305 L1115,272.7305 L1105,262.7305 " fill="#FBFB77" style="stroke:#A80036;stroke-width:1.0;"/><text fill="#000000" font-family="sans-serif" font-size="13" lengthAdjust="spacing" textLength="84" x="1016" y="280.2988">Process 32-5</text><polygon fill="#A80036" points="699,299.041,689,303.041,699,307.041,695,303.041" style="stroke:#A80036;stroke-width:1.0;"/><ellipse cx="929.5" cy="302.291" rx="4" ry="4" style="stroke:#A80036;stroke-width:1.5;fill:none;"/><line style="stroke:#A80036;stroke-width:1.0;fill:none;" x1="693" x2="925" y1="303.041" y2="303.041"/><path d="M816,316.041 L816,341.041 L921,341.041 L921,326.041 L911,316.041 L816,316.041 " fill="#FBFB77" filter="url(#f6cyycbrhl1f9)" style="stroke:#A80036;stroke-width:1.0;"/><path d="M911,316.041 L911,326.041 L921,326.041 L911,316.041 " fill="#FBFB77" style="stroke:#A80036;stroke-width:1.0;"/><text fill="#000000" font-family="sans-serif" font-size="13" lengthAdjust="spacing" textLength="84" x="822" y="333.6094">Process 32-4</text><polygon fill="#A80036" points="148,352.3516,138,356.3516,148,360.3516,144,356.3516" style="stroke:#A80036;stroke-width:1.0;"/><ellipse cx="419" cy="355.6016" rx="4" ry="4" style="stroke:#A80036;stroke-width:1.5;fill:none;"/><line style="stroke:#A80036;stroke-width:1.0;fill:none;" x1="142" x2="414.5" y1="356.3516" y2="356.3516"/><path d="M305,369.3516 L305,394.3516 L410,394.3516 L410,379.3516 L400,369.3516 L305,369.3516 " fill="#FBFB77" filter="url(#f6cyycbrhl1f9)" style="stroke:#A80036;stroke-width:1.0;"/><path d="M400,369.3516 L400,379.3516 L410,379.3516 L400,369.3516 " fill="#FBFB77" style="stroke:#A80036;stroke-width:1.0;"/><text fill="#000000" font-family="sans-serif" font-size="13" lengthAdjust="spacing" textLength="84" x="311" y="386.9199">Process 32-1</text><!--MD5=[2c03a5ab0f7aaaa2e7fb29f1171ad71c]
@startuml
skinparam sequence {
    BoxBorderColor WHITE
}
box PopularizationApplication  
entity PopularizationApplication.Interceptor
entity PopularizationApplication.ApiController
entity PopularizationApplication.Service
entity PopularizationApplication.Client
end box
box MessageQueue  
entity MessageQueue.SQS
end box
PopularizationApplication.Interceptor ->o PopularizationApplication.ApiController:
Note right of PopularizationApplication.Interceptor:Process 32-1
PopularizationApplication.Service ->o PopularizationApplication.Client:
Note right of PopularizationApplication.Service:Process 32-4
PopularizationApplication.Client ->o MessageQueue.SQS:
Note right of PopularizationApplication.Client:Process 32-5
MessageQueue.SQS o-> PopularizationApplication.Client:
Note left of MessageQueue.SQS:Process 32-5
PopularizationApplication.Client o-> PopularizationApplication.Service:
Note left of PopularizationApplication.Client:Process 32-4
PopularizationApplication.ApiController o-> PopularizationApplication.Interceptor:
Note left of PopularizationApplication.ApiController:Process 32-1
@enduml

PlantUML version 1.2021.5(Sun Apr 25 19:20:28 CST 2021)
(GPL source distribution)
Java Runtime: OpenJDK Runtime Environment
JVM: OpenJDK 64-Bit Server VM
Default Encoding: UTF-8
Language: en
Country: CN
--></g></svg>