<?xml version="1.0" encoding="UTF-8" standalone="no"?><svg xmlns="http://www.w3.org/2000/svg" xmlns:xlink="http://www.w3.org/1999/xlink" contentScriptType="application/ecmascript" contentStyleType="text/css" height="471px" preserveAspectRatio="none" style="width:931px;height:471px;" version="1.1" viewBox="0 0 931 471" width="931px" zoomAndPan="magnify"><defs><filter height="300%" id="f14yfqwf4z12x9" width="300%" x="-1" y="-1"><feGaussianBlur result="blurOut" stdDeviation="2.0"/><feColorMatrix in="blurOut" result="blurOut2" type="matrix" values="0 0 0 0 0 0 0 0 0 0 0 0 0 0 0 0 0 0 .4 0"/><feOffset dx="4.0" dy="4.0" in="blurOut2" result="blurOut3"/><feBlend in="SourceGraphic" in2="blurOut3" mode="normal"/></filter></defs><g><rect fill="#DDDDDD" height="459.1504" style="stroke:#FFFFFF;stroke-width:1.0;" width="773" x="1" y="6"/><text fill="#000000" font-family="sans-serif" font-size="13" font-weight="bold" lengthAdjust="spacing" textLength="175" x="300" y="18.5684">PopularizationApplication</text><rect fill="#DDDDDD" height="459.1504" style="stroke:#FFFFFF;stroke-width:1.0;" width="149" x="776" y="6"/><text fill="#000000" font-family="sans-serif" font-size="13" font-weight="bold" lengthAdjust="spacing" textLength="104" x="798.5" y="18.5684">MessageQueue</text><line style="stroke:#A80036;stroke-width:1.0;stroke-dasharray:5.0,5.0;" x1="145" x2="145" y1="73.7988" y2="413.6621"/><line style="stroke:#A80036;stroke-width:1.0;stroke-dasharray:5.0,5.0;" x1="414" x2="414" y1="73.7988" y2="413.6621"/><line style="stroke:#A80036;stroke-width:1.0;stroke-dasharray:5.0,5.0;" x1="656" x2="656" y1="73.7988" y2="413.6621"/><line style="stroke:#A80036;stroke-width:1.0;stroke-dasharray:5.0,5.0;" x1="850" x2="850" y1="73.7988" y2="413.6621"/><text fill="#000000" font-family="sans-serif" font-size="14" lengthAdjust="spacing" textLength="275" x="5" y="70.8457">PopularizationApplication.ApiController</text><ellipse cx="145.5" cy="41.3105" fill="#FEFECE" filter="url(#f14yfqwf4z12x9)" rx="12" ry="12" style="stroke:#A80036;stroke-width:2.0;"/><line style="stroke:#A80036;stroke-width:2.0;" x1="133.5" x2="157.5" y1="55.3105" y2="55.3105"/><text fill="#000000" font-family="sans-serif" font-size="14" lengthAdjust="spacing" textLength="275" x="5" y="426.1973">PopularizationApplication.ApiController</text><ellipse cx="145.5" cy="445.1504" fill="#FEFECE" filter="url(#f14yfqwf4z12x9)" rx="12" ry="12" style="stroke:#A80036;stroke-width:2.0;"/><line style="stroke:#A80036;stroke-width:2.0;" x1="133.5" x2="157.5" y1="459.1504" y2="459.1504"/><text fill="#000000" font-family="sans-serif" font-size="14" lengthAdjust="spacing" textLength="230" x="296" y="70.8457">PopularizationApplication.Service</text><ellipse cx="414" cy="41.3105" fill="#FEFECE" filter="url(#f14yfqwf4z12x9)" rx="12" ry="12" style="stroke:#A80036;stroke-width:2.0;"/><line style="stroke:#A80036;stroke-width:2.0;" x1="402" x2="426" y1="55.3105" y2="55.3105"/><text fill="#000000" font-family="sans-serif" font-size="14" lengthAdjust="spacing" textLength="230" x="296" y="426.1973">PopularizationApplication.Service</text><ellipse cx="414" cy="445.1504" fill="#FEFECE" filter="url(#f14yfqwf4z12x9)" rx="12" ry="12" style="stroke:#A80036;stroke-width:2.0;"/><line style="stroke:#A80036;stroke-width:2.0;" x1="402" x2="426" y1="459.1504" y2="459.1504"/><text fill="#000000" font-family="sans-serif" font-size="14" lengthAdjust="spacing" textLength="222" x="542" y="70.8457">PopularizationApplication.Client</text><ellipse cx="656" cy="41.3105" fill="#FEFECE" filter="url(#f14yfqwf4z12x9)" rx="12" ry="12" style="stroke:#A80036;stroke-width:2.0;"/><line style="stroke:#A80036;stroke-width:2.0;" x1="644" x2="668" y1="55.3105" y2="55.3105"/><text fill="#000000" font-family="sans-serif" font-size="14" lengthAdjust="spacing" textLength="222" x="542" y="426.1973">PopularizationApplication.Client</text><ellipse cx="656" cy="445.1504" fill="#FEFECE" filter="url(#f14yfqwf4z12x9)" rx="12" ry="12" style="stroke:#A80036;stroke-width:2.0;"/><line style="stroke:#A80036;stroke-width:2.0;" x1="644" x2="668" y1="459.1504" y2="459.1504"/><text fill="#000000" font-family="sans-serif" font-size="14" lengthAdjust="spacing" textLength="135" x="780" y="70.8457">MessageQueue.SQS</text><ellipse cx="850.5" cy="41.3105" fill="#FEFECE" filter="url(#f14yfqwf4z12x9)" rx="12" ry="12" style="stroke:#A80036;stroke-width:2.0;"/><line style="stroke:#A80036;stroke-width:2.0;" x1="838.5" x2="862.5" y1="55.3105" y2="55.3105"/><text fill="#000000" font-family="sans-serif" font-size="14" lengthAdjust="spacing" textLength="135" x="780" y="426.1973">MessageQueue.SQS</text><ellipse cx="850.5" cy="445.1504" fill="#FEFECE" filter="url(#f14yfqwf4z12x9)" rx="12" ry="12" style="stroke:#A80036;stroke-width:2.0;"/><line style="stroke:#A80036;stroke-width:2.0;" x1="838.5" x2="862.5" y1="459.1504" y2="459.1504"/><ellipse cx="413.5" cy="89.0488" rx="4" ry="4" style="stroke:#A80036;stroke-width:1.5;fill:none;"/><polygon fill="#A80036" points="396.5,85.7988,406.5,89.7988,396.5,93.7988,400.5,89.7988" style="stroke:#A80036;stroke-width:1.0;"/><line style="stroke:#A80036;stroke-width:1.0;" x1="145.5" x2="402.5" y1="89.7988" y2="89.7988"/><path d="M150,102.7988 L150,127.7988 L233,127.7988 L233,112.7988 L223,102.7988 L150,102.7988 " fill="#FBFB77" filter="url(#f14yfqwf4z12x9)" style="stroke:#A80036;stroke-width:1.0;"/><path d="M223,102.7988 L223,112.7988 L233,112.7988 L223,102.7988 " fill="#FBFB77" style="stroke:#A80036;stroke-width:1.0;"/><text fill="#000000" font-family="sans-serif" font-size="13" lengthAdjust="spacing" textLength="62" x="156" y="120.3672">工序 32-2</text><ellipse cx="655.5" cy="142.3594" rx="4" ry="4" style="stroke:#A80036;stroke-width:1.5;fill:none;"/><polygon fill="#A80036" points="638.5,139.1094,648.5,143.1094,638.5,147.1094,642.5,143.1094" style="stroke:#A80036;stroke-width:1.0;"/><line style="stroke:#A80036;stroke-width:1.0;" x1="414" x2="644.5" y1="143.1094" y2="143.1094"/><path d="M419,156.1094 L419,181.1094 L502,181.1094 L502,166.1094 L492,156.1094 L419,156.1094 " fill="#FBFB77" filter="url(#f14yfqwf4z12x9)" style="stroke:#A80036;stroke-width:1.0;"/><path d="M492,156.1094 L492,166.1094 L502,166.1094 L492,156.1094 " fill="#FBFB77" style="stroke:#A80036;stroke-width:1.0;"/><text fill="#000000" font-family="sans-serif" font-size="13" lengthAdjust="spacing" textLength="62" x="425" y="173.6777">工序 32-4</text><ellipse cx="850" cy="195.6699" rx="4" ry="4" style="stroke:#A80036;stroke-width:1.5;fill:none;"/><polygon fill="#A80036" points="833,192.4199,843,196.4199,833,200.4199,837,196.4199" style="stroke:#A80036;stroke-width:1.0;"/><line style="stroke:#A80036;stroke-width:1.0;" x1="656" x2="839" y1="196.4199" y2="196.4199"/><path d="M661,209.4199 L661,234.4199 L744,234.4199 L744,219.4199 L734,209.4199 L661,209.4199 " fill="#FBFB77" filter="url(#f14yfqwf4z12x9)" style="stroke:#A80036;stroke-width:1.0;"/><path d="M734,209.4199 L734,219.4199 L744,219.4199 L734,209.4199 " fill="#FBFB77" style="stroke:#A80036;stroke-width:1.0;"/><text fill="#000000" font-family="sans-serif" font-size="13" lengthAdjust="spacing" textLength="62" x="667" y="226.9883">工序 32-5</text><polygon fill="#A80036" points="667,245.7305,657,249.7305,667,253.7305,663,249.7305" style="stroke:#A80036;stroke-width:1.0;"/><ellipse cx="850" cy="248.9805" rx="4" ry="4" style="stroke:#A80036;stroke-width:1.5;fill:none;"/><line style="stroke:#A80036;stroke-width:1.0;fill:none;" x1="661" x2="845.5" y1="249.7305" y2="249.7305"/><path d="M758,262.7305 L758,287.7305 L841,287.7305 L841,272.7305 L831,262.7305 L758,262.7305 " fill="#FBFB77" filter="url(#f14yfqwf4z12x9)" style="stroke:#A80036;stroke-width:1.0;"/><path d="M831,262.7305 L831,272.7305 L841,272.7305 L831,262.7305 " fill="#FBFB77" style="stroke:#A80036;stroke-width:1.0;"/><text fill="#000000" font-family="sans-serif" font-size="13" lengthAdjust="spacing" textLength="62" x="764" y="280.2988">工序 32-5</text><polygon fill="#A80036" points="425,299.041,415,303.041,425,307.041,421,303.041" style="stroke:#A80036;stroke-width:1.0;"/><ellipse cx="655.5" cy="302.291" rx="4" ry="4" style="stroke:#A80036;stroke-width:1.5;fill:none;"/><line style="stroke:#A80036;stroke-width:1.0;fill:none;" x1="419" x2="651" y1="303.041" y2="303.041"/><path d="M564,316.041 L564,341.041 L647,341.041 L647,326.041 L637,316.041 L564,316.041 " fill="#FBFB77" filter="url(#f14yfqwf4z12x9)" style="stroke:#A80036;stroke-width:1.0;"/><path d="M637,316.041 L637,326.041 L647,326.041 L637,316.041 " fill="#FBFB77" style="stroke:#A80036;stroke-width:1.0;"/><text fill="#000000" font-family="sans-serif" font-size="13" lengthAdjust="spacing" textLength="62" x="570" y="333.6094">工序 32-4</text><polygon fill="#A80036" points="156.5,352.3516,146.5,356.3516,156.5,360.3516,152.5,356.3516" style="stroke:#A80036;stroke-width:1.0;"/><ellipse cx="413.5" cy="355.6016" rx="4" ry="4" style="stroke:#A80036;stroke-width:1.5;fill:none;"/><line style="stroke:#A80036;stroke-width:1.0;fill:none;" x1="150.5" x2="409" y1="356.3516" y2="356.3516"/><path d="M322,369.3516 L322,394.3516 L405,394.3516 L405,379.3516 L395,369.3516 L322,369.3516 " fill="#FBFB77" filter="url(#f14yfqwf4z12x9)" style="stroke:#A80036;stroke-width:1.0;"/><path d="M395,369.3516 L395,379.3516 L405,379.3516 L395,369.3516 " fill="#FBFB77" style="stroke:#A80036;stroke-width:1.0;"/><text fill="#000000" font-family="sans-serif" font-size="13" lengthAdjust="spacing" textLength="62" x="328" y="386.9199">工序 32-2</text><!--MD5=[e8dec3716143ff2a094e1dfbf30365de]
@startuml
skinparam sequence {
    BoxBorderColor WHITE
}
box PopularizationApplication  
entity PopularizationApplication.ApiController
entity PopularizationApplication.Service
entity PopularizationApplication.Client
end box
box MessageQueue  
entity MessageQueue.SQS
end box
PopularizationApplication.ApiController ->o PopularizationApplication.Service:
Note right of PopularizationApplication.ApiController:工序 32-2
PopularizationApplication.Service ->o PopularizationApplication.Client:
Note right of PopularizationApplication.Service:工序 32-4
PopularizationApplication.Client ->o MessageQueue.SQS:
Note right of PopularizationApplication.Client:工序 32-5
PopularizationApplication.Client <-o MessageQueue.SQS:
Note left of MessageQueue.SQS:工序 32-5
PopularizationApplication.Service <-o PopularizationApplication.Client:
Note left of PopularizationApplication.Client:工序 32-4
PopularizationApplication.ApiController <-o PopularizationApplication.Service:
Note left of PopularizationApplication.Service:工序 32-2
@enduml

PlantUML version 1.2021.5(Sun Apr 25 19:20:28 CST 2021)
(GPL source distribution)
Java Runtime: OpenJDK Runtime Environment
JVM: OpenJDK 64-Bit Server VM
Default Encoding: UTF-8
Language: en
Country: CN
--></g></svg>