<?xml version="1.0" encoding="UTF-8" standalone="no"?><svg xmlns="http://www.w3.org/2000/svg" xmlns:xlink="http://www.w3.org/1999/xlink" contentScriptType="application/ecmascript" contentStyleType="text/css" height="577px" preserveAspectRatio="none" style="width:853px;height:577px;" version="1.1" viewBox="0 0 853 577" width="853px" zoomAndPan="magnify"><defs><filter height="300%" id="fgb0uos8gqau4" width="300%" x="-1" y="-1"><feGaussianBlur result="blurOut" stdDeviation="2.0"/><feColorMatrix in="blurOut" result="blurOut2" type="matrix" values="0 0 0 0 0 0 0 0 0 0 0 0 0 0 0 0 0 0 .4 0"/><feOffset dx="4.0" dy="4.0" in="blurOut2" result="blurOut3"/><feBlend in="SourceGraphic" in2="blurOut3" mode="normal"/></filter></defs><g><rect fill="#DDDDDD" height="565.7715" style="stroke:#FFFFFF;stroke-width:1.0;" width="482" x="1" y="6"/><text fill="#000000" font-family="sans-serif" font-size="13" font-weight="bold" lengthAdjust="spacing" textLength="175" x="154.5" y="18.5684">PopularizationApplication</text><rect fill="#DDDDDD" height="565.7715" style="stroke:#FFFFFF;stroke-width:1.0;" width="211" x="485" y="6"/><text fill="#000000" font-family="sans-serif" font-size="13" font-weight="bold" lengthAdjust="spacing" textLength="100" x="540.5" y="18.5684">PrepaidService</text><rect fill="#DDDDDD" height="565.7715" style="stroke:#FFFFFF;stroke-width:1.0;" width="149" x="698" y="6"/><text fill="#000000" font-family="sans-serif" font-size="13" font-weight="bold" lengthAdjust="spacing" textLength="104" x="720.5" y="18.5684">MessageQueue</text><line style="stroke:#A80036;stroke-width:1.0;stroke-dasharray:5.0,5.0;" x1="123" x2="123" y1="73.7988" y2="520.2832"/><line style="stroke:#A80036;stroke-width:1.0;stroke-dasharray:5.0,5.0;" x1="365" x2="365" y1="73.7988" y2="520.2832"/><line style="stroke:#A80036;stroke-width:1.0;stroke-dasharray:5.0,5.0;" x1="590" x2="590" y1="73.7988" y2="520.2832"/><line style="stroke:#A80036;stroke-width:1.0;stroke-dasharray:5.0,5.0;" x1="772" x2="772" y1="73.7988" y2="520.2832"/><text fill="#000000" font-family="sans-serif" font-size="14" lengthAdjust="spacing" textLength="230" x="5" y="70.8457">PopularizationApplication.Service</text><ellipse cx="123" cy="41.3105" fill="#FEFECE" filter="url(#fgb0uos8gqau4)" rx="12" ry="12" style="stroke:#A80036;stroke-width:2.0;"/><line style="stroke:#A80036;stroke-width:2.0;" x1="111" x2="135" y1="55.3105" y2="55.3105"/><text fill="#000000" font-family="sans-serif" font-size="14" lengthAdjust="spacing" textLength="230" x="5" y="532.8184">PopularizationApplication.Service</text><ellipse cx="123" cy="551.7715" fill="#FEFECE" filter="url(#fgb0uos8gqau4)" rx="12" ry="12" style="stroke:#A80036;stroke-width:2.0;"/><line style="stroke:#A80036;stroke-width:2.0;" x1="111" x2="135" y1="565.7715" y2="565.7715"/><text fill="#000000" font-family="sans-serif" font-size="14" lengthAdjust="spacing" textLength="222" x="251" y="70.8457">PopularizationApplication.Client</text><ellipse cx="365" cy="41.3105" fill="#FEFECE" filter="url(#fgb0uos8gqau4)" rx="12" ry="12" style="stroke:#A80036;stroke-width:2.0;"/><line style="stroke:#A80036;stroke-width:2.0;" x1="353" x2="377" y1="55.3105" y2="55.3105"/><text fill="#000000" font-family="sans-serif" font-size="14" lengthAdjust="spacing" textLength="222" x="251" y="532.8184">PopularizationApplication.Client</text><ellipse cx="365" cy="551.7715" fill="#FEFECE" filter="url(#fgb0uos8gqau4)" rx="12" ry="12" style="stroke:#A80036;stroke-width:2.0;"/><line style="stroke:#A80036;stroke-width:2.0;" x1="353" x2="377" y1="565.7715" y2="565.7715"/><text fill="#000000" font-family="sans-serif" font-size="14" lengthAdjust="spacing" textLength="197" x="489" y="70.8457">PrepaidService.ApiController</text><ellipse cx="590.5" cy="41.3105" fill="#FEFECE" filter="url(#fgb0uos8gqau4)" rx="12" ry="12" style="stroke:#A80036;stroke-width:2.0;"/><line style="stroke:#A80036;stroke-width:2.0;" x1="578.5" x2="602.5" y1="55.3105" y2="55.3105"/><text fill="#000000" font-family="sans-serif" font-size="14" lengthAdjust="spacing" textLength="197" x="489" y="532.8184">PrepaidService.ApiController</text><ellipse cx="590.5" cy="551.7715" fill="#FEFECE" filter="url(#fgb0uos8gqau4)" rx="12" ry="12" style="stroke:#A80036;stroke-width:2.0;"/><line style="stroke:#A80036;stroke-width:2.0;" x1="578.5" x2="602.5" y1="565.7715" y2="565.7715"/><text fill="#000000" font-family="sans-serif" font-size="14" lengthAdjust="spacing" textLength="135" x="702" y="70.8457">MessageQueue.SQS</text><ellipse cx="772.5" cy="41.3105" fill="#FEFECE" filter="url(#fgb0uos8gqau4)" rx="12" ry="12" style="stroke:#A80036;stroke-width:2.0;"/><line style="stroke:#A80036;stroke-width:2.0;" x1="760.5" x2="784.5" y1="55.3105" y2="55.3105"/><text fill="#000000" font-family="sans-serif" font-size="14" lengthAdjust="spacing" textLength="135" x="702" y="532.8184">MessageQueue.SQS</text><ellipse cx="772.5" cy="551.7715" fill="#FEFECE" filter="url(#fgb0uos8gqau4)" rx="12" ry="12" style="stroke:#A80036;stroke-width:2.0;"/><line style="stroke:#A80036;stroke-width:2.0;" x1="760.5" x2="784.5" y1="565.7715" y2="565.7715"/><ellipse cx="364.5" cy="89.0488" rx="4" ry="4" style="stroke:#A80036;stroke-width:1.5;fill:none;"/><polygon fill="#A80036" points="347.5,85.7988,357.5,89.7988,347.5,93.7988,351.5,89.7988" style="stroke:#A80036;stroke-width:1.0;"/><line style="stroke:#A80036;stroke-width:1.0;" x1="123" x2="353.5" y1="89.7988" y2="89.7988"/><path d="M128,102.7988 L128,127.7988 L211,127.7988 L211,112.7988 L201,102.7988 L128,102.7988 " fill="#FBFB77" filter="url(#fgb0uos8gqau4)" style="stroke:#A80036;stroke-width:1.0;"/><path d="M201,102.7988 L201,112.7988 L211,112.7988 L201,102.7988 " fill="#FBFB77" style="stroke:#A80036;stroke-width:1.0;"/><text fill="#000000" font-family="sans-serif" font-size="13" lengthAdjust="spacing" textLength="62" x="134" y="120.3672">工序 32-4</text><ellipse cx="590" cy="142.3594" rx="4" ry="4" style="stroke:#A80036;stroke-width:1.5;fill:none;"/><polygon fill="#A80036" points="573,139.1094,583,143.1094,573,147.1094,577,143.1094" style="stroke:#A80036;stroke-width:1.0;"/><line style="stroke:#A80036;stroke-width:1.0;" x1="365" x2="579" y1="143.1094" y2="143.1094"/><path d="M370,156.1094 L370,181.1094 L453,181.1094 L453,166.1094 L443,156.1094 L370,156.1094 " fill="#FBFB77" filter="url(#fgb0uos8gqau4)" style="stroke:#A80036;stroke-width:1.0;"/><path d="M443,156.1094 L443,166.1094 L453,166.1094 L443,156.1094 " fill="#FBFB77" style="stroke:#A80036;stroke-width:1.0;"/><text fill="#000000" font-family="sans-serif" font-size="13" lengthAdjust="spacing" textLength="62" x="376" y="173.6777">工序 32-6</text><polygon fill="#A80036" points="376,192.4199,366,196.4199,376,200.4199,372,196.4199" style="stroke:#A80036;stroke-width:1.0;"/><line style="stroke:#A80036;stroke-width:2.0;" x1="572.5" x2="582.5" y1="191.4199" y2="201.4199"/><line style="stroke:#A80036;stroke-width:2.0;" x1="572.5" x2="582.5" y1="201.4199" y2="191.4199"/><line style="stroke:#A80036;stroke-width:1.0;" x1="370" x2="577.5" y1="196.4199" y2="196.4199"/><path d="M498,209.4199 L498,234.4199 L581,234.4199 L581,219.4199 L571,209.4199 L498,209.4199 " fill="#FBFB77" filter="url(#fgb0uos8gqau4)" style="stroke:#A80036;stroke-width:1.0;"/><path d="M571,209.4199 L571,219.4199 L581,219.4199 L571,209.4199 " fill="#FBFB77" style="stroke:#A80036;stroke-width:1.0;"/><text fill="#000000" font-family="sans-serif" font-size="13" lengthAdjust="spacing" textLength="62" x="504" y="226.9883">工序 32-6</text><polygon fill="#A80036" points="134,245.7305,124,249.7305,134,253.7305,130,249.7305" style="stroke:#A80036;stroke-width:1.0;"/><ellipse cx="364.5" cy="248.9805" rx="4" ry="4" style="stroke:#A80036;stroke-width:1.5;fill:none;"/><line style="stroke:#A80036;stroke-width:1.0;fill:none;" x1="128" x2="360" y1="249.7305" y2="249.7305"/><path d="M273,262.7305 L273,287.7305 L356,287.7305 L356,272.7305 L346,262.7305 L273,262.7305 " fill="#FBFB77" filter="url(#fgb0uos8gqau4)" style="stroke:#A80036;stroke-width:1.0;"/><path d="M346,262.7305 L346,272.7305 L356,272.7305 L346,262.7305 " fill="#FBFB77" style="stroke:#A80036;stroke-width:1.0;"/><text fill="#000000" font-family="sans-serif" font-size="13" lengthAdjust="spacing" textLength="62" x="279" y="280.2988">工序 32-4</text><ellipse cx="364.5" cy="302.291" rx="4" ry="4" style="stroke:#A80036;stroke-width:1.5;fill:none;"/><polygon fill="#A80036" points="347.5,299.041,357.5,303.041,347.5,307.041,351.5,303.041" style="stroke:#A80036;stroke-width:1.0;"/><line style="stroke:#A80036;stroke-width:1.0;" x1="123" x2="353.5" y1="303.041" y2="303.041"/><path d="M128,316.041 L128,341.041 L211,341.041 L211,326.041 L201,316.041 L128,316.041 " fill="#FBFB77" filter="url(#fgb0uos8gqau4)" style="stroke:#A80036;stroke-width:1.0;"/><path d="M201,316.041 L201,326.041 L211,326.041 L201,316.041 " fill="#FBFB77" style="stroke:#A80036;stroke-width:1.0;"/><text fill="#000000" font-family="sans-serif" font-size="13" lengthAdjust="spacing" textLength="62" x="134" y="333.6094">工序 32-4</text><ellipse cx="772" cy="355.6016" rx="4" ry="4" style="stroke:#A80036;stroke-width:1.5;fill:none;"/><polygon fill="#A80036" points="755,352.3516,765,356.3516,755,360.3516,759,356.3516" style="stroke:#A80036;stroke-width:1.0;"/><line style="stroke:#A80036;stroke-width:1.0;" x1="365" x2="761" y1="356.3516" y2="356.3516"/><path d="M370,369.3516 L370,394.3516 L453,394.3516 L453,379.3516 L443,369.3516 L370,369.3516 " fill="#FBFB77" filter="url(#fgb0uos8gqau4)" style="stroke:#A80036;stroke-width:1.0;"/><path d="M443,369.3516 L443,379.3516 L453,379.3516 L443,369.3516 " fill="#FBFB77" style="stroke:#A80036;stroke-width:1.0;"/><text fill="#000000" font-family="sans-serif" font-size="13" lengthAdjust="spacing" textLength="62" x="376" y="386.9199">工序 32-5</text><polygon fill="#A80036" points="376,405.6621,366,409.6621,376,413.6621,372,409.6621" style="stroke:#A80036;stroke-width:1.0;"/><ellipse cx="772" cy="408.9121" rx="4" ry="4" style="stroke:#A80036;stroke-width:1.5;fill:none;"/><line style="stroke:#A80036;stroke-width:1.0;fill:none;" x1="370" x2="767.5" y1="409.6621" y2="409.6621"/><path d="M680,422.6621 L680,447.6621 L763,447.6621 L763,432.6621 L753,422.6621 L680,422.6621 " fill="#FBFB77" filter="url(#fgb0uos8gqau4)" style="stroke:#A80036;stroke-width:1.0;"/><path d="M753,422.6621 L753,432.6621 L763,432.6621 L753,422.6621 " fill="#FBFB77" style="stroke:#A80036;stroke-width:1.0;"/><text fill="#000000" font-family="sans-serif" font-size="13" lengthAdjust="spacing" textLength="62" x="686" y="440.2305">工序 32-5</text><polygon fill="#A80036" points="134,458.9727,124,462.9727,134,466.9727,130,462.9727" style="stroke:#A80036;stroke-width:1.0;"/><ellipse cx="364.5" cy="462.2227" rx="4" ry="4" style="stroke:#A80036;stroke-width:1.5;fill:none;"/><line style="stroke:#A80036;stroke-width:1.0;fill:none;" x1="128" x2="360" y1="462.9727" y2="462.9727"/><path d="M273,475.9727 L273,500.9727 L356,500.9727 L356,485.9727 L346,475.9727 L273,475.9727 " fill="#FBFB77" filter="url(#fgb0uos8gqau4)" style="stroke:#A80036;stroke-width:1.0;"/><path d="M346,475.9727 L346,485.9727 L356,485.9727 L346,475.9727 " fill="#FBFB77" style="stroke:#A80036;stroke-width:1.0;"/><text fill="#000000" font-family="sans-serif" font-size="13" lengthAdjust="spacing" textLength="62" x="279" y="493.541">工序 32-4</text><!--MD5=[71c0e7206930b9b8fe2a2b78cf6f2f2a]
@startuml
skinparam sequence {
    BoxBorderColor WHITE
}
box PopularizationApplication  
entity PopularizationApplication.Service
entity PopularizationApplication.Client
end box
box PrepaidService  
entity PrepaidService.ApiController
end box
box MessageQueue  
entity MessageQueue.SQS
end box
PopularizationApplication.Service ->o PopularizationApplication.Client:
Note right of PopularizationApplication.Service:工序 32-4
PopularizationApplication.Client ->o PrepaidService.ApiController:
Note right of PopularizationApplication.Client:工序 32-6
PopularizationApplication.Client <-x PrepaidService.ApiController:
Note left of PrepaidService.ApiController:工序 32-6
PopularizationApplication.Service <-o PopularizationApplication.Client:
Note left of PopularizationApplication.Client:工序 32-4
PopularizationApplication.Service ->o PopularizationApplication.Client:
Note right of PopularizationApplication.Service:工序 32-4
PopularizationApplication.Client ->o MessageQueue.SQS:
Note right of PopularizationApplication.Client:工序 32-5
PopularizationApplication.Client <-o MessageQueue.SQS:
Note left of MessageQueue.SQS:工序 32-5
PopularizationApplication.Service <-o PopularizationApplication.Client:
Note left of PopularizationApplication.Client:工序 32-4
@enduml

PlantUML version 1.2021.5(Sun Apr 25 19:20:28 CST 2021)
(GPL source distribution)
Java Runtime: OpenJDK Runtime Environment
JVM: OpenJDK 64-Bit Server VM
Default Encoding: UTF-8
Language: en
Country: CN
--></g></svg>