<?xml version="1.0" encoding="UTF-8" standalone="no"?><svg xmlns="http://www.w3.org/2000/svg" xmlns:xlink="http://www.w3.org/1999/xlink" contentScriptType="application/ecmascript" contentStyleType="text/css" height="257px" preserveAspectRatio="none" style="width:251px;height:257px;" version="1.1" viewBox="0 0 251 257" width="251px" zoomAndPan="magnify"><defs><filter height="300%" id="f18cich419yeq7" width="300%" x="-1" y="-1"><feGaussianBlur result="blurOut" stdDeviation="2.0"/><feColorMatrix in="blurOut" result="blurOut2" type="matrix" values="0 0 0 0 0 0 0 0 0 0 0 0 0 0 0 0 0 0 .4 0"/><feOffset dx="4.0" dy="4.0" in="blurOut2" result="blurOut3"/><feBlend in="SourceGraphic" in2="blurOut3" mode="normal"/></filter></defs><g><rect fill="#DDDDDD" height="245.9082" style="stroke:#FFFFFF;stroke-width:1.0;" width="244" x="1" y="6"/><text fill="#000000" font-family="sans-serif" font-size="13" font-weight="bold" lengthAdjust="spacing" textLength="175" x="35.5" y="18.5684">PopularizationApplication</text><line style="stroke:#A80036;stroke-width:1.0;stroke-dasharray:5.0,5.0;" x1="123" x2="123" y1="73.7988" y2="200.4199"/><text fill="#000000" font-family="sans-serif" font-size="14" lengthAdjust="spacing" textLength="230" x="5" y="70.8457">PopularizationApplication.Service</text><ellipse cx="123" cy="41.3105" fill="#FEFECE" filter="url(#f18cich419yeq7)" rx="12" ry="12" style="stroke:#A80036;stroke-width:2.0;"/><line style="stroke:#A80036;stroke-width:2.0;" x1="111" x2="135" y1="55.3105" y2="55.3105"/><text fill="#000000" font-family="sans-serif" font-size="14" lengthAdjust="spacing" textLength="230" x="5" y="212.9551">PopularizationApplication.Service</text><ellipse cx="123" cy="231.9082" fill="#FEFECE" filter="url(#f18cich419yeq7)" rx="12" ry="12" style="stroke:#A80036;stroke-width:2.0;"/><line style="stroke:#A80036;stroke-width:2.0;" x1="111" x2="135" y1="245.9082" y2="245.9082"/><polygon fill="#A80036" points="111,85.7988,121,89.7988,111,93.7988,115,89.7988" style="stroke:#A80036;stroke-width:1.0;"/><line style="stroke:#A80036;stroke-width:1.0;" x1="0" x2="117" y1="89.7988" y2="89.7988"/><path d="M23,102.7988 L23,127.7988 L114,127.7988 L114,112.7988 L104,102.7988 L23,102.7988 " fill="#FBFB77" filter="url(#f18cich419yeq7)" style="stroke:#A80036;stroke-width:1.0;"/><path d="M104,102.7988 L104,112.7988 L114,112.7988 L104,102.7988 " fill="#FBFB77" style="stroke:#A80036;stroke-width:1.0;"/><text fill="#000000" font-family="sans-serif" font-size="13" lengthAdjust="spacing" textLength="70" x="29" y="120.3672">Inner Logic</text><polygon fill="#A80036" points="11,139.1094,1,143.1094,11,147.1094,7,143.1094" style="stroke:#A80036;stroke-width:1.0;"/><line style="stroke:#A80036;stroke-width:1.0;" x1="5" x2="122" y1="143.1094" y2="143.1094"/><path d="M23,156.1094 L23,181.1094 L114,181.1094 L114,166.1094 L104,156.1094 L23,156.1094 " fill="#FBFB77" filter="url(#f18cich419yeq7)" style="stroke:#A80036;stroke-width:1.0;"/><path d="M104,156.1094 L104,166.1094 L114,166.1094 L104,156.1094 " fill="#FBFB77" style="stroke:#A80036;stroke-width:1.0;"/><text fill="#000000" font-family="sans-serif" font-size="13" lengthAdjust="spacing" textLength="70" x="29" y="173.6777">Inner Logic</text><!--MD5=[24fa02b3adf535784bc068bf09a45f3a]
@startuml
skinparam sequence {
    BoxBorderColor WHITE
}
box PopularizationApplication  
entity PopularizationApplication.Service
end box
[-> PopularizationApplication.Service:
Note left of PopularizationApplication.Service:Inner Logic
[<- PopularizationApplication.Service:
Note left of PopularizationApplication.Service:Inner Logic
@enduml

PlantUML version 1.2021.5(Sun Apr 25 19:20:28 CST 2021)
(GPL source distribution)
Java Runtime: OpenJDK Runtime Environment
JVM: OpenJDK 64-Bit Server VM
Default Encoding: UTF-8
Language: en
Country: CN
--></g></svg>