<?xml version="1.0" encoding="UTF-8" standalone="no"?><svg xmlns="http://www.w3.org/2000/svg" xmlns:xlink="http://www.w3.org/1999/xlink" contentScriptType="application/ecmascript" contentStyleType="text/css" height="364px" preserveAspectRatio="none" style="width:816px;height:364px;" version="1.1" viewBox="0 0 816 364" width="816px" zoomAndPan="magnify"><defs><filter height="300%" id="fw6acyubvrha2" width="300%" x="-1" y="-1"><feGaussianBlur result="blurOut" stdDeviation="2.0"/><feColorMatrix in="blurOut" result="blurOut2" type="matrix" values="0 0 0 0 0 0 0 0 0 0 0 0 0 0 0 0 0 0 .4 0"/><feOffset dx="4.0" dy="4.0" in="blurOut2" result="blurOut3"/><feBlend in="SourceGraphic" in2="blurOut3" mode="normal"/></filter></defs><g><rect fill="#DDDDDD" height="352.5293" style="stroke:#FFFFFF;stroke-width:1.0;" width="809" x="1" y="6"/><text fill="#000000" font-family="sans-serif" font-size="13" font-weight="bold" lengthAdjust="spacing" textLength="175" x="318" y="18.5684">PopularizationApplication</text><line style="stroke:#A80036;stroke-width:1.0;stroke-dasharray:5.0,5.0;" x1="137" x2="137" y1="73.7988" y2="307.041"/><line style="stroke:#A80036;stroke-width:1.0;stroke-dasharray:5.0,5.0;" x1="419" x2="419" y1="73.7988" y2="307.041"/><line style="stroke:#A80036;stroke-width:1.0;stroke-dasharray:5.0,5.0;" x1="688" x2="688" y1="73.7988" y2="307.041"/><text fill="#000000" font-family="sans-serif" font-size="14" lengthAdjust="spacing" textLength="258" x="5" y="70.8457">PopularizationApplication.Interceptor</text><ellipse cx="137" cy="41.3105" fill="#FEFECE" filter="url(#fw6acyubvrha2)" rx="12" ry="12" style="stroke:#A80036;stroke-width:2.0;"/><line style="stroke:#A80036;stroke-width:2.0;" x1="125" x2="149" y1="55.3105" y2="55.3105"/><text fill="#000000" font-family="sans-serif" font-size="14" lengthAdjust="spacing" textLength="258" x="5" y="319.5762">PopularizationApplication.Interceptor</text><ellipse cx="137" cy="338.5293" fill="#FEFECE" filter="url(#fw6acyubvrha2)" rx="12" ry="12" style="stroke:#A80036;stroke-width:2.0;"/><line style="stroke:#A80036;stroke-width:2.0;" x1="125" x2="149" y1="352.5293" y2="352.5293"/><text fill="#000000" font-family="sans-serif" font-size="14" lengthAdjust="spacing" textLength="275" x="279" y="70.8457">PopularizationApplication.ApiController</text><ellipse cx="419.5" cy="41.3105" fill="#FEFECE" filter="url(#fw6acyubvrha2)" rx="12" ry="12" style="stroke:#A80036;stroke-width:2.0;"/><line style="stroke:#A80036;stroke-width:2.0;" x1="407.5" x2="431.5" y1="55.3105" y2="55.3105"/><text fill="#000000" font-family="sans-serif" font-size="14" lengthAdjust="spacing" textLength="275" x="279" y="319.5762">PopularizationApplication.ApiController</text><ellipse cx="419.5" cy="338.5293" fill="#FEFECE" filter="url(#fw6acyubvrha2)" rx="12" ry="12" style="stroke:#A80036;stroke-width:2.0;"/><line style="stroke:#A80036;stroke-width:2.0;" x1="407.5" x2="431.5" y1="352.5293" y2="352.5293"/><text fill="#000000" font-family="sans-serif" font-size="14" lengthAdjust="spacing" textLength="230" x="570" y="70.8457">PopularizationApplication.Service</text><ellipse cx="688" cy="41.3105" fill="#FEFECE" filter="url(#fw6acyubvrha2)" rx="12" ry="12" style="stroke:#A80036;stroke-width:2.0;"/><line style="stroke:#A80036;stroke-width:2.0;" x1="676" x2="700" y1="55.3105" y2="55.3105"/><text fill="#000000" font-family="sans-serif" font-size="14" lengthAdjust="spacing" textLength="230" x="570" y="319.5762">PopularizationApplication.Service</text><ellipse cx="688" cy="338.5293" fill="#FEFECE" filter="url(#fw6acyubvrha2)" rx="12" ry="12" style="stroke:#A80036;stroke-width:2.0;"/><line style="stroke:#A80036;stroke-width:2.0;" x1="676" x2="700" y1="352.5293" y2="352.5293"/><ellipse cx="419" cy="89.0488" rx="4" ry="4" style="stroke:#A80036;stroke-width:1.5;fill:none;"/><polygon fill="#A80036" points="402,85.7988,412,89.7988,402,93.7988,406,89.7988" style="stroke:#A80036;stroke-width:1.0;"/><line style="stroke:#A80036;stroke-width:1.0;" x1="137" x2="408" y1="89.7988" y2="89.7988"/><path d="M142,102.7988 L142,127.7988 L247,127.7988 L247,112.7988 L237,102.7988 L142,102.7988 " fill="#FBFB77" filter="url(#fw6acyubvrha2)" style="stroke:#A80036;stroke-width:1.0;"/><path d="M237,102.7988 L237,112.7988 L247,112.7988 L237,102.7988 " fill="#FBFB77" style="stroke:#A80036;stroke-width:1.0;"/><text fill="#000000" font-family="sans-serif" font-size="13" lengthAdjust="spacing" textLength="84" x="148" y="120.3672">Process 32-1</text><ellipse cx="687.5" cy="142.3594" rx="4" ry="4" style="stroke:#A80036;stroke-width:1.5;fill:none;"/><polygon fill="#A80036" points="670.5,139.1094,680.5,143.1094,670.5,147.1094,674.5,143.1094" style="stroke:#A80036;stroke-width:1.0;"/><line style="stroke:#A80036;stroke-width:1.0;" x1="419.5" x2="676.5" y1="143.1094" y2="143.1094"/><path d="M424,156.1094 L424,181.1094 L529,181.1094 L529,166.1094 L519,156.1094 L424,156.1094 " fill="#FBFB77" filter="url(#fw6acyubvrha2)" style="stroke:#A80036;stroke-width:1.0;"/><path d="M519,156.1094 L519,166.1094 L529,166.1094 L519,156.1094 " fill="#FBFB77" style="stroke:#A80036;stroke-width:1.0;"/><text fill="#000000" font-family="sans-serif" font-size="13" lengthAdjust="spacing" textLength="84" x="430" y="173.6777">Process 32-2</text><polygon fill="#A80036" points="430.5,192.4199,420.5,196.4199,430.5,200.4199,426.5,196.4199" style="stroke:#A80036;stroke-width:1.0;"/><ellipse cx="687.5" cy="195.6699" rx="4" ry="4" style="stroke:#A80036;stroke-width:1.5;fill:none;"/><line style="stroke:#A80036;stroke-width:1.0;fill:none;" x1="424.5" x2="683" y1="196.4199" y2="196.4199"/><path d="M574,209.4199 L574,234.4199 L679,234.4199 L679,219.4199 L669,209.4199 L574,209.4199 " fill="#FBFB77" filter="url(#fw6acyubvrha2)" style="stroke:#A80036;stroke-width:1.0;"/><path d="M669,209.4199 L669,219.4199 L679,219.4199 L669,209.4199 " fill="#FBFB77" style="stroke:#A80036;stroke-width:1.0;"/><text fill="#000000" font-family="sans-serif" font-size="13" lengthAdjust="spacing" textLength="84" x="580" y="226.9883">Process 32-2</text><polygon fill="#A80036" points="148,245.7305,138,249.7305,148,253.7305,144,249.7305" style="stroke:#A80036;stroke-width:1.0;"/><ellipse cx="419" cy="248.9805" rx="4" ry="4" style="stroke:#A80036;stroke-width:1.5;fill:none;"/><line style="stroke:#A80036;stroke-width:1.0;fill:none;" x1="142" x2="414.5" y1="249.7305" y2="249.7305"/><path d="M305,262.7305 L305,287.7305 L410,287.7305 L410,272.7305 L400,262.7305 L305,262.7305 " fill="#FBFB77" filter="url(#fw6acyubvrha2)" style="stroke:#A80036;stroke-width:1.0;"/><path d="M400,262.7305 L400,272.7305 L410,272.7305 L400,262.7305 " fill="#FBFB77" style="stroke:#A80036;stroke-width:1.0;"/><text fill="#000000" font-family="sans-serif" font-size="13" lengthAdjust="spacing" textLength="84" x="311" y="280.2988">Process 32-1</text><!--MD5=[77d5188ea900f6ed6a5cdb726598ba60]
@startuml
skinparam sequence {
    BoxBorderColor WHITE
}
box PopularizationApplication  
entity PopularizationApplication.Interceptor
entity PopularizationApplication.ApiController
entity PopularizationApplication.Service
end box
PopularizationApplication.Interceptor ->o PopularizationApplication.ApiController:
Note right of PopularizationApplication.Interceptor:Process 32-1
PopularizationApplication.ApiController ->o PopularizationApplication.Service:
Note right of PopularizationApplication.ApiController:Process 32-2
PopularizationApplication.ApiController <-o PopularizationApplication.Service:
Note left of PopularizationApplication.Service:Process 32-2
PopularizationApplication.Interceptor <-o PopularizationApplication.ApiController:
Note left of PopularizationApplication.ApiController:Process 32-1
@enduml

PlantUML version 1.2021.5(Sun Apr 25 19:20:28 CST 2021)
(GPL source distribution)
Java Runtime: OpenJDK Runtime Environment
JVM: OpenJDK 64-Bit Server VM
Default Encoding: UTF-8
Language: en
Country: CN
--></g></svg>