<?xml version="1.0" encoding="UTF-8" standalone="no"?><svg xmlns="http://www.w3.org/2000/svg" xmlns:xlink="http://www.w3.org/1999/xlink" contentScriptType="application/ecmascript" contentStyleType="text/css" height="866px" preserveAspectRatio="none" style="width:3626px;height:866px;" version="1.1" viewBox="0 0 3626 866" width="3626px" zoomAndPan="magnify"><defs><filter height="300%" id="f1g1hn8pb33h73" width="300%" x="-1" y="-1"><feGaussianBlur result="blurOut" stdDeviation="2.0"/><feColorMatrix in="blurOut" result="blurOut2" type="matrix" values="0 0 0 0 0 0 0 0 0 0 0 0 0 0 0 0 0 0 .4 0"/><feOffset dx="4.0" dy="4.0" in="blurOut2" result="blurOut3"/><feBlend in="SourceGraphic" in2="blurOut3" mode="normal"/></filter></defs><g><!--MD5=[fca8240bc233c06068545f9c8883ae88]
cluster Frontend--><polygon fill="#FFFFFF" filter="url(#f1g1hn8pb33h73)" points="1616,6,1686,6,1693,28.4883,3609,28.4883,3609,266,1616,266,1616,6" style="stroke:#000000;stroke-width:1.5;"/><line style="stroke:#000000;stroke-width:1.5;" x1="1616" x2="1693" y1="28.4883" y2="28.4883"/><text fill="#000000" font-family="sans-serif" font-size="14" font-weight="bold" lengthAdjust="spacing" textLength="64" x="1620" y="21.5352">Frontend</text><!--MD5=[70a18483d462b5b8afbe4b2392687415]
cluster BFF--><polygon fill="#FFFFFF" filter="url(#f1g1hn8pb33h73)" points="322,136,353,136,360,158.4883,1576,158.4883,1576,266,322,266,322,136" style="stroke:#000000;stroke-width:1.5;"/><line style="stroke:#000000;stroke-width:1.5;" x1="322" x2="360" y1="158.4883" y2="158.4883"/><text fill="#000000" font-family="sans-serif" font-size="14" font-weight="bold" lengthAdjust="spacing" textLength="25" x="326" y="151.5352">BFF</text><!--MD5=[ddf54e150db78e71a1f11b9d8db98453]
cluster ApplicationService--><polygon fill="#FFFFFF" filter="url(#f1g1hn8pb33h73)" points="16,306,154,306,161,328.4883,1069,328.4883,1069,566,16,566,16,306" style="stroke:#000000;stroke-width:1.5;"/><line style="stroke:#000000;stroke-width:1.5;" x1="16" x2="161" y1="328.4883" y2="328.4883"/><text fill="#000000" font-family="sans-serif" font-size="14" font-weight="bold" lengthAdjust="spacing" textLength="132" x="20" y="321.5352">ApplicationService</text><!--MD5=[96c99a30aa303e03f95727d14bc604d9]
cluster CoreBizService--><polygon fill="#FFFFFF" filter="url(#f1g1hn8pb33h73)" points="1109,436,1220,436,1227,458.4883,2035,458.4883,2035,566,1109,566,1109,436" style="stroke:#000000;stroke-width:1.5;"/><line style="stroke:#000000;stroke-width:1.5;" x1="1109" x2="1227" y1="458.4883" y2="458.4883"/><text fill="#000000" font-family="sans-serif" font-size="14" font-weight="bold" lengthAdjust="spacing" textLength="105" x="1113" y="451.5352">CoreBizService</text><!--MD5=[81dd091be11d8b44591fcecc3628662e]
cluster DomainService--><polygon fill="#FFFFFF" filter="url(#f1g1hn8pb33h73)" points="1486,606,1598,606,1605,628.4883,2366,628.4883,2366,859,1486,859,1486,606" style="stroke:#000000;stroke-width:1.5;"/><line style="stroke:#000000;stroke-width:1.5;" x1="1486" x2="1605" y1="628.4883" y2="628.4883"/><text fill="#000000" font-family="sans-serif" font-size="14" font-weight="bold" lengthAdjust="spacing" textLength="106" x="1490" y="621.5352">DomainService</text><!--MD5=[58671fa3fbaf455c75d53a229c1bf345]
entity GeneralWebPortal--><rect fill="#FEFECE" filter="url(#f1g1hn8pb33h73)" height="62.9766" style="stroke:#A80036;stroke-width:1.5;" width="498" x="2340" y="49"/><rect fill="#FEFECE" height="10" style="stroke:#A80036;stroke-width:1.5;" width="15" x="2818" y="54"/><rect fill="#FEFECE" height="2" style="stroke:#A80036;stroke-width:1.5;" width="4" x="2816" y="56"/><rect fill="#FEFECE" height="2" style="stroke:#A80036;stroke-width:1.5;" width="4" x="2816" y="60"/><text fill="#000000" font-family="sans-serif" font-size="14" lengthAdjust="spacing" textLength="122" x="2355" y="82.5352">GeneralWebPortal</text><text fill="#000000" font-family="sans-serif" font-size="14" lengthAdjust="spacing" textLength="458" x="2355" y="99.0234">思沃租房通用版Web端: 供浏览用戶、个人用戶和经纪人用戶使用Web访问</text><!--MD5=[d6061c3eda92f21a6cac9133292bc7a7]
entity IndividualApp4Android--><rect fill="#FEFECE" filter="url(#f1g1hn8pb33h73)" height="62.9766" style="stroke:#A80036;stroke-width:1.5;" width="712" x="2873" y="49"/><rect fill="#FEFECE" height="10" style="stroke:#A80036;stroke-width:1.5;" width="15" x="3565" y="54"/><rect fill="#FEFECE" height="2" style="stroke:#A80036;stroke-width:1.5;" width="4" x="3563" y="56"/><rect fill="#FEFECE" height="2" style="stroke:#A80036;stroke-width:1.5;" width="4" x="3563" y="60"/><text fill="#000000" font-family="sans-serif" font-size="14" lengthAdjust="spacing" textLength="160" x="2888" y="82.5352">IndividualApp4Android</text><text fill="#000000" font-family="sans-serif" font-size="14" lengthAdjust="spacing" textLength="672" x="2888" y="99.0234">思沃租房App个人版Android端: 供浏览用戶、个人用戶使用Android端APP访问, 以完成个人用戶相关的功能</text><!--MD5=[fa0cb65f76cf89fce2e6f3da51383a3b]
entity IndividualApp4IOS--><rect fill="#FEFECE" filter="url(#f1g1hn8pb33h73)" height="62.9766" style="stroke:#A80036;stroke-width:1.5;" width="646" x="1659" y="49"/><rect fill="#FEFECE" height="10" style="stroke:#A80036;stroke-width:1.5;" width="15" x="2285" y="54"/><rect fill="#FEFECE" height="2" style="stroke:#A80036;stroke-width:1.5;" width="4" x="2283" y="56"/><rect fill="#FEFECE" height="2" style="stroke:#A80036;stroke-width:1.5;" width="4" x="2283" y="60"/><text fill="#000000" font-family="sans-serif" font-size="14" lengthAdjust="spacing" textLength="127" x="1674" y="82.5352">IndividualApp4IOS</text><text fill="#000000" font-family="sans-serif" font-size="14" lengthAdjust="spacing" textLength="606" x="1674" y="99.0234">思沃租房App个人版IOS端: 供浏览用戶、个人用戶使用IOS端APP访问, 以完成个人用戶相关的功能</text><!--MD5=[ba49af3d4af5d3ef1f0e1c6b87cd5338]
entity OfficerApp4Android--><rect fill="#FEFECE" filter="url(#f1g1hn8pb33h73)" height="62.9766" style="stroke:#A80036;stroke-width:1.5;" width="656" x="1749" y="179"/><rect fill="#FEFECE" height="10" style="stroke:#A80036;stroke-width:1.5;" width="15" x="2385" y="184"/><rect fill="#FEFECE" height="2" style="stroke:#A80036;stroke-width:1.5;" width="4" x="2383" y="186"/><rect fill="#FEFECE" height="2" style="stroke:#A80036;stroke-width:1.5;" width="4" x="2383" y="190"/><text fill="#000000" font-family="sans-serif" font-size="14" lengthAdjust="spacing" textLength="139" x="1764" y="212.5352">OfficerApp4Android</text><text fill="#000000" font-family="sans-serif" font-size="14" lengthAdjust="spacing" textLength="616" x="1764" y="229.0234">思沃租房App经纪人版Android端: 供经纪人用戶使用Android端APP访问, 以完成经纪人相关的功能</text><!--MD5=[e9002796d4223aaa0bfa182b3b813768]
entity OfficerApp4IOS--><rect fill="#FEFECE" filter="url(#f1g1hn8pb33h73)" height="62.9766" style="stroke:#A80036;stroke-width:1.5;" width="590" x="2440" y="179"/><rect fill="#FEFECE" height="10" style="stroke:#A80036;stroke-width:1.5;" width="15" x="3010" y="184"/><rect fill="#FEFECE" height="2" style="stroke:#A80036;stroke-width:1.5;" width="4" x="3008" y="186"/><rect fill="#FEFECE" height="2" style="stroke:#A80036;stroke-width:1.5;" width="4" x="3008" y="190"/><text fill="#000000" font-family="sans-serif" font-size="14" lengthAdjust="spacing" textLength="106" x="2455" y="212.5352">OfficerApp4IOS</text><text fill="#000000" font-family="sans-serif" font-size="14" lengthAdjust="spacing" textLength="550" x="2455" y="229.0234">思沃租房App经纪人版IOS端: 供经纪人用戶使用IOS端APP访问, 以完成经纪人相关的功能</text><!--MD5=[9e7ccafa94a2df40cdc0284f3770afa4]
entity ManagementPortal--><rect fill="#FEFECE" filter="url(#f1g1hn8pb33h73)" height="62.9766" style="stroke:#A80036;stroke-width:1.5;" width="520" x="3065" y="179"/><rect fill="#FEFECE" height="10" style="stroke:#A80036;stroke-width:1.5;" width="15" x="3565" y="184"/><rect fill="#FEFECE" height="2" style="stroke:#A80036;stroke-width:1.5;" width="4" x="3563" y="186"/><rect fill="#FEFECE" height="2" style="stroke:#A80036;stroke-width:1.5;" width="4" x="3563" y="190"/><text fill="#000000" font-family="sans-serif" font-size="14" lengthAdjust="spacing" textLength="129" x="3080" y="212.5352">ManagementPortal</text><text fill="#000000" font-family="sans-serif" font-size="14" lengthAdjust="spacing" textLength="480" x="3080" y="229.0234">后台管理系统Web端: 供思沃租房工作人员使用Web访问, 以完成后台管理功能</text><!--MD5=[5a91b58eda4c6d9667cf80efb30fb2e1]
entity WebApiBff--><rect fill="#FEFECE" filter="url(#f1g1hn8pb33h73)" height="62.9766" style="stroke:#A80036;stroke-width:1.5;" width="458" x="1094" y="179"/><rect fill="#FEFECE" height="10" style="stroke:#A80036;stroke-width:1.5;" width="15" x="1532" y="184"/><rect fill="#FEFECE" height="2" style="stroke:#A80036;stroke-width:1.5;" width="4" x="1530" y="186"/><rect fill="#FEFECE" height="2" style="stroke:#A80036;stroke-width:1.5;" width="4" x="1530" y="190"/><text fill="#000000" font-family="sans-serif" font-size="14" lengthAdjust="spacing" textLength="70" x="1109" y="212.5352">WebApiBff</text><text fill="#000000" font-family="sans-serif" font-size="14" lengthAdjust="spacing" textLength="418" x="1109" y="229.0234">思沃租房Web Bff: 基于后端应用服务, 服务于思沃租房通用版Web端</text><!--MD5=[806b6cf7e381f03c0ddf55220dd7a77c]
entity MobileApiBff--><rect fill="#FEFECE" filter="url(#f1g1hn8pb33h73)" height="62.9766" style="stroke:#A80036;stroke-width:1.5;" width="693" x="365.5" y="179"/><rect fill="#FEFECE" height="10" style="stroke:#A80036;stroke-width:1.5;" width="15" x="1038.5" y="184"/><rect fill="#FEFECE" height="2" style="stroke:#A80036;stroke-width:1.5;" width="4" x="1036.5" y="186"/><rect fill="#FEFECE" height="2" style="stroke:#A80036;stroke-width:1.5;" width="4" x="1036.5" y="190"/><text fill="#000000" font-family="sans-serif" font-size="14" lengthAdjust="spacing" textLength="87" x="380.5" y="212.5352">MobileApiBff</text><text fill="#000000" font-family="sans-serif" font-size="14" lengthAdjust="spacing" textLength="653" x="380.5" y="229.0234">思沃租房Mobile Bff: 基于后端应用服务, 服务于思沃租房通APP, 包括个人版和经纪人版, Android和IOS端</text><!--MD5=[8b2a0163ece511edf6fcc28fa8e06f8e]
entity ManagementApplication--><rect fill="#FEFECE" filter="url(#f1g1hn8pb33h73)" height="62.9766" style="stroke:#A80036;stroke-width:1.5;" width="419" x="40.5" y="349"/><rect fill="#FEFECE" height="10" style="stroke:#A80036;stroke-width:1.5;" width="15" x="439.5" y="354"/><rect fill="#FEFECE" height="2" style="stroke:#A80036;stroke-width:1.5;" width="4" x="437.5" y="356"/><rect fill="#FEFECE" height="2" style="stroke:#A80036;stroke-width:1.5;" width="4" x="437.5" y="360"/><text fill="#000000" font-family="sans-serif" font-size="14" lengthAdjust="spacing" textLength="167" x="55.5" y="382.5352">ManagementApplication</text><text fill="#000000" font-family="sans-serif" font-size="14" lengthAdjust="spacing" textLength="379" x="55.5" y="399.0234">后台管理应用服务: 向前端服务/应用提供后台管理的功能接口</text><!--MD5=[c635079030528be04812c46304ac6bcf]
entity PopularizationApplication--><rect fill="#FEFECE" filter="url(#f1g1hn8pb33h73)" height="62.9766" style="stroke:#A80036;stroke-width:1.5;" width="531" x="494.5" y="349"/><rect fill="#FEFECE" height="10" style="stroke:#A80036;stroke-width:1.5;" width="15" x="1005.5" y="354"/><rect fill="#FEFECE" height="2" style="stroke:#A80036;stroke-width:1.5;" width="4" x="1003.5" y="356"/><rect fill="#FEFECE" height="2" style="stroke:#A80036;stroke-width:1.5;" width="4" x="1003.5" y="360"/><text fill="#000000" font-family="sans-serif" font-size="14" lengthAdjust="spacing" textLength="178" x="509.5" y="382.5352">PopularizationApplication</text><text fill="#000000" font-family="sans-serif" font-size="14" lengthAdjust="spacing" textLength="491" x="509.5" y="399.0234">推广服务应用服务: 向前端服务/应用提供推广服务和与充值服务相关的功能接口</text><!--MD5=[c339fe5b3668dc1fac63d7cf195cea12]
entity RentalApplication--><rect fill="#FEFECE" filter="url(#f1g1hn8pb33h73)" height="62.9766" style="stroke:#A80036;stroke-width:1.5;" width="629" x="40.5" y="479"/><rect fill="#FEFECE" height="10" style="stroke:#A80036;stroke-width:1.5;" width="15" x="649.5" y="484"/><rect fill="#FEFECE" height="2" style="stroke:#A80036;stroke-width:1.5;" width="4" x="647.5" y="486"/><rect fill="#FEFECE" height="2" style="stroke:#A80036;stroke-width:1.5;" width="4" x="647.5" y="490"/><text fill="#000000" font-family="sans-serif" font-size="14" lengthAdjust="spacing" textLength="121" x="55.5" y="512.5352">RentalApplication</text><text fill="#000000" font-family="sans-serif" font-size="14" lengthAdjust="spacing" textLength="589" x="55.5" y="529.0234">租赁信息应用服务: 向前端服务/应用提供租赁信息的展示、搜索、发布、更新、下架等功能接口</text><!--MD5=[25a316f11a775454ef1ed166a4145b65]
entity PopularizationService--><rect fill="#FEFECE" filter="url(#f1g1hn8pb33h73)" height="62.9766" style="stroke:#A80036;stroke-width:1.5;" width="426" x="1585" y="479"/><rect fill="#FEFECE" height="10" style="stroke:#A80036;stroke-width:1.5;" width="15" x="1991" y="484"/><rect fill="#FEFECE" height="2" style="stroke:#A80036;stroke-width:1.5;" width="4" x="1989" y="486"/><rect fill="#FEFECE" height="2" style="stroke:#A80036;stroke-width:1.5;" width="4" x="1989" y="490"/><text fill="#000000" font-family="sans-serif" font-size="14" lengthAdjust="spacing" textLength="148" x="1600" y="512.5352">PopularizationService</text><text fill="#000000" font-family="sans-serif" font-size="14" lengthAdjust="spacing" textLength="386" x="1600" y="529.0234">信息推广服务: 提供信息推广服务协议上下文中的业务能力接口</text><!--MD5=[6e781d81842fd993c668c75059b40aa6]
entity PrepaidService--><rect fill="#FEFECE" filter="url(#f1g1hn8pb33h73)" height="62.9766" style="stroke:#A80036;stroke-width:1.5;" width="398" x="1152" y="479"/><rect fill="#FEFECE" height="10" style="stroke:#A80036;stroke-width:1.5;" width="15" x="1530" y="484"/><rect fill="#FEFECE" height="2" style="stroke:#A80036;stroke-width:1.5;" width="4" x="1528" y="486"/><rect fill="#FEFECE" height="2" style="stroke:#A80036;stroke-width:1.5;" width="4" x="1528" y="490"/><text fill="#000000" font-family="sans-serif" font-size="14" lengthAdjust="spacing" textLength="100" x="1167" y="512.5352">PrepaidService</text><text fill="#000000" font-family="sans-serif" font-size="14" lengthAdjust="spacing" textLength="358" x="1167" y="529.0234">预充值服务: 提供预充值服务协议上下文中的业务能力接口</text><!--MD5=[aca1dd5cdc865beae83f446f8f893f64]
entity AuthenticationService--><rect fill="#FEFECE" filter="url(#f1g1hn8pb33h73)" height="62.9766" style="stroke:#A80036;stroke-width:1.5;" width="342" x="1529" y="649"/><rect fill="#FEFECE" height="10" style="stroke:#A80036;stroke-width:1.5;" width="15" x="1851" y="654"/><rect fill="#FEFECE" height="2" style="stroke:#A80036;stroke-width:1.5;" width="4" x="1849" y="656"/><rect fill="#FEFECE" height="2" style="stroke:#A80036;stroke-width:1.5;" width="4" x="1849" y="660"/><text fill="#000000" font-family="sans-serif" font-size="14" lengthAdjust="spacing" textLength="149" x="1544" y="682.5352">AuthenticationService</text><text fill="#000000" font-family="sans-serif" font-size="14" lengthAdjust="spacing" textLength="302" x="1544" y="699.0234">鉴权认证服务: 负责提供用戶的身份和鉴权等功能</text><!--MD5=[4340d86e4e49e3a9ca9a7aa88e9bb6a7]
entity RentalInfoMgmtService--><rect fill="#FEFECE" filter="url(#f1g1hn8pb33h73)" height="62.9766" style="stroke:#A80036;stroke-width:1.5;" width="436" x="1906" y="649"/><rect fill="#FEFECE" height="10" style="stroke:#A80036;stroke-width:1.5;" width="15" x="2322" y="654"/><rect fill="#FEFECE" height="2" style="stroke:#A80036;stroke-width:1.5;" width="4" x="2320" y="656"/><rect fill="#FEFECE" height="2" style="stroke:#A80036;stroke-width:1.5;" width="4" x="2320" y="660"/><text fill="#000000" font-family="sans-serif" font-size="14" lengthAdjust="spacing" textLength="157" x="1921" y="682.5352">RentalInfoMgmtService</text><text fill="#000000" font-family="sans-serif" font-size="14" lengthAdjust="spacing" textLength="396" x="1921" y="699.0234">房屋信息管理系统: 存储、查询和管理房屋租赁信息的 CMS 系统</text><!--MD5=[f30bc7932f1cb4011b90aa752ddd2dd0]
entity UserManagementService--><rect fill="#FEFECE" filter="url(#f1g1hn8pb33h73)" height="62.9766" style="stroke:#A80036;stroke-width:1.5;" width="458" x="1529" y="772"/><rect fill="#FEFECE" height="10" style="stroke:#A80036;stroke-width:1.5;" width="15" x="1967" y="777"/><rect fill="#FEFECE" height="2" style="stroke:#A80036;stroke-width:1.5;" width="4" x="1965" y="779"/><rect fill="#FEFECE" height="2" style="stroke:#A80036;stroke-width:1.5;" width="4" x="1965" y="783"/><text fill="#000000" font-family="sans-serif" font-size="14" lengthAdjust="spacing" textLength="168" x="1544" y="805.5352">UserManagementService</text><text fill="#000000" font-family="sans-serif" font-size="14" lengthAdjust="spacing" textLength="418" x="1544" y="822.0234">用戶账戶管理系统: 负责管理用戶账戶,包括常⻅的用戶账戶相关功能</text><!--MD5=[b8cc69bf0a9f57b152508742333340cf]
link Frontend to BFF--><path d="M1614.9304,81.4552 C1613.103,81.4467 1611.0093,81.4372 1608.6581,81.427 C1599.2534,81.3862 1585.7299,81.3338 1568.6636,81.284 C1534.5309,81.1844 1486.2269,81.0953 1428.3587,81.1313 C1312.6225,81.2031 1158.63,81.775 1003.24,83.7625 C692.46,87.7375 376.09,97.375 349,120 C345.16,123.2075 341.9773,126.9808 339.3484,131.132 C338.6912,132.1698 338.0685,133.2313 337.4789,134.3134 C337.1841,134.8545 336.8975,135.4007 336.619,135.9517 " fill="none" id="Frontend-BFF" style="stroke:#A80036;stroke-width:1.0;"/><!--MD5=[0af7cfd850ac7561aa73b6ebb787c4a4]
link BFF to ApplicationService--><path d="M336.8345,266.325 C336.8871,266.4353 336.94,266.5454 336.9932,266.6554 C337.0998,266.8752 337.2076,267.0942 337.317,267.3124 C337.5356,267.7488 337.7598,268.1818 337.9899,268.6111 C338.91,270.3285 339.9225,271.9874 341.0362,273.5696 C343.2634,276.7342 345.895,279.5925 349,282 C364.21,293.8 1027.11,277.8 1042,290 C1045.87,293.1713 1049.0753,296.9172 1051.7209,301.0484 C1052.3823,302.0812 1053.0087,303.138 1053.6018,304.216 C1053.8984,304.755 1054.1866,305.2993 1054.4666,305.8485 " fill="none" id="BFF-ApplicationService" style="stroke:#A80036;stroke-width:1.0;"/><!--MD5=[c27bac0a3703d2f14ad9b99b9c58ee70]
link ApplicationService to CoreBizService--><path d="M1069.0643,399.9314 C1069.1414,400.1076 1069.2189,400.2847 1069.2968,400.4629 C1069.6085,401.1753 1069.9269,401.9029 1070.2514,402.6447 C1075.4441,414.5131 1082.2281,430.0188 1089.0113,445.5225 C1095.7944,461.0263 1102.5766,476.5281 1107.7655,488.3891 C1108.0898,489.1304 1108.4079,489.8575 1108.7193,490.5694 C1108.7972,490.7474 1108.8747,490.9245 1108.9517,491.1006 " fill="none" id="ApplicationService-CoreBizService" style="stroke:#A80036;stroke-width:1.0;"/><!--MD5=[7518ba66c1a70f32818b5969f48866c1]
link CoreBizService to DomainService--><path d="M1125.3544,566.1337 C1125.5595,566.5855 1125.7693,567.0349 1125.984,567.4816 C1126.8427,569.2687 1127.7794,571.0138 1128.8007,572.7009 C1130.8434,576.0752 1133.225,579.2175 1136,582 C1164.885,610.96 1253.2175,635.1825 1334.9063,652.24 C1375.7506,660.7688 1414.9341,667.5063 1444.1952,672.1491 C1458.8257,674.4705 1470.9757,676.2682 1479.6124,677.5043 C1481.7715,677.8134 1483.7111,678.0873 1485.415,678.3255 " fill="none" id="CoreBizService-DomainService" style="stroke:#A80036;stroke-width:1.0;"/><!--MD5=[10d8b485c85aa8a54cc39880ee6db480]
link GeneralWebPortal to IndividualApp4Android--><!--MD5=[123d36ba5e9fa6e83822aec2340b21ff]
link IndividualApp4Android to IndividualApp4IOS--><!--MD5=[db89579551eb25cf76f7b6ca990598c3]
link GeneralWebPortal to OfficerApp4Android--><!--MD5=[d623e7a8290a2fbd3942fff5264a51e2]
link OfficerApp4Android to OfficerApp4IOS--><!--MD5=[4fdc91d1d0405f9a19dfc6a641cbc9ef]
link OfficerApp4IOS to ManagementPortal--><!--MD5=[dde70f3e96991576e0327c2707e5e083]
link ManagementApplication to PopularizationApplication--><!--MD5=[be518713a321cd421cf2773aff22591f]
link ManagementApplication to RentalApplication--><!--MD5=[7f0c5438f257b3578bda8a5c4f1faa3e]
link AuthenticationService to RentalInfoMgmtService--><!--MD5=[6b5d913d3e8ec0d5b19cfe13b84104eb]
link AuthenticationService to UserManagementService--><!--MD5=[1301c438939347dee7684510c7836c2e]
link IndividualApp4IOS to ManagementApplication--><!--MD5=[dae860d6fc2c01b4c95928ee06ac763d]
link OfficerApp4Android to AuthenticationService--><!--MD5=[15818962d0fa9e7e7f6c8a4692bb5e06]
@startuml
package "Frontend" {
  component GeneralWebPortal [
    GeneralWebPortal
    思沃租房通用版Web端: 供浏览用戶、个人用戶和经纪人用戶使用Web访问
  ]
  component IndividualApp4Android [
    IndividualApp4Android
    思沃租房App个人版Android端: 供浏览用戶、个人用戶使用Android端APP访问, 以完成个人用戶相关的功能
  ]
  component IndividualApp4IOS [
    IndividualApp4IOS
    思沃租房App个人版IOS端: 供浏览用戶、个人用戶使用IOS端APP访问, 以完成个人用戶相关的功能
  ]
  component OfficerApp4Android [
    OfficerApp4Android
    思沃租房App经纪人版Android端: 供经纪人用戶使用Android端APP访问, 以完成经纪人相关的功能
  ]
  component OfficerApp4IOS [
    OfficerApp4IOS
    思沃租房App经纪人版IOS端: 供经纪人用戶使用IOS端APP访问, 以完成经纪人相关的功能
  ]
  component ManagementPortal [
    ManagementPortal
    后台管理系统Web端: 供思沃租房工作人员使用Web访问, 以完成后台管理功能
  ]
}
package "BFF" {
  component WebApiBff [
    WebApiBff
    思沃租房Web Bff: 基于后端应用服务, 服务于思沃租房通用版Web端
  ]
  component MobileApiBff [
    MobileApiBff
    思沃租房Mobile Bff: 基于后端应用服务, 服务于思沃租房通APP, 包括个人版和经纪人版, Android和IOS端
  ]
}
package "ApplicationService" {
  component ManagementApplication [
    ManagementApplication
    后台管理应用服务: 向前端服务/应用提供后台管理的功能接口
  ]
  component PopularizationApplication [
    PopularizationApplication
    推广服务应用服务: 向前端服务/应用提供推广服务和与充值服务相关的功能接口
  ]
  component RentalApplication [
    RentalApplication
    租赁信息应用服务: 向前端服务/应用提供租赁信息的展示、搜索、发布、更新、下架等功能接口
  ]
}
package "CoreBizService" {
  component PopularizationService [
    PopularizationService
    信息推广服务: 提供信息推广服务协议上下文中的业务能力接口
  ]
  component PrepaidService [
    PrepaidService
    预充值服务: 提供预充值服务协议上下文中的业务能力接口
  ]
}
package "DomainService" {
  component AuthenticationService [
    AuthenticationService
    鉴权认证服务: 负责提供用戶的身份和鉴权等功能
  ]
  component RentalInfoMgmtService [
    RentalInfoMgmtService
    房屋信息管理系统: 存储、查询和管理房屋租赁信息的 CMS 系统
  ]
  component UserManagementService [
    UserManagementService
    用戶账戶管理系统: 负责管理用戶账戶,包括常⻅的用戶账戶相关功能
  ]
}
"Frontend" -d- "BFF"
"BFF" -d- "ApplicationService"
"ApplicationService" -d- "CoreBizService"
"CoreBizService" -d- "DomainService"
@enduml

PlantUML version 1.2021.5(Sun Apr 25 19:20:28 CST 2021)
(GPL source distribution)
Java Runtime: OpenJDK Runtime Environment
JVM: OpenJDK 64-Bit Server VM
Default Encoding: UTF-8
Language: en
Country: CN
--></g></svg>