<?xml version="1.0" encoding="UTF-8" standalone="no"?><svg xmlns="http://www.w3.org/2000/svg" xmlns:xlink="http://www.w3.org/1999/xlink" contentScriptType="application/ecmascript" contentStyleType="text/css" height="127px" preserveAspectRatio="none" style="width:1056px;height:127px;" version="1.1" viewBox="0 0 1056 127" width="1056px" zoomAndPan="magnify"><defs><filter height="300%" id="f1puivtyc6spwz" width="300%" x="-1" y="-1"><feGaussianBlur result="blurOut" stdDeviation="2.0"/><feColorMatrix in="blurOut" result="blurOut2" type="matrix" values="0 0 0 0 0 0 0 0 0 0 0 0 0 0 0 0 0 0 .4 0"/><feOffset dx="4.0" dy="4.0" in="blurOut2" result="blurOut3"/><feBlend in="SourceGraphic" in2="blurOut3" mode="normal"/></filter></defs><g><!--MD5=[36d966c8da22f754e05bf9082953d502]
cluster Authentication--><polygon fill="#FFFFFF" filter="url(#f1puivtyc6spwz)" points="16,6,128,6,135,28.4883,190,28.4883,190,120,16,120,16,6" style="stroke:#000000;stroke-width:1.5;"/><line style="stroke:#000000;stroke-width:1.5;" x1="16" x2="135" y1="28.4883" y2="28.4883"/><text fill="#000000" font-family="sans-serif" font-size="14" font-weight="bold" lengthAdjust="spacing" textLength="106" x="20" y="21.5352">Authentication</text><!--MD5=[1f2cfc53d9d308f53762fd0fcbaa4873]
cluster Controller--><polygon fill="#FFFFFF" filter="url(#f1puivtyc6spwz)" points="214,6,293,6,300,28.4883,567,28.4883,567,120,214,120,214,6" style="stroke:#000000;stroke-width:1.5;"/><line style="stroke:#000000;stroke-width:1.5;" x1="214" x2="300" y1="28.4883" y2="28.4883"/><text fill="#000000" font-family="sans-serif" font-size="14" font-weight="bold" lengthAdjust="spacing" textLength="73" x="218" y="21.5352">Controller</text><!--MD5=[9dd75fd92da113d30380b27734fd2f01]
cluster Service--><polygon fill="#FFFFFF" filter="url(#f1puivtyc6spwz)" points="591,6,647,6,654,28.4883,804,28.4883,804,120,591,120,591,6" style="stroke:#000000;stroke-width:1.5;"/><line style="stroke:#000000;stroke-width:1.5;" x1="591" x2="654" y1="28.4883" y2="28.4883"/><text fill="#000000" font-family="sans-serif" font-size="14" font-weight="bold" lengthAdjust="spacing" textLength="50" x="595" y="21.5352">Service</text><!--MD5=[406b65fecc21e832f7a9b6ebadc6dce1]
cluster Client--><polygon fill="#FFFFFF" filter="url(#f1puivtyc6spwz)" points="828,6,877,6,884,28.4883,1039,28.4883,1039,120,828,120,828,6" style="stroke:#000000;stroke-width:1.5;"/><line style="stroke:#000000;stroke-width:1.5;" x1="828" x2="884" y1="28.4883" y2="28.4883"/><text fill="#000000" font-family="sans-serif" font-size="14" font-weight="bold" lengthAdjust="spacing" textLength="43" x="832" y="21.5352">Client</text><!--MD5=[2761986561326581c43d55402af5f14e]
entity Authentication--><rect fill="#FEFECE" filter="url(#f1puivtyc6spwz)" height="62.9766" style="stroke:#A80036;stroke-width:1.5;" width="141" x="32.5" y="41"/><rect fill="#FEFECE" height="10" style="stroke:#A80036;stroke-width:1.5;" width="15" x="153.5" y="46"/><rect fill="#FEFECE" height="2" style="stroke:#A80036;stroke-width:1.5;" width="4" x="151.5" y="48"/><rect fill="#FEFECE" height="2" style="stroke:#A80036;stroke-width:1.5;" width="4" x="151.5" y="52"/><text fill="#000000" font-family="sans-serif" font-size="14" lengthAdjust="spacing" textLength="101" x="47.5" y="74.5352">Authentication</text><text fill="#000000" font-family="sans-serif" font-size="14" lengthAdjust="spacing" textLength="0" x="51.5" y="91.0234"/><!--MD5=[1446ea5c6bdb11163db0d63b6fa3d285]
entity CacheController--><rect fill="#FEFECE" filter="url(#f1puivtyc6spwz)" height="62.9766" style="stroke:#A80036;stroke-width:1.5;" width="152" x="399" y="41"/><rect fill="#FEFECE" height="10" style="stroke:#A80036;stroke-width:1.5;" width="15" x="531" y="46"/><rect fill="#FEFECE" height="2" style="stroke:#A80036;stroke-width:1.5;" width="4" x="529" y="48"/><rect fill="#FEFECE" height="2" style="stroke:#A80036;stroke-width:1.5;" width="4" x="529" y="52"/><text fill="#000000" font-family="sans-serif" font-size="14" lengthAdjust="spacing" textLength="112" x="414" y="74.5352">CacheController</text><text fill="#000000" font-family="sans-serif" font-size="14" lengthAdjust="spacing" textLength="0" x="418" y="91.0234"/><!--MD5=[501d42c7dc6b4d142c9795caf055397e]
entity ApiController--><rect fill="#FEFECE" filter="url(#f1puivtyc6spwz)" height="62.9766" style="stroke:#A80036;stroke-width:1.5;" width="133" x="230.5" y="41"/><rect fill="#FEFECE" height="10" style="stroke:#A80036;stroke-width:1.5;" width="15" x="343.5" y="46"/><rect fill="#FEFECE" height="2" style="stroke:#A80036;stroke-width:1.5;" width="4" x="341.5" y="48"/><rect fill="#FEFECE" height="2" style="stroke:#A80036;stroke-width:1.5;" width="4" x="341.5" y="52"/><text fill="#000000" font-family="sans-serif" font-size="14" lengthAdjust="spacing" textLength="93" x="245.5" y="74.5352">ApiController</text><text fill="#000000" font-family="sans-serif" font-size="14" lengthAdjust="spacing" textLength="0" x="249.5" y="91.0234"/><!--MD5=[17737e49c286898813382e12d6080e03]
entity Service--><rect fill="#FEFECE" filter="url(#f1puivtyc6spwz)" height="62.9766" style="stroke:#A80036;stroke-width:1.5;" width="88" x="700" y="41"/><rect fill="#FEFECE" height="10" style="stroke:#A80036;stroke-width:1.5;" width="15" x="768" y="46"/><rect fill="#FEFECE" height="2" style="stroke:#A80036;stroke-width:1.5;" width="4" x="766" y="48"/><rect fill="#FEFECE" height="2" style="stroke:#A80036;stroke-width:1.5;" width="4" x="766" y="52"/><text fill="#000000" font-family="sans-serif" font-size="14" lengthAdjust="spacing" textLength="48" x="715" y="74.5352">Service</text><text fill="#000000" font-family="sans-serif" font-size="14" lengthAdjust="spacing" textLength="0" x="719" y="91.0234"/><!--MD5=[6d3f8430fff4e2499851e0c8b37e3ae3]
entity Vo--><rect fill="#FEFECE" filter="url(#f1puivtyc6spwz)" height="62.9766" style="stroke:#A80036;stroke-width:1.5;" width="58" x="607" y="41"/><rect fill="#FEFECE" height="10" style="stroke:#A80036;stroke-width:1.5;" width="15" x="645" y="46"/><rect fill="#FEFECE" height="2" style="stroke:#A80036;stroke-width:1.5;" width="4" x="643" y="48"/><rect fill="#FEFECE" height="2" style="stroke:#A80036;stroke-width:1.5;" width="4" x="643" y="52"/><text fill="#000000" font-family="sans-serif" font-size="14" lengthAdjust="spacing" textLength="18" x="622" y="74.5352">Vo</text><text fill="#000000" font-family="sans-serif" font-size="14" lengthAdjust="spacing" textLength="0" x="626" y="91.0234"/><!--MD5=[0ba5ee7700168656dc1b457c6fe9fdac]
entity Client--><rect fill="#FEFECE" filter="url(#f1puivtyc6spwz)" height="62.9766" style="stroke:#A80036;stroke-width:1.5;" width="80" x="943" y="41"/><rect fill="#FEFECE" height="10" style="stroke:#A80036;stroke-width:1.5;" width="15" x="1003" y="46"/><rect fill="#FEFECE" height="2" style="stroke:#A80036;stroke-width:1.5;" width="4" x="1001" y="48"/><rect fill="#FEFECE" height="2" style="stroke:#A80036;stroke-width:1.5;" width="4" x="1001" y="52"/><text fill="#000000" font-family="sans-serif" font-size="14" lengthAdjust="spacing" textLength="40" x="958" y="74.5352">Client</text><text fill="#000000" font-family="sans-serif" font-size="14" lengthAdjust="spacing" textLength="0" x="962" y="91.0234"/><!--MD5=[1bc0e9d87c58ccfd095064d9d8d496ac]
entity Dto--><rect fill="#FEFECE" filter="url(#f1puivtyc6spwz)" height="62.9766" style="stroke:#A80036;stroke-width:1.5;" width="64" x="844" y="41"/><rect fill="#FEFECE" height="10" style="stroke:#A80036;stroke-width:1.5;" width="15" x="888" y="46"/><rect fill="#FEFECE" height="2" style="stroke:#A80036;stroke-width:1.5;" width="4" x="886" y="48"/><rect fill="#FEFECE" height="2" style="stroke:#A80036;stroke-width:1.5;" width="4" x="886" y="52"/><text fill="#000000" font-family="sans-serif" font-size="14" lengthAdjust="spacing" textLength="24" x="859" y="74.5352">Dto</text><text fill="#000000" font-family="sans-serif" font-size="14" lengthAdjust="spacing" textLength="0" x="863" y="91.0234"/><!--MD5=[912d31da6911dab6049c221ae9b0c4c7]
@startuml
package "Authentication" {
  component Authentication [
    Authentication
  
  ]
}
package "Controller" {
  component CacheController [
    CacheController
  
  ]
  component ApiController [
    ApiController
  
  ]
}
package "Service" {
  component Service [
    Service
  
  ]
  component Vo [
    Vo
  
  ]
}
package "Client" {
  component Client [
    Client
  
  ]
  component Dto [
    Dto
  
  ]
}
@enduml

PlantUML version 1.2021.5(Sun Apr 25 19:20:28 CST 2021)
(GPL source distribution)
Java Runtime: OpenJDK Runtime Environment
JVM: OpenJDK 64-Bit Server VM
Default Encoding: UTF-8
Language: en
Country: CN
--></g></svg>