<?xml version="1.0" encoding="UTF-8" standalone="no"?><svg xmlns="http://www.w3.org/2000/svg" xmlns:xlink="http://www.w3.org/1999/xlink" contentScriptType="application/ecmascript" contentStyleType="text/css" height="443px" preserveAspectRatio="none" style="width:1935px;height:443px;" version="1.1" viewBox="0 0 1935 443" width="1935px" zoomAndPan="magnify"><defs><filter height="300%" id="fi3io31t4a8x" width="300%" x="-1" y="-1"><feGaussianBlur result="blurOut" stdDeviation="2.0"/><feColorMatrix in="blurOut" result="blurOut2" type="matrix" values="0 0 0 0 0 0 0 0 0 0 0 0 0 0 0 0 0 0 .4 0"/><feOffset dx="4.0" dy="4.0" in="blurOut2" result="blurOut3"/><feBlend in="SourceGraphic" in2="blurOut3" mode="normal"/></filter></defs><g><!--MD5=[fca8240bc233c06068545f9c8883ae88]
cluster Frontend--><polygon fill="#FFFFFF" filter="url(#fi3io31t4a8x)" points="21,6,91,6,98,28.4883,653,28.4883,653,209,21,209,21,6" style="stroke:#000000;stroke-width:1.5;"/><line style="stroke:#000000;stroke-width:1.5;" x1="21" x2="98" y1="28.4883" y2="28.4883"/><text fill="#000000" font-family="sans-serif" font-size="14" font-weight="bold" lengthAdjust="spacing" textLength="64" x="25" y="21.5352">Frontend</text><!--MD5=[70a18483d462b5b8afbe4b2392687415]
cluster BFF--><polygon fill="#FFFFFF" filter="url(#fi3io31t4a8x)" points="1194,6,1225,6,1232,28.4883,1499,28.4883,1499,103,1194,103,1194,6" style="stroke:#000000;stroke-width:1.5;"/><line style="stroke:#000000;stroke-width:1.5;" x1="1194" x2="1232" y1="28.4883" y2="28.4883"/><text fill="#000000" font-family="sans-serif" font-size="14" font-weight="bold" lengthAdjust="spacing" textLength="25" x="1198" y="21.5352">BFF</text><!--MD5=[ddf54e150db78e71a1f11b9d8db98453]
cluster ApplicationService--><polygon fill="#FFFFFF" filter="url(#fi3io31t4a8x)" points="677,6,815,6,822,28.4883,1170,28.4883,1170,209,677,209,677,6" style="stroke:#000000;stroke-width:1.5;"/><line style="stroke:#000000;stroke-width:1.5;" x1="677" x2="822" y1="28.4883" y2="28.4883"/><text fill="#000000" font-family="sans-serif" font-size="14" font-weight="bold" lengthAdjust="spacing" textLength="132" x="681" y="21.5352">ApplicationService</text><!--MD5=[96c99a30aa303e03f95727d14bc604d9]
cluster CoreBizService--><polygon fill="#FFFFFF" filter="url(#fi3io31t4a8x)" points="1523,6,1634,6,1641,28.4883,1918,28.4883,1918,103,1523,103,1523,6" style="stroke:#000000;stroke-width:1.5;"/><line style="stroke:#000000;stroke-width:1.5;" x1="1523" x2="1641" y1="28.4883" y2="28.4883"/><text fill="#000000" font-family="sans-serif" font-size="14" font-weight="bold" lengthAdjust="spacing" textLength="105" x="1527" y="21.5352">CoreBizService</text><!--MD5=[81dd091be11d8b44591fcecc3628662e]
cluster DomainService--><polygon fill="#FFFFFF" filter="url(#fi3io31t4a8x)" points="16,233,128,233,135,255.4883,470,255.4883,470,436,16,436,16,233" style="stroke:#000000;stroke-width:1.5;"/><line style="stroke:#000000;stroke-width:1.5;" x1="16" x2="135" y1="255.4883" y2="255.4883"/><text fill="#000000" font-family="sans-serif" font-size="14" font-weight="bold" lengthAdjust="spacing" textLength="106" x="20" y="248.5352">DomainService</text><!--MD5=[58671fa3fbaf455c75d53a229c1bf345]
entity GeneralWebPortal--><rect fill="#FEFECE" filter="url(#fi3io31t4a8x)" height="46.4883" style="stroke:#A80036;stroke-width:1.5;" width="162" x="37" y="41"/><rect fill="#FEFECE" height="10" style="stroke:#A80036;stroke-width:1.5;" width="15" x="179" y="46"/><rect fill="#FEFECE" height="2" style="stroke:#A80036;stroke-width:1.5;" width="4" x="177" y="48"/><rect fill="#FEFECE" height="2" style="stroke:#A80036;stroke-width:1.5;" width="4" x="177" y="52"/><text fill="#000000" font-family="sans-serif" font-size="14" lengthAdjust="spacing" textLength="122" x="52" y="74.5352">GeneralWebPortal</text><!--MD5=[d6061c3eda92f21a6cac9133292bc7a7]
entity IndividualApp4Android--><rect fill="#FEFECE" filter="url(#fi3io31t4a8x)" height="46.4883" style="stroke:#A80036;stroke-width:1.5;" width="200" x="234" y="41"/><rect fill="#FEFECE" height="10" style="stroke:#A80036;stroke-width:1.5;" width="15" x="414" y="46"/><rect fill="#FEFECE" height="2" style="stroke:#A80036;stroke-width:1.5;" width="4" x="412" y="48"/><rect fill="#FEFECE" height="2" style="stroke:#A80036;stroke-width:1.5;" width="4" x="412" y="52"/><text fill="#000000" font-family="sans-serif" font-size="14" lengthAdjust="spacing" textLength="160" x="249" y="74.5352">IndividualApp4Android</text><!--MD5=[fa0cb65f76cf89fce2e6f3da51383a3b]
entity IndividualApp4IOS--><rect fill="#FEFECE" filter="url(#fi3io31t4a8x)" height="46.4883" style="stroke:#A80036;stroke-width:1.5;" width="167" x="469.5" y="41"/><rect fill="#FEFECE" height="10" style="stroke:#A80036;stroke-width:1.5;" width="15" x="616.5" y="46"/><rect fill="#FEFECE" height="2" style="stroke:#A80036;stroke-width:1.5;" width="4" x="614.5" y="48"/><rect fill="#FEFECE" height="2" style="stroke:#A80036;stroke-width:1.5;" width="4" x="614.5" y="52"/><text fill="#000000" font-family="sans-serif" font-size="14" lengthAdjust="spacing" textLength="127" x="484.5" y="74.5352">IndividualApp4IOS</text><!--MD5=[ba49af3d4af5d3ef1f0e1c6b87cd5338]
entity OfficerApp4Android--><rect fill="#FEFECE" filter="url(#fi3io31t4a8x)" height="46.4883" style="stroke:#A80036;stroke-width:1.5;" width="179" x="37.5" y="147"/><rect fill="#FEFECE" height="10" style="stroke:#A80036;stroke-width:1.5;" width="15" x="196.5" y="152"/><rect fill="#FEFECE" height="2" style="stroke:#A80036;stroke-width:1.5;" width="4" x="194.5" y="154"/><rect fill="#FEFECE" height="2" style="stroke:#A80036;stroke-width:1.5;" width="4" x="194.5" y="158"/><text fill="#000000" font-family="sans-serif" font-size="14" lengthAdjust="spacing" textLength="139" x="52.5" y="180.5352">OfficerApp4Android</text><!--MD5=[e9002796d4223aaa0bfa182b3b813768]
entity OfficerApp4IOS--><rect fill="#FEFECE" filter="url(#fi3io31t4a8x)" height="46.4883" style="stroke:#A80036;stroke-width:1.5;" width="146" x="252" y="147"/><rect fill="#FEFECE" height="10" style="stroke:#A80036;stroke-width:1.5;" width="15" x="378" y="152"/><rect fill="#FEFECE" height="2" style="stroke:#A80036;stroke-width:1.5;" width="4" x="376" y="154"/><rect fill="#FEFECE" height="2" style="stroke:#A80036;stroke-width:1.5;" width="4" x="376" y="158"/><text fill="#000000" font-family="sans-serif" font-size="14" lengthAdjust="spacing" textLength="106" x="267" y="180.5352">OfficerApp4IOS</text><!--MD5=[9e7ccafa94a2df40cdc0284f3770afa4]
entity ManagementPortal--><rect fill="#FEFECE" filter="url(#fi3io31t4a8x)" height="46.4883" style="stroke:#A80036;stroke-width:1.5;" width="169" x="433.5" y="147"/><rect fill="#FEFECE" height="10" style="stroke:#A80036;stroke-width:1.5;" width="15" x="582.5" y="152"/><rect fill="#FEFECE" height="2" style="stroke:#A80036;stroke-width:1.5;" width="4" x="580.5" y="154"/><rect fill="#FEFECE" height="2" style="stroke:#A80036;stroke-width:1.5;" width="4" x="580.5" y="158"/><text fill="#000000" font-family="sans-serif" font-size="14" lengthAdjust="spacing" textLength="129" x="448.5" y="180.5352">ManagementPortal</text><!--MD5=[5a91b58eda4c6d9667cf80efb30fb2e1]
entity WebApiBff--><rect fill="#FEFECE" filter="url(#fi3io31t4a8x)" height="46.4883" style="stroke:#A80036;stroke-width:1.5;" width="110" x="1373" y="41"/><rect fill="#FEFECE" height="10" style="stroke:#A80036;stroke-width:1.5;" width="15" x="1463" y="46"/><rect fill="#FEFECE" height="2" style="stroke:#A80036;stroke-width:1.5;" width="4" x="1461" y="48"/><rect fill="#FEFECE" height="2" style="stroke:#A80036;stroke-width:1.5;" width="4" x="1461" y="52"/><text fill="#000000" font-family="sans-serif" font-size="14" lengthAdjust="spacing" textLength="70" x="1388" y="74.5352">WebApiBff</text><!--MD5=[806b6cf7e381f03c0ddf55220dd7a77c]
entity MobileApiBff--><rect fill="#FEFECE" filter="url(#fi3io31t4a8x)" height="46.4883" style="stroke:#A80036;stroke-width:1.5;" width="127" x="1210.5" y="41"/><rect fill="#FEFECE" height="10" style="stroke:#A80036;stroke-width:1.5;" width="15" x="1317.5" y="46"/><rect fill="#FEFECE" height="2" style="stroke:#A80036;stroke-width:1.5;" width="4" x="1315.5" y="48"/><rect fill="#FEFECE" height="2" style="stroke:#A80036;stroke-width:1.5;" width="4" x="1315.5" y="52"/><text fill="#000000" font-family="sans-serif" font-size="14" lengthAdjust="spacing" textLength="87" x="1225.5" y="74.5352">MobileApiBff</text><!--MD5=[8b2a0163ece511edf6fcc28fa8e06f8e]
entity ManagementApplication--><rect fill="#FEFECE" filter="url(#fi3io31t4a8x)" height="46.4883" style="stroke:#A80036;stroke-width:1.5;" width="207" x="693.5" y="41"/><rect fill="#FEFECE" height="10" style="stroke:#A80036;stroke-width:1.5;" width="15" x="880.5" y="46"/><rect fill="#FEFECE" height="2" style="stroke:#A80036;stroke-width:1.5;" width="4" x="878.5" y="48"/><rect fill="#FEFECE" height="2" style="stroke:#A80036;stroke-width:1.5;" width="4" x="878.5" y="52"/><text fill="#000000" font-family="sans-serif" font-size="14" lengthAdjust="spacing" textLength="167" x="708.5" y="74.5352">ManagementApplication</text><!--MD5=[c635079030528be04812c46304ac6bcf]
entity PopularizationApplication--><rect fill="#FEFECE" filter="url(#fi3io31t4a8x)" height="46.4883" style="stroke:#A80036;stroke-width:1.5;" width="218" x="936" y="41"/><rect fill="#FEFECE" height="10" style="stroke:#A80036;stroke-width:1.5;" width="15" x="1134" y="46"/><rect fill="#FEFECE" height="2" style="stroke:#A80036;stroke-width:1.5;" width="4" x="1132" y="48"/><rect fill="#FEFECE" height="2" style="stroke:#A80036;stroke-width:1.5;" width="4" x="1132" y="52"/><text fill="#000000" font-family="sans-serif" font-size="14" lengthAdjust="spacing" textLength="178" x="951" y="74.5352">PopularizationApplication</text><!--MD5=[c339fe5b3668dc1fac63d7cf195cea12]
entity RentalApplication--><rect fill="#FEFECE" filter="url(#fi3io31t4a8x)" height="46.4883" style="stroke:#A80036;stroke-width:1.5;" width="161" x="716.5" y="147"/><rect fill="#FEFECE" height="10" style="stroke:#A80036;stroke-width:1.5;" width="15" x="857.5" y="152"/><rect fill="#FEFECE" height="2" style="stroke:#A80036;stroke-width:1.5;" width="4" x="855.5" y="154"/><rect fill="#FEFECE" height="2" style="stroke:#A80036;stroke-width:1.5;" width="4" x="855.5" y="158"/><text fill="#000000" font-family="sans-serif" font-size="14" lengthAdjust="spacing" textLength="121" x="731.5" y="180.5352">RentalApplication</text><!--MD5=[25a316f11a775454ef1ed166a4145b65]
entity PopularizationService--><rect fill="#FEFECE" filter="url(#fi3io31t4a8x)" height="46.4883" style="stroke:#A80036;stroke-width:1.5;" width="188" x="1714" y="41"/><rect fill="#FEFECE" height="10" style="stroke:#A80036;stroke-width:1.5;" width="15" x="1882" y="46"/><rect fill="#FEFECE" height="2" style="stroke:#A80036;stroke-width:1.5;" width="4" x="1880" y="48"/><rect fill="#FEFECE" height="2" style="stroke:#A80036;stroke-width:1.5;" width="4" x="1880" y="52"/><text fill="#000000" font-family="sans-serif" font-size="14" lengthAdjust="spacing" textLength="148" x="1729" y="74.5352">PopularizationService</text><!--MD5=[6e781d81842fd993c668c75059b40aa6]
entity PrepaidService--><rect fill="#FEFECE" filter="url(#fi3io31t4a8x)" height="46.4883" style="stroke:#A80036;stroke-width:1.5;" width="140" x="1539" y="41"/><rect fill="#FEFECE" height="10" style="stroke:#A80036;stroke-width:1.5;" width="15" x="1659" y="46"/><rect fill="#FEFECE" height="2" style="stroke:#A80036;stroke-width:1.5;" width="4" x="1657" y="48"/><rect fill="#FEFECE" height="2" style="stroke:#A80036;stroke-width:1.5;" width="4" x="1657" y="52"/><text fill="#000000" font-family="sans-serif" font-size="14" lengthAdjust="spacing" textLength="100" x="1554" y="74.5352">PrepaidService</text><!--MD5=[aca1dd5cdc865beae83f446f8f893f64]
entity AuthenticationService--><rect fill="#FEFECE" filter="url(#fi3io31t4a8x)" height="46.4883" style="stroke:#A80036;stroke-width:1.5;" width="189" x="32.5" y="268"/><rect fill="#FEFECE" height="10" style="stroke:#A80036;stroke-width:1.5;" width="15" x="201.5" y="273"/><rect fill="#FEFECE" height="2" style="stroke:#A80036;stroke-width:1.5;" width="4" x="199.5" y="275"/><rect fill="#FEFECE" height="2" style="stroke:#A80036;stroke-width:1.5;" width="4" x="199.5" y="279"/><text fill="#000000" font-family="sans-serif" font-size="14" lengthAdjust="spacing" textLength="149" x="47.5" y="301.5352">AuthenticationService</text><!--MD5=[4340d86e4e49e3a9ca9a7aa88e9bb6a7]
entity RentalInfoMgmtService--><rect fill="#FEFECE" filter="url(#fi3io31t4a8x)" height="46.4883" style="stroke:#A80036;stroke-width:1.5;" width="197" x="256.5" y="268"/><rect fill="#FEFECE" height="10" style="stroke:#A80036;stroke-width:1.5;" width="15" x="433.5" y="273"/><rect fill="#FEFECE" height="2" style="stroke:#A80036;stroke-width:1.5;" width="4" x="431.5" y="275"/><rect fill="#FEFECE" height="2" style="stroke:#A80036;stroke-width:1.5;" width="4" x="431.5" y="279"/><text fill="#000000" font-family="sans-serif" font-size="14" lengthAdjust="spacing" textLength="157" x="271.5" y="301.5352">RentalInfoMgmtService</text><!--MD5=[f30bc7932f1cb4011b90aa752ddd2dd0]
entity UserManagementService--><rect fill="#FEFECE" filter="url(#fi3io31t4a8x)" height="46.4883" style="stroke:#A80036;stroke-width:1.5;" width="208" x="32" y="374"/><rect fill="#FEFECE" height="10" style="stroke:#A80036;stroke-width:1.5;" width="15" x="220" y="379"/><rect fill="#FEFECE" height="2" style="stroke:#A80036;stroke-width:1.5;" width="4" x="218" y="381"/><rect fill="#FEFECE" height="2" style="stroke:#A80036;stroke-width:1.5;" width="4" x="218" y="385"/><text fill="#000000" font-family="sans-serif" font-size="14" lengthAdjust="spacing" textLength="168" x="47" y="407.5352">UserManagementService</text><!--MD5=[10d8b485c85aa8a54cc39880ee6db480]
link GeneralWebPortal to IndividualApp4Android--><!--MD5=[123d36ba5e9fa6e83822aec2340b21ff]
link IndividualApp4Android to IndividualApp4IOS--><!--MD5=[db89579551eb25cf76f7b6ca990598c3]
link GeneralWebPortal to OfficerApp4Android--><!--MD5=[d623e7a8290a2fbd3942fff5264a51e2]
link OfficerApp4Android to OfficerApp4IOS--><!--MD5=[4fdc91d1d0405f9a19dfc6a641cbc9ef]
link OfficerApp4IOS to ManagementPortal--><!--MD5=[dde70f3e96991576e0327c2707e5e083]
link ManagementApplication to PopularizationApplication--><!--MD5=[be518713a321cd421cf2773aff22591f]
link ManagementApplication to RentalApplication--><!--MD5=[7f0c5438f257b3578bda8a5c4f1faa3e]
link AuthenticationService to RentalInfoMgmtService--><!--MD5=[6b5d913d3e8ec0d5b19cfe13b84104eb]
link AuthenticationService to UserManagementService--><!--MD5=[1301c438939347dee7684510c7836c2e]
link IndividualApp4IOS to ManagementApplication--><!--MD5=[dae860d6fc2c01b4c95928ee06ac763d]
link OfficerApp4Android to AuthenticationService--><!--MD5=[248b5d0e163e414738c685bbcd722b91]
@startuml
skinparam sequence {
    BoxBorderColor WHITE
}
package "Frontend" {
  [GeneralWebPortal]
  [IndividualApp4Android]
  [IndividualApp4IOS]
  [OfficerApp4Android]
  [OfficerApp4IOS]
  [ManagementPortal]
}
package "BFF" {
  [WebApiBff]
  [MobileApiBff]
}
package "ApplicationService" {
  [ManagementApplication]
  [PopularizationApplication]
  [RentalApplication]
}
package "CoreBizService" {
  [PopularizationService]
  [PrepaidService]
}
package "DomainService" {
  [AuthenticationService]
  [RentalInfoMgmtService]
  [UserManagementService]
}
@enduml

PlantUML version 1.2021.5(Sun Apr 25 19:20:28 CST 2021)
(GPL source distribution)
Java Runtime: OpenJDK Runtime Environment
JVM: OpenJDK 64-Bit Server VM
Default Encoding: UTF-8
Language: en
Country: CN
--></g></svg>